<?xml version="1.0" encoding="UTF-8" standalone="no"?>
<!-- Uploaded to: SVG Repo, www.svgrepo.com, Generator: SVG Repo Mixer Tools -->

<svg
   fill="#000000"
   height="700"
   width="850"
   version="1.1"
   id="Layer_1"
   viewBox="0 0 544 448"
   xml:space="preserve"
   sodipodi:docname="Handshake.svg"
   inkscape:version="1.2.1 (9c6d41e4, 2022-07-14)"
   xmlns:inkscape="http://www.inkscape.org/namespaces/inkscape"
   xmlns:sodipodi="http://sodipodi.sourceforge.net/DTD/sodipodi-0.dtd"
   xmlns="http://www.w3.org/2000/svg"
   xmlns:svg="http://www.w3.org/2000/svg"><defs
   id="defs7035"><inkscape:path-effect
     effect="powerstroke"
     id="path-effect2575"
     is_visible="true"
     lpeversion="1"
     offset_points="0.2023166,0.74125648 | 0.50230554,1.5350055 | 0.80000737,0.74083401"
     not_jump="false"
     sort_points="true"
     interpolator_type="CentripetalCatmullRom"
     interpolator_beta="0.2"
     start_linecap_type="zerowidth"
     linejoin_type="round"
     miter_limit="4"
     scale_width="1"
     end_linecap_type="zerowidth" /></defs><sodipodi:namedview
   id="namedview7033"
   pagecolor="#ffffff"
   bordercolor="#000000"
   borderopacity="0.25"
   inkscape:showpageshadow="2"
   inkscape:pageopacity="0.0"
   inkscape:pagecheckerboard="0"
   inkscape:deskcolor="#d1d1d1"
   showgrid="false"
   inkscape:zoom="0.59"
   inkscape:cx="404.23729"
   inkscape:cy="808.47458"
   inkscape:window-width="1080"
   inkscape:window-height="1550"
   inkscape:window-x="0"
   inkscape:window-y="25"
   inkscape:window-maximized="0"
   inkscape:current-layer="g7028" />



<g
   id="g7030">
	<g
   id="g7028">
		<g
   id="g9165"
   transform="translate(15.526187,-37.33614)"
   style="stroke-width:0.64;stroke-dasharray:none"><path
     d="m 512,160.899 c 0,-28.316 -11.028,-54.938 -31.05,-74.961 -41.334,-41.334 -108.587,-41.333 -149.919,0 l -29.096,29.096 c -4.548,-1.422 -9.2,-2.417 -13.896,-2.988 -24.621,-14.247 -56.01,-16.601 -81.862,-6.4 L 180.972,80.44 C 160.949,60.417 134.327,49.39 106.012,49.39 77.697,49.39 51.072,60.418 31.051,80.44 11.027,100.463 0,127.084 0,155.4 c 0,28.316 11.027,54.937 31.049,74.96 l 68.235,68.235 c -1.582,1.133 -3.095,2.402 -4.515,3.822 l -9.892,9.892 c -6.812,6.812 -10.565,15.87 -10.565,25.504 0,9.634 3.753,18.692 10.565,25.504 6.812,6.813 15.87,10.565 25.504,10.565 1.245,0 2.481,-0.066 3.704,-0.19 -1.062,10.422 2.388,21.221 10.356,29.189 7.032,7.032 16.269,10.548 25.505,10.548 2.839,0 5.677,-0.336 8.451,-0.999 0.111,9.472 3.845,18.361 10.554,25.07 6.812,6.813 15.87,10.565 25.504,10.565 4.338,0 8.557,-0.767 12.508,-2.225 l 5.648,5.648 c 7.36,7.36 17.149,11.123 26.823,11.123 8.045,0 16.012,-2.604 22.431,-7.905 7.728,-6.383 12.483,-15.702 13.101,-25.636 11.658,3.902 24.804,2.03 34.454,-5.939 7.66,-6.326 12.399,-15.536 13.083,-25.371 11.764,4.092 25.112,2.275 34.881,-5.793 7.67,-6.335 12.411,-15.561 13.086,-25.41 11.749,4.065 25.066,2.239 34.817,-5.816 7.862,-6.494 12.647,-16.025 13.129,-26.151 0.465,-9.765 -3.091,-19.33 -9.767,-26.428 L 480.95,235.861 C 500.973,215.837 512,189.215 512,160.899 Z M 110.383,357.696 c -5.311,0 -10.304,-2.069 -14.06,-5.824 -7.753,-7.753 -7.753,-20.367 0,-28.12 l 9.892,-9.892 c 3.877,-3.877 8.968,-5.814 14.06,-5.814 5.091,0 10.184,1.938 14.06,5.814 7.753,7.753 7.753,20.367 0,28.12 l -9.892,9.891 c -3.756,3.757 -8.749,5.825 -14.06,5.825 z m 53.624,33.74 c -7.753,7.753 -20.367,7.753 -28.12,0 -7.753,-7.753 -7.753,-20.367 0,-28.12 7.753,-7.753 20.367,-7.752 28.12,0 7.753,7.754 7.753,20.368 0,28.12 z m 44.511,34.619 c -3.755,3.756 -8.749,5.824 -14.06,5.824 -5.311,0 -10.304,-2.067 -14.06,-5.824 -3.755,-3.755 -5.824,-8.749 -5.824,-14.06 0,-5.311 2.069,-10.304 5.824,-14.06 3.755,-3.756 8.749,-5.824 14.06,-5.824 5.311,0 10.304,2.068 14.06,5.824 3.756,3.755 5.824,8.749 5.824,14.06 -0.001,5.311 -2.069,10.304 -5.824,14.06 z M 394.982,348.26 c -7.777,6.422 -19.856,5.463 -27.503,-2.183 l -7.487,-7.487 -9.891,-9.892 c -3.161,-3.162 -8.285,-3.16 -11.444,0 -3.16,3.16 -3.16,8.285 0,11.444 l 9.892,9.891 c 3.953,3.953 6.067,9.424 5.801,15.013 -0.27,5.664 -2.851,10.792 -7.268,14.44 -7.777,6.424 -19.857,5.463 -27.503,-2.182 l -7.55,-7.55 -9.892,-9.892 c -3.16,-3.16 -8.285,-3.16 -11.444,0 -3.16,3.161 -3.16,8.285 0,11.444 l 9.892,9.892 c 3.953,3.953 6.067,9.424 5.801,15.013 -0.27,5.664 -2.851,10.791 -7.268,14.44 -7.777,6.422 -19.856,5.463 -27.503,-2.183 l -7.139,-7.14 -9.892,-9.892 c -3.16,-3.162 -8.285,-3.16 -11.444,0 -3.16,3.161 -3.16,8.285 0,11.444 l 9.886,9.885 c 0.002,0.002 0.003,0.003 0.005,0.005 3.953,3.952 6.067,9.424 5.801,15.014 -0.27,5.663 -2.851,10.79 -7.268,14.44 -7.777,6.424 -19.856,5.463 -27.503,-2.183 l -3.339,-3.337 c 6.328,-6.715 9.807,-15.442 9.807,-24.709 0,-9.635 -3.752,-18.692 -10.565,-25.504 -6.812,-6.813 -15.87,-10.565 -25.504,-10.565 -2.891,0 -5.728,0.344 -8.468,1.001 -0.112,-9.087 -3.619,-18.138 -10.537,-25.055 -6.083,-6.083 -13.816,-9.529 -21.772,-10.35 5.285,-13.033 2.652,-28.552 -7.902,-39.105 -8.185,-8.185 -19.355,-11.596 -30.036,-10.254 L 42.497,218.915 C 25.529,201.949 16.186,179.393 16.186,155.401 c 0,-23.992 9.343,-46.55 26.309,-63.515 16.965,-16.967 39.522,-26.309 63.515,-26.309 23.993,0 46.55,9.343 63.515,26.309 l 29.099,29.101 c 2.426,2.426 6.116,3.057 9.211,1.58 13.218,-6.316 28.627,-8.35 43.552,-6.254 -10.231,3.78 -19.828,9.751 -28.033,17.955 l -49.456,49.456 c -14.063,14.063 -14.063,36.945 0,51.009 7.032,7.032 16.266,10.548 25.504,10.548 9.235,0 18.474,-3.517 25.505,-10.548 L 268.64,191 396.448,318.808 c 3.953,3.952 6.067,9.424 5.801,15.013 -0.269,5.661 -2.85,10.79 -7.267,14.439 z m 2.243,-51.565 -117.14,-117.14 4.169,-4.169 c 3.16,-3.161 3.16,-8.285 0,-11.444 -3.161,-3.16 -8.285,-3.16 -11.444,0 l -59.347,59.347 c -7.753,7.753 -20.368,7.752 -28.12,0 -7.753,-7.753 -7.753,-20.367 0,-28.12 l 49.456,-49.456 c 24.115,-24.114 63.351,-24.114 87.467,0 3.16,3.16 8.285,3.16 11.444,0 3.161,-3.161 3.161,-8.285 0,-11.444 -4.858,-4.858 -10.206,-8.931 -15.881,-12.238 l 24.646,-24.646 c 35.022,-35.021 92.008,-35.022 127.031,0 35.022,35.022 35.022,92.008 0,127.031 z"
     id="path7026"
     style="stroke-width:0.384;stroke-dasharray:none" /></g>
	<path
   id="path9144"
   d="m 72.406778,892.40606 8.270956,-3.05059 z"
   style="display:inline;fill:#b76e79;fill-opacity:1;stroke:#000000;stroke-width:2.4189" /><g
   id="g439"
   transform="matrix(1.5001934,-0.54602574,0.54602574,1.5001934,137.79478,229.53727)"><g
     id="g9217"
     transform="matrix(0.8,0,0,0.8,22.100487,-3.2737291)"><circle
       style="fill:none;stroke-width:0.264583"
       id="circle113"
       cx="62.923317"
       cy="60.799999"
       r="50.799999" /><path
       style="fill:#1a1a1a;fill-rule:nonzero;stroke:none;stroke-width:2.54;stroke-dasharray:none;stroke-opacity:1"
       d="m 5.6352521,61.499064 c 3.86364,0.117374 14.6955349,0.484134 23.1818399,0.704242 10.33243,0.26799 22.937588,0.758208 34.372845,0.738864 11.391607,-0.01927 23.866504,-0.547484 34.108261,-0.848635 8.395472,-0.246862 19.094332,-0.647852 22.913202,-0.777422 -3.81926,-0.117374 -14.51935,-0.484194 -22.915568,-0.704244 -10.242666,-0.268442 -22.719186,-0.756815 -34.110797,-0.739706 -11.435261,0.01718 -24.038789,0.547646 -34.37031,0.848631 -8.485559,0.247208 -19.3162274,0.648558 -23.1794729,0.77827 z"
       id="path2309-6"
       inkscape:path-effect="#path-effect2575"
       inkscape:original-d="M 5.6352521,61.499064 120.2114,61.316113"
       sodipodi:nodetypes="cc" /><path
       id="path2490"
       style="fill:#1a1a1a;fill-rule:nonzero;stroke:none;stroke-width:2.54;stroke-dasharray:none;stroke-opacity:1"
       d="m 61.753367,30.69115 c -1.660231,0 -4.228793,0.130108 -6.956165,1.009757 -1.249163,0.402889 -2.366041,0.90709 -3.381705,1.471745 -0.675862,0.375743 -1.3406,0.79706 -2.004529,1.269173 -1.557557,1.107561 -2.995626,2.410915 -4.499467,3.902088 -1.456405,1.444134 -2.924778,3.011077 -4.471045,4.557344 -3.262463,3.262463 -7.084698,6.397743 -12.397176,9.492961 -1.117559,0.651125 -2.258324,1.27699 -3.433899,1.890324 -2.842612,1.483079 -5.925172,2.939269 -9.707935,4.354256 -3.690882,1.380617 -7.0734521,2.344901 -9.2304462,2.876827 2.2109742,-0.310512 5.6757002,-0.794072 9.5880472,-1.674833 3.911754,-0.880628 7.441393,-1.975075 10.437606,-3.260783 1.268729,-0.544427 2.500945,-1.143994 3.693315,-1.792655 5.699445,-3.100551 9.527571,-6.771668 12.846244,-10.090341 1.581888,-1.581887 3.054564,-3.152219 4.46381,-4.549593 1.460281,-1.447977 2.786548,-2.642656 4.182691,-3.635437 0.592622,-0.421407 1.178751,-0.792607 1.767334,-1.119828 0.883289,-0.491063 1.848261,-0.925917 2.926953,-1.273824 2.367784,-0.763672 4.637103,-0.887284 6.176367,-0.887284 h 1.070219 0.199988 1.069702 c 1.539263,0 3.808582,0.123612 6.176367,0.887284 1.078692,0.347907 2.044181,0.78276 2.92747,1.273824 0.588582,0.327221 1.174195,0.698421 1.766817,1.119828 1.396142,0.992781 2.722411,2.18746 4.18269,3.635437 1.409247,1.397375 2.881931,2.967712 4.463811,4.549593 3.318678,3.31868 7.147318,6.989789 12.846761,10.090341 1.19237,0.64866 2.424586,1.248229 3.693318,1.792655 2.99622,1.285709 6.52534,2.380155 10.4371,3.260783 3.91233,0.880761 7.37707,1.364321 9.58804,1.674833 -2.15699,-0.531926 -5.53956,-1.49621 -9.23044,-2.876827 -3.78276,-1.414987 -6.86532,-2.871177 -9.70794,-4.354256 -1.17558,-0.613334 -2.316349,-1.239199 -3.433907,-1.890324 C 92.490888,49.299 88.669158,46.163713 85.406703,42.901257 83.86043,41.354983 82.391545,39.788046 80.935142,38.343913 79.431299,36.852739 77.993747,35.549386 76.436192,34.441825 75.772262,33.969712 75.107007,33.548395 74.431146,33.172652 73.415482,32.607997 72.298604,32.103796 71.04944,31.700907 68.322069,30.821258 65.753507,30.69115 64.093276,30.69115 h -1.069702 -0.199988 z" /><path
       id="path2490-3"
       style="fill:#1a1a1a;fill-rule:nonzero;stroke:none;stroke-width:2.37368;stroke-dasharray:none;stroke-opacity:1"
       d="m 61.901564,95.051824 c -1.449925,0 -3.69312,-0.13011 -6.075009,-1.009757 -1.090927,-0.402889 -2.066327,-0.90709 -2.953334,-1.471745 -0.590248,-0.375743 -1.170782,-0.79706 -1.75061,-1.269173 -1.360256,-1.107561 -2.616161,-2.410915 -3.929506,-3.902088 -1.271919,-1.444134 -2.554289,-3.011077 -3.904685,-4.557344 -2.849197,-3.262463 -6.187259,-6.397743 -10.82679,-9.492961 -0.975995,-0.651125 -1.972255,-1.27699 -2.998917,-1.890324 -2.48253,-1.483079 -5.174613,-2.939269 -8.478203,-4.354256 -3.223345,-1.380617 -6.177435,-2.344901 -8.061197,-2.876829 1.930905,0.31051 4.956743,0.794074 8.3735,1.674835 3.416241,0.880628 6.49877,1.975075 9.115443,3.260783 1.108017,0.544427 2.184144,1.143994 3.225474,1.792655 4.977479,3.100551 8.320685,6.771668 11.218973,10.090341 1.381506,1.581887 2.667633,3.152219 3.898366,4.549593 1.275302,1.447977 2.433567,2.642656 3.652857,3.635437 0.517554,0.421407 1.029435,0.792607 1.543462,1.119828 0.7714,0.491063 1.614136,0.925917 2.556187,1.273824 2.06785,0.763672 4.049708,0.887284 5.393989,0.887284 h 0.934651 0.174655 0.9342 c 1.34428,0 3.326138,-0.123612 5.393989,-0.887284 0.942051,-0.347907 1.785237,-0.78276 2.556639,-1.273824 0.514023,-0.327221 1.025456,-0.698421 1.543008,-1.119828 1.219289,-0.992781 2.377555,-2.18746 3.652858,-3.635437 1.230732,-1.397375 2.516867,-2.967712 3.898366,-4.549593 2.898291,-3.31868 6.241945,-6.989789 11.219429,-10.090341 1.041329,-0.64866 2.117455,-1.248229 3.225465,-1.792655 2.61667,-1.285709 5.698756,-2.380155 9.115016,-3.260783 3.41675,-0.880761 6.4426,-1.364325 8.3735,-1.674835 -1.88376,0.531928 -4.83785,1.496212 -8.06119,2.876829 -3.30361,1.414987 -5.995706,2.871177 -8.478226,4.354256 -1.02667,0.613334 -2.02292,1.239199 -2.998919,1.890324 -4.639532,3.095218 -7.977151,6.230505 -10.826341,9.492961 -1.350403,1.546274 -2.633219,3.113211 -3.905136,4.557344 -1.313348,1.491174 -2.5688,2.794527 -3.929055,3.902088 -0.579828,0.472113 -1.160813,0.89343 -1.751062,1.269173 -0.887006,0.564655 -1.862406,1.068856 -2.953334,1.471745 -2.381887,0.879647 -4.625082,1.009757 -6.075007,1.009757 h -0.9342 -0.174655 z" /></g></g></g>
</g>
</svg>
