<?xml version="1.0" encoding="UTF-8" standalone="no"?>
<!-- Created with Inkscape (http://www.inkscape.org/) -->

<svg
   width="4.5999999in"
   height="3in"
   viewBox="0 0 116.84 76.2"
   version="1.1"
   id="svg5"
   sodipodi:docname="logo_v2.svg"
   inkscape:version="1.2.1 (9c6d41e4, 2022-07-14)"
   xmlns:inkscape="http://www.inkscape.org/namespaces/inkscape"
   xmlns:sodipodi="http://sodipodi.sourceforge.net/DTD/sodipodi-0.dtd"
   xmlns="http://www.w3.org/2000/svg"
   xmlns:svg="http://www.w3.org/2000/svg">
  <sodipodi:namedview
     id="namedview10"
     pagecolor="#ffffff"
     bordercolor="#000000"
     borderopacity="0.25"
     inkscape:showpageshadow="2"
     inkscape:pageopacity="0.0"
     inkscape:pagecheckerboard="0"
     inkscape:deskcolor="#d1d1d1"
     inkscape:document-units="in"
     showgrid="false"
     inkscape:zoom="0.88020835"
     inkscape:cx="39.763313"
     inkscape:cy="248.23668"
     inkscape:window-width="1791"
     inkscape:window-height="995"
     inkscape:window-x="0"
     inkscape:window-y="25"
     inkscape:window-maximized="0"
     inkscape:current-layer="layer1" />
  <defs
     id="defs2" />
  <g
     id="layer1"
     transform="rotate(19,147.89931,29.213315)">
    <g
       id="g3613"
       transform="translate(2.6792232,4.0878951)">
      <g
         id="g2622"
         transform="rotate(-20,62.933219,60.788087)">
        <path
           style="fill:#000000;fill-rule:nonzero;stroke:none;stroke-width:2.54;stroke-dasharray:none;stroke-opacity:1"
           d="m 5.6352521,61.499064 c 3.86364,0.117374 14.6955349,0.484134 23.1818399,0.704242 10.33243,0.26799 22.937588,0.758208 34.372845,0.738864 11.391607,-0.01927 23.866504,-0.547484 34.108261,-0.848635 8.395472,-0.246862 19.094332,-0.647852 22.913202,-0.777422 -3.81926,-0.117374 -14.51935,-0.484194 -22.915568,-0.704244 -10.242666,-0.268442 -22.719186,-0.756815 -34.110797,-0.739706 -11.435261,0.01718 -24.038789,0.547646 -34.37031,0.848631 -8.485559,0.247208 -19.3162274,0.648558 -23.1794729,0.77827 z"
           id="path2309-6"
           inkscape:label="path2309-6" />
        <path
           id="path2490"
           style="fill:#000000;fill-rule:nonzero;stroke:none;stroke-width:2.54;stroke-dasharray:none;stroke-opacity:1"
           d="m 61.753367,30.69115 c -1.660231,0 -4.228793,0.130108 -6.956165,1.009757 -1.249163,0.402889 -2.366041,0.90709 -3.381705,1.471745 -0.675862,0.375743 -1.3406,0.79706 -2.004529,1.269173 -1.557557,1.107561 -2.995626,2.410915 -4.499467,3.902088 -1.456405,1.444134 -2.924778,3.011077 -4.471045,4.557344 -3.262463,3.262463 -7.084698,6.397743 -12.397176,9.492961 -1.117559,0.651125 -2.258324,1.27699 -3.433899,1.890324 -2.842612,1.483079 -5.925172,2.939269 -9.707935,4.354256 -3.690882,1.380617 -7.0734521,2.344901 -9.2304462,2.876827 2.2109742,-0.310512 5.6757002,-0.794072 9.5880472,-1.674833 3.911754,-0.880628 7.441393,-1.975075 10.437606,-3.260783 1.268729,-0.544427 2.500945,-1.143994 3.693315,-1.792655 5.699445,-3.100551 9.527571,-6.771668 12.846244,-10.090341 1.581888,-1.581887 3.054564,-3.152219 4.46381,-4.549593 1.460281,-1.447977 2.786548,-2.642656 4.182691,-3.635437 0.592622,-0.421407 1.178751,-0.792607 1.767334,-1.119828 0.883289,-0.491063 1.848261,-0.925917 2.926953,-1.273824 2.367784,-0.763672 4.637103,-0.887284 6.176367,-0.887284 h 1.070219 0.199988 1.069702 c 1.539263,0 3.808582,0.123612 6.176367,0.887284 1.078692,0.347907 2.044181,0.78276 2.92747,1.273824 0.588582,0.327221 1.174195,0.698421 1.766817,1.119828 1.396142,0.992781 2.722411,2.18746 4.18269,3.635437 1.409247,1.397375 2.881931,2.967712 4.463811,4.549593 3.318678,3.31868 7.147318,6.989789 12.846761,10.090341 1.19237,0.64866 2.424586,1.248229 3.693318,1.792655 2.99622,1.285709 6.52534,2.380155 10.4371,3.260783 3.91233,0.880761 7.37707,1.364321 9.58804,1.674833 -2.15699,-0.531926 -5.53956,-1.49621 -9.23044,-2.876827 -3.78276,-1.414987 -6.86532,-2.871177 -9.70794,-4.354256 -1.17558,-0.613334 -2.316349,-1.239199 -3.433907,-1.890324 C 92.490888,49.299 88.669158,46.163713 85.406703,42.901257 83.86043,41.354983 82.391545,39.788046 80.935142,38.343913 79.431299,36.852739 77.993747,35.549386 76.436192,34.441825 75.772262,33.969712 75.107007,33.548395 74.431146,33.172652 73.415482,32.607997 72.298604,32.103796 71.04944,31.700907 68.322069,30.821258 65.753507,30.69115 64.093276,30.69115 h -1.069702 -0.199988 z" />
        <path
           id="path2490-3"
           style="fill:#000000;fill-rule:nonzero;stroke:none;stroke-width:2.37368;stroke-dasharray:none;stroke-opacity:1"
           d="m 61.901564,95.051824 c -1.449925,0 -3.69312,-0.13011 -6.075009,-1.009757 -1.090927,-0.402889 -2.066327,-0.90709 -2.953334,-1.471745 -0.590248,-0.375743 -1.170782,-0.79706 -1.75061,-1.269173 -1.360256,-1.107561 -2.616161,-2.410915 -3.929506,-3.902088 -1.271919,-1.444134 -2.554289,-3.011077 -3.904685,-4.557344 -2.849197,-3.262463 -6.187259,-6.397743 -10.82679,-9.492961 -0.975995,-0.651125 -1.972255,-1.27699 -2.998917,-1.890324 -2.48253,-1.483079 -5.174613,-2.939269 -8.478203,-4.354256 -3.223345,-1.380617 -6.177435,-2.344901 -8.061197,-2.876829 1.930905,0.31051 4.956743,0.794074 8.3735,1.674835 3.416241,0.880628 6.49877,1.975075 9.115443,3.260783 1.108017,0.544427 2.184144,1.143994 3.225474,1.792655 4.977479,3.100551 8.320685,6.771668 11.218973,10.090341 1.381506,1.581887 2.667633,3.152219 3.898366,4.549593 1.275302,1.447977 2.433567,2.642656 3.652857,3.635437 0.517554,0.421407 1.029435,0.792607 1.543462,1.119828 0.7714,0.491063 1.614136,0.925917 2.556187,1.273824 2.06785,0.763672 4.049708,0.887284 5.393989,0.887284 h 0.934651 0.174655 0.9342 c 1.34428,0 3.326138,-0.123612 5.393989,-0.887284 0.942051,-0.347907 1.785237,-0.78276 2.556639,-1.273824 0.514023,-0.327221 1.025456,-0.698421 1.543008,-1.119828 1.219289,-0.992781 2.377555,-2.18746 3.652858,-3.635437 1.230732,-1.397375 2.516867,-2.967712 3.898366,-4.549593 2.898291,-3.31868 6.241945,-6.989789 11.219429,-10.090341 1.041329,-0.64866 2.117455,-1.248229 3.225465,-1.792655 2.61667,-1.285709 5.698756,-2.380155 9.115016,-3.260783 3.41675,-0.880761 6.4426,-1.364325 8.3735,-1.674835 -1.88376,0.531928 -4.83785,1.496212 -8.06119,2.876829 -3.30361,1.414987 -5.995706,2.871177 -8.478226,4.354256 -1.02667,0.613334 -2.02292,1.239199 -2.998919,1.890324 -4.639532,3.095218 -7.977151,6.230505 -10.826341,9.492961 -1.350403,1.546274 -2.633219,3.113211 -3.905136,4.557344 -1.313348,1.491174 -2.5688,2.794527 -3.929055,3.902088 -0.579828,0.472113 -1.160813,0.89343 -1.751062,1.269173 -0.887006,0.564655 -1.862406,1.068856 -2.953334,1.471745 -2.381887,0.879647 -4.625082,1.009757 -6.075007,1.009757 h -0.9342 -0.174655 z" />
      </g>
      <g
         id="g3391"
         transform="matrix(0.88040301,-0.30314707,0.32569509,0.94588723,-22.891455,70.143552)"
         inkscape:label="g3391">
        <rect
           style="fill:#000000;stroke:#000000;stroke-width:0.457232;stroke-opacity:1"
           id="rect3365-9-7"
           width="4.3252892"
           height="51.972355"
           x="75.888153"
           y="-32.692677"
           inkscape:transform-center-x="11.06439"
           inkscape:transform-center-y="23.288045"
           transform="matrix(0.96807026,0.25067902,-0.43790492,0.89902129,0,0)" />
        <rect
           style="fill:#000000;stroke:#000000;stroke-width:0.457232;stroke-opacity:1"
           id="rect3365-9"
           width="4.3252892"
           height="51.972355"
           x="-90.029762"
           y="13.571123"
           inkscape:transform-center-x="-11.064381"
           inkscape:transform-center-y="23.288048"
           transform="matrix(-0.96807026,0.25067902,0.43790492,0.89902129,0,0)" />
      </g>
    </g>
  </g>
</svg>
