<?xml version="1.0" encoding="utf-8"?>
<!-- Generator: Adobe Illustrator 25.0.1, SVG Export Plug-In . SVG Version: 6.00 Build 0)  -->
<svg version="1.0" id="Layer_1" xmlns="http://www.w3.org/2000/svg" xmlns:xlink="http://www.w3.org/1999/xlink" x="0px" y="0px"
	 viewBox="0 0 251 164" style="enable-background:new 0 0 251 164;" xml:space="preserve">
<style type="text/css">
	.st0{clip-path:url(#SVGID_2_);}
	.st1{fill-rule:evenodd;clip-rule:evenodd;fill:#22262A;}
	.st2{fill:#22262A;}
	.st3{fill-rule:evenodd;clip-rule:evenodd;fill:#F4633A;}
	.st4{fill:none;}
</style>
<g>
	<defs>
		<rect id="SVGID_1_" x="35.5" y="64.3" width="180" height="35.5"/>
	</defs>
	<clipPath id="SVGID_2_">
		<use xlink:href="#SVGID_1_"  style="overflow:visible;"/>
	</clipPath>
	<g class="st0">
		<polygon class="st1" points="99.9,73.7 99.9,88.6 102.8,88.6 102.8,82.6 110.4,82.6 110.4,80 102.8,80 102.8,76.3 111.3,76.3 
			111.3,73.7 		"/>
		<polygon class="st1" points="206.8,86 206.8,82.4 214.3,82.4 214.3,79.8 206.8,79.8 206.8,76.2 215.3,76.2 215.3,73.7 203.9,73.7 
			203.9,88.6 215.4,88.6 215.4,86 		"/>
		<path class="st1" d="M124.5,82.2c0,2.6-1.3,4-3.7,4s-3.7-1.5-3.7-4.1v-8.5h-2.9v8.6c0,4.2,2.4,6.6,6.5,6.6s6.6-2.4,6.6-6.7v-8.5
			h-2.9V82.2z"/>
		<polygon class="st1" points="141.8,83.6 134,73.7 134,73.7 131.3,73.7 131.3,88.6 134.2,88.6 134.2,78.4 142.2,88.6 142.3,88.6 
			144.7,88.6 144.7,73.7 141.8,73.7 		"/>
		<path class="st1" d="M154.6,73.7h-5.7v14.9h5.7c4.7,0,8.1-3.2,8.1-7.5S159.3,73.7,154.6,73.7 M154.6,86h-2.8v-9.7h2.8
			c2.6-0.2,4.9,1.8,5.1,4.4c0,0.1,0,0.3,0,0.4C159.6,84,157.6,86,154.6,86"/>
		<rect x="182.4" y="73.7" class="st2" width="2.9" height="14.9"/>
		<path class="st1" d="M195.6,79.8c-2.9-0.7-3.5-1.2-3.5-2.2s0.9-1.6,2.3-1.6c1.5,0,2.9,0.6,4,1.5l0.1,0.1l1.6-2.2l-0.1-0.1
			c-1.6-1.2-3.5-1.9-5.5-1.9c-3.1,0-5.3,1.8-5.3,4.4c0,2.8,1.8,3.7,5.1,4.5c2.8,0.6,3.3,1.2,3.3,2.1s-1,1.7-2.5,1.7
			c-1.7,0-3.4-0.7-4.7-1.9l-0.1-0.1l-1.8,2l0.1,0.1c1.8,1.5,4,2.4,6.4,2.4c3.3,0,5.5-1.8,5.5-4.5C200.5,81.9,199,80.6,195.6,79.8"/>
		<path class="st1" d="M175.2,83c2.1-0.5,3.6-2.4,3.5-4.5c0-3-2.2-4.8-5.7-4.8h-6.8v14.9h2.9V76.3h3.7c1.9,0,3,0.8,3,2.3
			s-1.1,2.3-3,2.3h-0.6v2.6l3.6,5.1l0,0h3.4L175.2,83z"/>
		<path class="st3" d="M63.1,76.1H67v6.6h-3.9V76.1z M56.5,76.1h4v6.6h-4L56.5,76.1z M63.1,85.3H67v6.6h-3.9V85.3z M56.5,85.3h4v6.6
			h-4L56.5,85.3z M53.9,96V74.8c0-0.7,0.6-1.3,1.3-1.3h13.1c0.7,0,1.3,0.6,1.3,1.3V96c-2.5-0.2-5.2-0.2-7.9-0.2
			C59.1,95.8,56.4,95.9,53.9,96z"/>
		<path class="st3" d="M85.4,66.9v6.6h-3.9v-6.6H85.4z M78.9,66.9v6.6h-3.9v-6.6H78.9z M85.4,76.1v6.6h-3.9v-6.6H85.4z M78.9,76.1
			v6.6h-3.9v-6.6H78.9z M85.4,85.3v6.6h-3.9v-6.6H85.4z M78.9,85.3v6.6h-3.9v-6.6H78.9z M72.3,96.2V65.6c0-0.7,0.6-1.3,1.3-1.3h13.1
			c0.7,0,1.3,0.6,1.3,1.3v33.2C82.9,97.4,77.6,96.6,72.3,96.2z"/>
		<path class="st3" d="M44.7,85.3h3.9v6.6h-3.9V85.3z M38.1,85.3h3.9v6.6h-3.9V85.3z M35.5,98.8V84c0-0.7,0.6-1.3,1.3-1.3H50
			c0.7,0,1.3,0.6,1.3,1.3v12.2C45.9,96.6,40.7,97.4,35.5,98.8z"/>
	</g>
</g>
<rect x="29" y="60" class="st4" width="193" height="44"/>
</svg>
