<svg width="122" height="26" viewBox="0 0 122 26" fill="none" xmlns="http://www.w3.org/2000/svg">
<path d="M0.263521 17.6348C0.0661819 17.5103 -0.00114536 17.3133 1.54593e-05 17.0692C0.00814117 15.9621 0.00349791 14.8539 0.00349791 13.7457C0.00349791 12.0936 0.00698035 10.4427 1.54593e-05 8.79063C-0.00114536 8.51387 0.0626995 8.32655 0.315757 8.18031L13.0569 0.5L25.7899 8.1211C25.9953 8.26975 26.1149 8.45345 26.1137 8.74591L26.1126 17.0233C26.1137 17.3109 26.0081 17.5103 25.7864 17.6469L13.195 25.419C13.1544 25.4444 13.1079 25.4601 13.0209 25.5L0.263521 17.6348ZM13.3041 24.3458L25.3151 16.9725V8.95741L19.2266 12.2036V4.9908L13.0569 1.40883L7.45361 4.73475L13.2577 8.24799L13.3041 24.3458ZM6.53192 12.2398L6.5029 5.25805L0.776601 8.69153L6.53192 12.2398Z" fill="black"></path>
<path fill-rule="evenodd" clip-rule="evenodd" d="M35.0469 0.5H40.4894V18.7933H49.9279V23.4451H35.0469V0.5ZM68.2792 23.3865L68.3093 13.7019C68.3188 12.3487 68.1456 11.2065 67.7894 10.2752C67.4704 9.40002 66.9479 8.62291 66.2698 8.01491C65.578 7.41989 64.7694 6.99376 63.9023 6.76723C62.8985 6.50159 61.8664 6.37295 60.8316 6.38449C59.7707 6.36522 58.713 6.5125 57.6935 6.82148C56.8744 7.07038 56.1073 7.47933 55.4321 8.02697C54.8325 8.52333 54.3436 9.15186 53.9997 9.86837C53.6553 10.5943 53.437 11.3791 53.3553 12.1859H58.4583C58.4709 11.8458 58.5387 11.5104 58.6588 11.1944C58.7635 10.9227 58.9228 10.678 59.1258 10.4771C59.3279 10.2815 59.5685 10.1349 59.8304 10.0477C60.1356 9.94913 60.4536 9.90184 60.7729 9.90754C61.1089 9.90232 61.4431 9.9605 61.7597 10.0793C62.0428 10.188 62.2951 10.3705 62.493 10.6097C62.7035 10.8736 62.8578 11.1819 62.9456 11.5139C63.0562 11.9219 63.1088 12.3449 63.1017 12.769V13.087C61.6681 13.1752 60.2398 13.3401 58.8221 13.5813C57.676 13.7623 56.5587 14.1065 55.5007 14.6044C54.587 15.0565 53.8823 15.6336 53.3868 16.3358C52.8912 17.038 52.641 17.9095 52.6363 18.9503V18.9819C52.6247 19.6919 52.7859 20.3932 53.1047 21.0192C53.4173 21.6191 53.8468 22.1429 54.365 22.5562C54.9231 22.9997 55.5536 23.3321 56.2255 23.5371C56.9549 23.7635 57.7121 23.8761 58.4726 23.8717C59.045 23.8759 59.6163 23.8209 60.1785 23.7074C60.3217 23.6788 60.4864 23.6321 60.6568 23.5779C61.2552 23.3887 61.8067 23.0636 62.2723 22.6255L63.7633 21.2286H63.9782V23.3865H68.2792ZM63.2663 16.9762C63.269 17.376 63.232 17.7749 63.1561 18.1667C63.0924 18.5013 62.9894 18.8262 62.8496 19.1341C62.7256 19.405 62.5612 19.6533 62.3627 19.8694C62.1703 20.0778 61.9509 20.2564 61.711 20.3998C61.465 20.5444 61.2 20.6501 60.9247 20.7133C60.6249 20.7815 60.3189 20.8148 60.0123 20.8127C59.6852 20.8171 59.3593 20.7698 59.0456 20.6726C58.7798 20.5913 58.5316 20.4561 58.3151 20.2747C58.1183 20.1075 57.9597 19.8959 57.8511 19.6555C57.7399 19.4073 57.6836 19.1357 57.6864 18.8613V18.8282C57.6742 18.4236 57.7996 18.0276 58.0401 17.7116C58.3267 17.3713 58.6881 17.11 59.0929 16.9507C59.6626 16.7186 60.2562 16.5578 60.8616 16.4715C61.551 16.36 62.3526 16.2716 63.2663 16.2062V16.9762ZM121.996 13.7018L121.966 23.3864H117.665V21.2286H117.449L115.959 22.6255C115.493 23.0632 114.942 23.3883 114.344 23.5778C114.173 23.6321 114.009 23.6788 113.865 23.7073C113.303 23.8208 112.732 23.8759 112.159 23.8717C111.399 23.8761 110.642 23.7634 109.912 23.5371C109.241 23.332 108.611 22.9995 108.053 22.5562C107.535 22.1428 107.106 21.619 106.793 21.0192C106.474 20.3932 106.313 19.6919 106.325 18.9818V18.9502C106.324 17.9095 106.571 17.038 107.066 16.3358C107.562 15.6336 108.267 15.0565 109.18 14.6044C110.239 14.106 111.358 13.7618 112.505 13.5813C113.923 13.3405 115.352 13.1761 116.786 13.0885V12.7705C116.793 12.3463 116.74 11.9233 116.63 11.5153C116.542 11.1834 116.387 10.8751 116.177 10.6112C115.979 10.3719 115.727 10.1894 115.444 10.0808C115.127 9.96197 114.793 9.90378 114.457 9.90901C114.138 9.90331 113.82 9.9506 113.514 10.0491C113.252 10.1363 113.012 10.2829 112.81 10.4786C112.607 10.6795 112.447 10.9241 112.343 11.1959C112.223 11.5119 112.155 11.8473 112.142 12.1874H107.039C107.121 11.3806 107.339 10.5957 107.684 9.86982C108.027 9.15303 108.516 8.5244 109.116 8.02844C109.791 7.4808 110.558 7.07183 111.378 6.82294C112.397 6.51396 113.455 6.36667 114.515 6.38595C115.55 6.37441 116.583 6.50306 117.586 6.76869C118.453 6.99491 119.261 7.42109 119.952 8.01638C120.632 8.62311 121.156 9.39981 121.476 10.2752C121.833 11.2064 122.007 12.3487 121.996 13.7018ZM116.843 18.1666C116.919 17.7749 116.956 17.3759 116.953 16.9762V16.2062C116.039 16.2716 115.238 16.3599 114.549 16.4714C113.943 16.5577 113.349 16.7186 112.78 16.9506C112.375 17.1096 112.013 17.3709 111.727 17.7116C111.486 18.0276 111.361 18.4235 111.373 18.8282V18.8613C111.37 19.1357 111.427 19.4072 111.538 19.6554C111.646 19.8958 111.805 20.1074 112.002 20.2747C112.218 20.4561 112.467 20.5913 112.732 20.6726C113.046 20.7698 113.372 20.8171 113.699 20.8127C114.006 20.8147 114.312 20.7814 114.611 20.7132C114.886 20.6502 115.151 20.5446 115.396 20.3998C115.637 20.2567 115.857 20.0781 116.049 19.8694C116.248 19.6532 116.412 19.4049 116.536 19.1341C116.676 18.8262 116.779 18.5012 116.843 18.1666ZM76.0521 8.99092C76.2154 8.76037 76.9443 8.13954 77.46 7.71309C77.8375 7.4005 78.2621 7.15654 78.7161 6.99131C78.896 6.92442 79.0791 6.86758 79.2647 6.82103C79.7551 6.71557 80.2549 6.66506 80.7556 6.67035C81.6019 6.64664 82.4441 6.80032 83.2334 7.1224C83.8986 7.41042 84.488 7.86266 84.9521 8.44091C85.427 9.05295 85.7692 9.76677 85.9547 10.5324C86.1777 11.4397 86.2851 12.3741 86.274 13.3111V23.4418H81.0378V14.3764C81.0462 13.8521 80.9981 13.3284 80.8945 12.8154C80.815 12.4141 80.6586 12.0342 80.4348 11.6988C80.2336 11.4079 79.9621 11.179 79.6485 11.0357C78.9427 10.7446 78.1586 10.7446 77.4528 11.0357C77.1404 11.1777 76.8709 11.407 76.6737 11.6988C76.4532 12.0362 76.2971 12.4154 76.2139 12.8154C76.103 13.3273 76.0505 13.8514 76.0578 14.3764V23.4448H70.8158V7.17967C70.8158 7.15857 75.8287 7.17967 75.8287 7.17967V8.98791H76.0521V8.99092ZM98.7486 8.10365C99.0513 8.38444 99.3133 8.71038 99.5263 9.07106H99.7439V0.507537L104.757 0.5V23.4436H99.7439V21.5525H99.5234L98.2487 22.7369C97.8228 23.1335 97.3262 23.4372 96.7878 23.6305C96.6217 23.6938 96.4627 23.7465 96.3195 23.7811C95.7894 23.9028 95.2479 23.9613 94.7053 23.9559C94.1285 23.9565 93.5543 23.8723 92.9996 23.7057C91.8524 23.3607 90.8212 22.6816 90.0248 21.7468C89.5897 21.2353 89.2203 20.6658 88.9263 20.0531C88.6025 19.3725 88.3619 18.6515 88.2101 17.9073C88.0367 17.0607 87.9523 16.1966 87.958 15.3306V15.3005C87.9515 14.4319 88.0361 13.5652 88.2101 12.7161C88.3626 11.9746 88.6032 11.2562 88.9263 10.5779C89.2201 9.96222 89.5893 9.38974 90.0248 8.87517C90.8203 7.93766 91.8516 7.25594 92.9996 6.9087C93.5543 6.74265 94.1285 6.65896 94.7053 6.66008C95.2495 6.65902 95.7921 6.72322 96.3224 6.85144C96.7897 6.96113 97.243 7.12855 97.6729 7.35022C98.0614 7.55066 98.423 7.80397 98.7486 8.10365ZM99.5692 16.6988C99.6349 16.2466 99.667 15.7896 99.6652 15.3321V15.299C99.667 14.8414 99.6349 14.3845 99.5692 13.9322C99.5099 13.5385 99.414 13.1519 99.2828 12.7779C99.168 12.4491 99.0135 12.1372 98.823 11.8497C98.6504 11.5903 98.4402 11.361 98.2001 11.1701C97.7227 10.7948 97.1416 10.5947 96.5458 10.6005C96.2383 10.5985 95.9325 10.6495 95.6406 10.7512C95.3683 10.8473 95.1128 10.9899 94.8844 11.1731C94.6471 11.3651 94.4394 11.5943 94.2685 11.8527C94.0769 12.1394 93.9224 12.4516 93.8087 12.7809C93.6769 13.1547 93.5809 13.5414 93.5223 13.9353C93.4554 14.3874 93.4228 14.8444 93.4249 15.302V15.3321C93.4228 15.7897 93.4554 16.2467 93.5223 16.6988C93.5809 17.0927 93.6769 17.4793 93.8087 17.853C93.9224 18.183 94.0769 18.4955 94.2685 18.7829C94.4399 19.0405 94.6476 19.2691 94.8844 19.4609C95.1149 19.6452 95.3728 19.7877 95.6477 19.8828C95.9374 19.9841 96.2407 20.035 96.5458 20.0335C96.8481 20.0354 97.1487 19.9846 97.4352 19.8828C97.7095 19.7848 97.9675 19.6425 98.2001 19.4609C98.4398 19.2702 98.65 19.0414 98.823 18.7829C99.0135 18.4949 99.168 18.1824 99.2828 17.853C99.414 17.4791 99.5099 17.0926 99.5692 16.6988Z" fill="black"></path>
</svg>