<?xml version="1.0" encoding="utf-8"?>
<!-- Generator: Adobe Illustrator 26.0.3, SVG Export Plug-In . SVG Version: 6.00 Build 0)  -->
<svg version="1.0" id="Layer_1" xmlns="http://www.w3.org/2000/svg" xmlns:xlink="http://www.w3.org/1999/xlink" x="0px" y="0px"
	 viewBox="0 0 925.2 680.3" style="enable-background:new 0 0 925.2 680.3;" xml:space="preserve">
<style type="text/css">
	.st0{fill:#003C6F;}
</style>
<path class="st0" d="M417.2,323.7c-2.2,1.4-4.8,2.1-7.5,2h-0.5v-1h0.5c1.8,0,3.6-0.3,5.3-1c1.2-0.5,1.9-1,2.3-1.1l0.3,0.1
	c0.6,0.4,1.2,0.7,1.9,1c1.7,0.7,3.5,1,5.4,1c2.3,0,4.7-0.6,6.7-1.7l0.4-0.2c0.3-0.2,0.4,0.4,0.5-0.2l0.3,0.1c0.6,0.4,1.2,0.7,1.9,1
	c1.7,0.7,3.6,1,5.4,1c1.8,0,3.6-0.3,5.3-1c1.2-0.5,1.9-1,2.3-1.1l0.3,0.1c0.6,0.4,1.2,0.7,1.9,1c1.7,0.7,3.5,1,5.4,1
	c2.3,0,4.7-0.6,6.7-1.7l0.4-0.2c0.3-0.2,0.4,0.4,0.5-0.2l0.3,0.1c0.6,0.4,1.2,0.7,1.9,1c1.7,0.7,3.5,1,5.4,1c1.8,0,3.6-0.3,5.3-1
	c1.2-0.5,2-1,2.4-1.1l0.3,0.1c0.6,0.4,1.2,0.7,1.9,1c1.7,0.7,3.5,1,5.4,1c2.3,0,4.7-0.6,6.7-1.7l0.4-0.2c0.3-0.2,0.4,0.4,0.5-0.2
	l0.3,0.1c0.6,0.4,1.2,0.7,1.9,1c1.7,0.7,3.5,1,5.4,1c1.8,0,3.6-0.3,5.3-1c1.2-0.5,1.9-1,2.3-1.1l0.3,0.1c0.6,0.4,1.2,0.7,1.9,1
	c1.7,0.7,3.6,1,5.4,1h0.5v1.1h-0.5c-2.7,0-5.4-0.7-7.7-2.1c-4.7,2.7-10.4,2.7-15.1,0l-0.3,0.2c-2.2,1.2-4.7,1.9-7.2,1.9
	c-2.7,0.1-5.4-0.7-7.7-2c-2.3,1.4-4.9,2.1-7.5,2.1c-2.7,0-5.3-0.7-7.6-2l-0.3,0.2c-4.7,2.5-10.3,2.5-14.9-0.2
	c-4.7,2.7-10.4,2.7-15.1,0l-0.3,0.2c-2.2,1.2-4.7,1.9-7.2,1.9C422.2,325.7,419.5,325.1,417.2,323.7"/>
<path class="st0" d="M423.8,330.7l-0.3,0.2c-2.3,1.3-4.9,1.9-7.5,1.9v-1.1c2.4,0,4.9-0.6,7-1.8l0.4-0.2c0.3-0.2,0.4,0.3,0.5-0.2
	l0.3,0.1c0.6,0.4,1.3,0.7,1.9,1c1.7,0.7,3.6,1.1,5.5,1c1.8,0,3.7-0.4,5.4-1c1.2-0.5,2-1,2.3-1.1l0.3,0.1c0.6,0.4,1.3,0.7,2,1
	c1.8,0.7,3.6,1,5.5,1c2.4,0,4.8-0.6,6.9-1.8l0.4-0.2c0.3-0.2,0.4,0.4,0.5-0.2l0.3,0.1c0.6,0.4,1.3,0.7,1.9,1c1.7,0.7,3.6,1,5.5,1
	c1.8,0,3.7-0.3,5.4-1c1.3-0.5,2-1,2.4-1.2l0.3,0.1c0.6,0.4,1.3,0.7,1.9,1c1.7,0.7,3.6,1.1,5.5,1.1c2.4,0,4.8-0.6,6.9-1.8l0.4-0.2
	c0.3-0.2,0.4,0.4,0.5-0.2l0.3,0.1c0.6,0.4,1.3,0.7,2,1c1.7,0.7,3.6,1.1,5.5,1.1c1.8,0,3.7-0.4,5.4-1.1c1.3-0.5,2-1,2.3-1.1l0.3,0.1
	c0.6,0.4,1.3,0.7,1.9,1c1.8,0.7,3.6,1,5.5,1h0.5v1H509c-2.8,0-5.5-0.7-7.8-2.1c-2.3,1.4-4.9,2.1-7.6,2.1c-2.7,0-5.5-0.7-7.8-2.1
	l-0.3,0.2c-4.8,2.6-10.5,2.5-15.2-0.2c-4.8,2.8-10.7,2.9-15.5,0l-0.3,0.2c-2.3,1.2-4.8,1.9-7.4,1.9c-2.8,0-5.5-0.7-7.8-2.1
	c-2.3,1.4-4.9,2.1-7.6,2.1c-2.7,0-5.4-0.7-7.8-2.1"/>
<path class="st0" d="M447.4,337.6l-0.3,0.2c-2.3,1.3-4.9,1.9-7.5,1.9c-3.1,0.1-6.1-0.6-8.9-2l0.5-0.9c2.6,1.3,5.5,1.9,8.4,1.9
	c2.4,0,4.9-0.6,7-1.8l0.4-0.2c0.3-0.2,0.4,0.3,0.5-0.2l0.3,0.1c0.6,0.4,1.3,0.7,2,1c1.8,0.7,3.7,1.1,5.6,1.1c1.9,0,3.7-0.4,5.5-1.1
	c1.3-0.5,2-1,2.4-1.2l0.3,0.1c0.6,0.4,1.3,0.7,2,1c1.8,0.7,3.7,1.1,5.6,1.1c2.5,0,4.9-0.6,7-1.8l0.4-0.2c0.3-0.2,0.4,0.3,0.5-0.2
	l0.3,0.1c0.6,0.4,1.3,0.7,2,1c1.8,0.7,3.7,1.1,5.6,1.1c2.9,0,5.7-0.7,8.2-2.1l0.5,0.9c-2.7,1.5-5.7,2.3-8.7,2.2
	c-2.8,0.1-5.6-0.7-8-2.1l-0.3,0.2c-2.3,1.3-4.9,1.9-7.5,1.9c-2.8,0-5.6-0.7-8-2.1c-2.4,1.5-5.1,2.2-7.8,2.2
	C452.6,339.7,449.8,339,447.4,337.6"/>
<polyline class="st0" points="451.9,272.2 473.7,272.2 477.7,312.6 447.8,312.6 451.9,272.2 "/>
<polyline class="st0" points="451.9,270.1 473.7,270.1 475.4,267.7 450.2,267.7 451.9,270.1 "/>
<polyline class="st0" points="471.6,265.6 470.3,262.9 455.3,262.9 453.9,265.6 471.6,265.6 "/>
<polyline class="st0" points="455.3,247 470.3,247 470.3,260.9 455.3,260.9 455.3,247 "/>
<polyline class="st0" points="455.3,245 470.3,245 471.6,242.9 453.9,242.9 455.3,245 "/>
<polyline class="st0" points="459.4,234.9 466.2,234.9 466.2,240.9 459.4,240.9 459.4,234.9 "/>
<polyline class="st0" points="462.8,226.9 458,232.9 467.6,232.9 462.8,226.9 "/>
<polyline class="st0" points="495.4,308.9 505.6,308.9 507,306.5 494.1,306.5 495.4,308.9 "/>
<polyline class="st0" points="419.9,308.9 430.1,308.9 431.5,306.5 418.6,306.5 419.9,308.9 "/>
<path class="st0" d="M440.1,325.2c2.6,0,5.3-0.7,7.5-2.1l0,0h0c2.3,1.5,4.9,2.2,7.6,2.1c2.7,0,5.3-0.7,7.5-2.1h0.1
	c2.3,1.5,4.9,2.2,7.6,2.1c2.7,0,5.3-0.7,7.5-2.1l0,0h0.1c2.3,1.5,4.9,2.2,7.6,2.1c2,0,4.1-0.4,5.9-1.3l1.2-9.3h-59.8l1.2,9.3
	C435.9,324.8,438,325.2,440.1,325.2"/>
<path class="st0" d="M500.8,325.2c2.1,0,4.2-0.5,6.1-1.3l-1.2-13h-10.2l-1.2,12.8C496.3,324.7,498.5,325.2,500.8,325.2"/>
<path class="st0" d="M424.9,325.2c2.2,0,4.4-0.5,6.3-1.5l-1.2-12.8h-10.2l-1.2,12.9C420.6,324.7,422.7,325.2,424.9,325.2"/>
<path class="st0" d="M447.6,239.2l-18.1-12.1l0.6-0.9c6.2,4.1,12.4,8.2,18.6,12.4l-0.6,0.9L447.6,239.2"/>
<path class="st0" d="M496,227.3l-18.1,12.1l-0.6-0.9c6.2-4.1,12.4-8.3,18.6-12.4l0.6,0.9L496,227.3"/>
<path class="st0" d="M447.8,247.6l-46.4,6l-0.1-1c15.6-2,31.3-4,47-6.1l0.1,1L447.8,247.6"/>
<path class="st0" d="M523.8,253.5l-46.4-6l0.1-1c15.7,2,31.3,4.1,47,6.1l-0.1,1L523.8,253.5"/>
<path class="st0" d="M448,255.5l-51.3,41.1l-0.7-0.8l51.8-41.4l0.6,0.8L448,255.5"/>
<path class="st0" d="M528.7,296.2l-51.3-41.1l0.7-0.8l51.8,41.4l-0.6,0.8L528.7,296.2"/>
<path class="st0" d="M389.4,279c0,35.2,31.5,63.8,73.4,63.8s73-28.6,73-63.8s-31.1-63.6-73-63.6S389.4,243.7,389.4,279L389.4,279z
	 M384.7,279c0-38.5,34.2-68.3,78.1-68.3s77.7,29.9,77.7,68.3s-33.8,68.6-77.7,68.6S384.7,317.4,384.7,279"/>
<path class="st0" d="M92.5,416.5c0.9-2.4,1.2-2.8,1.6-2.8s0.7,0.4,1.6,2.6c1.1,2.7,12.4,32.4,16.7,43.3c2.6,6.4,4.7,7.5,6.2,8
	c0.9,0.3,1.9,0.4,2.9,0.4c0.4,0,0.7,0.1,0.7,0.4s-0.7,0.6-1.4,0.6c-1.1,0-6.3,0-11.3-0.2c-1.4-0.1-2.2-0.1-2.2-0.5
	c0-0.3,0.2-0.4,0.5-0.5s0.9-0.8,0.4-1.9l-6.6-17.7c-0.1-0.3-0.4-0.5-0.7-0.4H85.5c-0.3,0-0.6,0.2-0.7,0.5l-4.3,12.8
	c-0.6,1.5-0.9,3.2-1,4.8c0,1.4,1.5,2.1,2.7,2.1h0.7c0.5,0,0.7,0.1,0.7,0.4s-0.4,0.6-1.1,0.6c-1.7,0-4.8-0.2-5.6-0.2
	s-4.8,0.2-8.1,0.2c-0.9,0-1.4-0.2-1.4-0.6s0.3-0.4,0.7-0.4s1.5-0.1,2.1-0.1c3.3-0.4,4.8-3.2,6-6.8L92.5,416.5L92.5,416.5z
	 M100,445.3c0.3,0,0.3-0.2,0.3-0.5l-6.8-19.4c-0.4-1.1-0.7-1.1-1.1,0L86,444.8c-0.2,0.4,0,0.5,0.2,0.5H100 M167.2,448.4v-12.8
	c0-11.2,0-13.2,0.1-15.5c0.2-2.5,0.7-3.7,2.8-4.1c0.8-0.1,1.6-0.2,2.4-0.2c0.3,0,0.6-0.2,0.6-0.4s-0.4-0.6-1.1-0.6
	c-2.2,0-7.4,0.2-7.8,0.2s-4.9-0.2-8.1-0.2c-0.8,0-1.2,0.1-1.2,0.6s0.3,0.4,0.6,0.4c0.8,0,1.6,0.1,2.4,0.2c2.4,0.5,2.9,1.6,3.1,4.1
	s0.1,4.3,0.1,15.5v12.6c0,6.9,0,12.6-0.4,15.6c-0.3,2.1-0.7,3.7-2.1,3.9c-0.7,0.2-1.4,0.3-2.2,0.3c-0.4,0-0.6,0.2-0.6,0.4
	c0,0.4,0.4,0.6,1.2,0.6c2.2,0,6.4-0.2,7-0.2c4.2,0,8.9,0.4,19.3,0.4c3.8,0,4-0.3,4.5-1.9c0.5-2.4,0.9-4.8,1.1-7.2
	c0-0.8-0.1-1.1-0.4-1.1c-0.4,0-0.6,0.4-0.7,0.9c-0.3,1.6-0.9,3.1-1.9,4.3c-1.7,2.1-4.9,2.2-8.7,2.2c-5.6,0-7.5-0.5-8.6-1.7
	C167.5,463.5,167.2,458.9,167.2,448.4 M232.4,435.5v12.6c0,6.9,0,12.6-0.4,15.6c-0.3,2.1-0.6,3.7-2.1,3.9c-0.7,0.2-1.4,0.3-2.2,0.3
	c-0.4,0-0.6,0.2-0.6,0.4c0,0.4,0.4,0.6,1.2,0.6c2.1,0,6.7-0.2,7-0.2c2.1,0,6.9,0.4,17.7,0.4c2.8,0,3.4,0,3.9-1.8
	c0.4-1.5,0.9-6.4,0.9-7s0-1.1-0.4-1.1s-0.5,0.3-0.6,1.1c-0.5,3-1.4,4.4-3.2,5.2s-5,0.8-6.9,0.8c-7,0-8.1-0.9-8.3-5.9
	c-0.1-1.5,0-9.8,0-12.3v-6.3c0-0.3,0.2-0.5,0.4-0.5c0,0,0.1,0,0.1,0c1.2,0,8.3,0.1,10.3,0.4c2.8,0.3,3.4,1.5,3.7,2.5
	c0.2,0.8,0.3,1.6,0.3,2.4c0,0.4,0.1,0.7,0.5,0.7s0.5-0.8,0.5-1.4s0.1-3.2,0.3-4.6c0.2-2.4,0.6-3.6,0.6-4s-0.1-0.6-0.4-0.6
	s-0.6,0.4-1.1,0.9c-0.7,0.7-1.6,0.9-3.4,1s-10.5,0.1-11.4,0.1c-0.4,0-0.4-0.2-0.4-0.7v-19.8c0-0.5,0.1-0.7,0.4-0.7
	c0.8,0,8.6,0.1,9.8,0.2c3.9,0.4,4.6,1.3,5.1,2.5c0.3,0.8,0.4,1.7,0.4,2.6c0,0.6,0.1,0.9,0.6,0.9c0.3,0,0.4-0.4,0.5-0.8
	c0.1-0.9,0.3-4,0.4-4.7c0.2-2,0.6-2.9,0.6-3.4s-0.1-0.7-0.3-0.7s-0.6,0.3-1,0.4c-1,0.2-2,0.3-3.1,0.3c-1.7,0.1-16,0.1-16.5,0.1
	s-4.9-0.2-8.1-0.2c-0.8,0-1.1,0.1-1.1,0.6s0.3,0.4,0.6,0.4c0.8,0,1.6,0.1,2.4,0.2c2.4,0.5,3,1.6,3.1,4.1S232.4,424.4,232.4,435.5
	 M316.6,441.3l-13,20.6c-2.4,3.7-3.8,5.2-6,5.8c-0.9,0.2-1.8,0.3-2.7,0.4c-0.3,0-0.5,0.2-0.6,0.5c0,0,0,0,0,0c0,0.3,0.1,0.5,0.7,0.5
	c2.4,0,5.9-0.2,6.5-0.2c0.6,0,5.2,0.2,6.9,0.2c0.5,0,0.9-0.2,0.9-0.5c0-0.3-0.2-0.5-0.5-0.5c0,0,0,0-0.1,0c-0.4,0-0.9-0.1-1.4-0.1
	c-0.7-0.1-1.1-0.7-1.1-1.4c0.1-1.1,0.4-2.2,0.9-3.2l11.2-19c4.3,7.3,8.5,14.4,12.4,21.4c0.6,1.2,0,1.9-0.4,2
	c-0.3,0.1-0.5,0.3-0.4,0.6c0,0.3,0.4,0.4,2.2,0.5c3.7,0.1,7.1,0.2,11.5,0.2c0.6,0,1-0.2,1-0.6s-0.2-0.4-0.6-0.4
	c-0.9,0-1.7-0.2-2.5-0.4c-1.8-0.5-3.3-1.7-4.2-3.2c-1.5-1.9-13.8-22.8-15.2-25.1l11.6-17.4c2.1-3.1,3.5-5.2,5.5-5.8
	c0.8-0.2,1.6-0.4,2.4-0.4c0.5,0,0.8-0.2,0.8-0.5s-0.4-0.5-1.1-0.5c-2.4,0-5.4,0.2-6,0.2s-3.7-0.2-6.4-0.2c-0.9,0-1.2,0.2-1.2,0.5
	s0.2,0.5,0.6,0.5c0.7,0,1.5,0.1,2.2,0.2c0.6,0.1,1.1,0.7,1.2,1.3c0,0.9-0.3,1.8-0.7,2.6c-0.7,1.5-8.4,13.8-10.6,16.9
	c-3.7-6.2-6.7-11.5-9.7-17.2c-0.4-0.7-0.7-1.5-0.7-2.4c0-0.6,0.3-1.1,0.9-1.2c0.7-0.2,1.3-0.3,2-0.2c0.4,0,0.6-0.1,0.6-0.5
	s-0.2-0.5-1.2-0.5c-2.4,0-6.1,0.2-6.8,0.2s-6.4-0.2-8.4-0.2c-0.9,0-1.2,0.1-1.2,0.5s0.2,0.5,0.6,0.5c1,0.1,2,0.2,3,0.5
	c2.4,0.9,4,2.9,5.6,5.8L316.6,441.3 M395,416.5c0.9-2.4,1.1-2.8,1.6-2.8s0.7,0.4,1.6,2.6c1.1,2.7,12.4,32.4,16.8,43.3
	c2.6,6.4,4.7,7.5,6.2,8c0.9,0.3,1.9,0.4,2.9,0.4c0.4,0,0.7,0.1,0.7,0.4s-0.6,0.6-1.5,0.6c-1.1,0-6.3,0-11.3-0.2
	c-1.4-0.1-2.1-0.1-2.1-0.5c0-0.3,0.2-0.4,0.5-0.5s0.9-0.8,0.4-1.9l-6.7-17.6c-0.1-0.3-0.4-0.5-0.6-0.4H388c-0.3,0-0.6,0.2-0.7,0.5
	l-4.3,12.7c-0.6,1.5-0.9,3.2-1,4.8c0,1.4,1.5,2.1,2.7,2.1h0.7c0.5,0,0.7,0.1,0.7,0.4s-0.4,0.6-1.1,0.6c-1.7,0-4.8-0.2-5.6-0.2
	s-4.7,0.2-8.1,0.2c-0.9,0-1.4-0.2-1.4-0.6s0.3-0.4,0.6-0.4s1.5-0.1,2.1-0.1c3.3-0.4,4.7-3.2,6-6.8L395,416.5L395,416.5z
	 M402.6,445.3c0.4,0,0.4-0.2,0.3-0.5l-6.8-19.4c-0.4-1.1-0.7-1.1-1.1,0l-6.4,19.4c-0.1,0.4,0,0.5,0.2,0.5L402.6,445.3 M465.7,459.3
	l-0.9-34.4c2.3,2.6,10.4,11.6,18.8,20.6c7.6,8.2,18,18.8,18.8,19.5c3.8,3.8,4.7,4.6,5.2,4.6s0.6-0.4,0.6-5.1l0.1-42.1
	c0-4.3,0.3-5.9,2.6-6.4c0.6-0.2,1.1-0.2,1.7-0.2c0.5,0,0.8-0.2,0.8-0.5s-0.5-0.5-1.3-0.5c-3,0-5.3,0.2-6.1,0.2s-4.2-0.2-7.5-0.2
	c-0.9,0-1.4,0.1-1.4,0.5s0.1,0.5,0.6,0.5c1.2,0,2.4,0.1,3.5,0.4c2.2,0.6,2.7,2.1,2.8,6.8l0.8,36.5c-2.3-2.4-10.1-11.1-17.2-18.8
	c-11.1-11.8-21.8-23.4-22.9-24.6c-0.7-0.7-1.9-2.3-2.5-2.3s-0.8,0.8-0.8,3.6l-0.1,41.2c0,6.5-0.4,8.6-2.2,9.1
	c-1,0.3-1.9,0.4-2.9,0.4c-0.4,0-0.6,0.1-0.6,0.4c0,0.5,0.4,0.6,1.1,0.6c3.2,0,6.3-0.2,6.9-0.2s3.5,0.2,7.6,0.2
	c0.9,0,1.3-0.2,1.3-0.6s-0.2-0.4-0.6-0.4c-1.2,0-2.4-0.2-3.6-0.4C466.6,467,465.9,465.2,465.7,459.3 M560.6,435.6
	c0-11.2,0-13.2-0.1-15.5s-0.7-3.6-3.1-4.1c-0.8-0.2-1.6-0.2-2.4-0.2c-0.3,0-0.6-0.2-0.6-0.4s0.3-0.6,1.1-0.6c3.2,0,7.8,0.2,8.1,0.2
	c0.9,0,5.4-0.2,9.7-0.2c7.1,0,20.3-0.6,28.8,8.2c3.6,3.7,7,9.7,7,18.2c0.1,7.5-2.7,14.7-7.8,20.3c-3.1,3.2-9.5,8.2-21.8,8.2
	c-6.2,0-15.2-0.9-16-0.9c-0.4,0-4.9,0.2-7,0.2c-0.8,0-1.2-0.2-1.2-0.6c0-0.2,0.1-0.4,0.6-0.4c0.7,0,1.5-0.1,2.2-0.3
	c1.4-0.3,1.8-1.9,2.1-3.9c0.4-3,0.4-8.7,0.4-15.6L560.6,435.6L560.6,435.6z M566.6,443.3c0,7.6,0.1,14.2,0.1,15.6
	c0.1,1.8,0.2,4.7,0.8,5.4c0.9,1.4,3.7,2.9,12.2,2.9c6.4,0.1,12.5-2.3,17.1-6.7c3.7-3.7,5.8-10.5,5.8-17.1c0.2-6.7-2.3-13.2-6.9-18.1
	c-6.8-7.1-15-8.1-23.5-8.1c-1.6,0-3.1,0.1-4.7,0.5c-0.6,0.2-1,0.8-0.9,1.4c-0.1,2.5-0.1,9.8-0.1,15.3L566.6,443.3 M654.5,435.6
	c0-11.2,0-13.2-0.1-15.5s-0.7-3.6-3.1-4.1c-0.8-0.2-1.6-0.2-2.4-0.2c-0.3,0-0.6-0.2-0.6-0.4s0.4-0.6,1.2-0.6c3.2,0,7.8,0.2,8.1,0.2
	c0.8,0,6.3-0.2,8.5-0.2c4.5,0,9.3,0.4,13.2,3.1c3.1,2.3,4.9,5.9,5,9.8c0,5.3-2.2,10.6-8.7,16.6c5.9,7.5,10.8,13.9,14.9,18.4
	c3.9,4.1,7,4.9,8.8,5.2c0.9,0.1,1.9,0.2,2.8,0.2c0.3,0,0.7,0.2,0.7,0.4c0,0.4-0.4,0.6-1.7,0.6h-5.1c-4,0-5.8-0.4-7.7-1.4
	c-3.1-1.7-5.6-5.2-9.7-10.5c-3-3.9-6.4-8.8-7.8-10.6c-0.2-0.3-0.6-0.5-0.9-0.4l-8.8-0.1c-0.3,0-0.5,0.2-0.5,0.6v1.7
	c0,6.9,0,12.6,0.4,15.6c0.2,2.1,0.7,3.7,2.8,3.9c1.1,0.2,2.1,0.3,3.2,0.3c0.4,0,0.6,0.2,0.6,0.4s-0.4,0.6-1.2,0.6
	c-4,0-8.5-0.2-8.8-0.2c-0.1,0-4.6,0.2-6.8,0.2c-0.8,0-1.2-0.2-1.2-0.6c0-0.2,0.1-0.4,0.6-0.4c0.7,0,1.4-0.1,2.2-0.3
	c1.4-0.3,1.8-1.9,2.1-3.9c0.3-3,0.3-8.7,0.3-15.6L654.5,435.6L654.5,435.6z M660.2,441.8c0,0.4,0.2,0.7,0.5,0.9
	c1.1,0.7,4.4,1.2,7.5,1.2c1.9,0.1,3.8-0.4,5.4-1.4c2.5-1.7,4.4-5.6,4.4-11c0-9-4.7-14.4-12.4-14.4c-1.6,0-3.2,0.1-4.8,0.4
	c-0.4,0.1-0.6,0.5-0.6,0.9V441.8 M743.4,448.2v-12.6c0-11.2,0-13.2,0.2-15.5c0.2-2.5,0.7-3.7,2.7-4.1c0.6-0.1,1.2-0.2,1.8-0.2
	c0.3,0,0.5-0.2,0.6-0.4c0,0,0,0,0,0c0-0.4-0.3-0.6-1.1-0.6c-2.2,0-6.7,0.2-7,0.2s-4.9-0.2-7.3-0.2c-0.8,0-1.2,0.1-1.2,0.6
	s0.3,0.4,0.6,0.4c0.8,0,1.5,0.1,2.2,0.3c1.6,0.4,2.3,1.6,2.4,4s0.1,4.3,0.1,15.5v12.6c0,6.9,0,12.6-0.4,15.6
	c-0.3,2.1-0.6,3.7-2.1,3.9c-0.7,0.2-1.4,0.3-2.2,0.3c-0.4,0-0.6,0.2-0.6,0.4c0,0.4,0.4,0.6,1.2,0.6c2.2,0,6.7-0.2,7-0.2
	s4.9,0.2,8.8,0.2c0.8,0,1.2-0.2,1.2-0.6s-0.1-0.4-0.6-0.4c-1.1,0-2.2-0.1-3.2-0.3c-2.2-0.3-2.6-1.9-2.8-3.9
	C743.4,460.8,743.4,455.1,743.4,448.2 M808.1,416.5c0.9-2.4,1.2-2.8,1.6-2.8s0.7,0.4,1.6,2.6c1.1,2.7,12.4,32.4,16.7,43.3
	c2.6,6.4,4.7,7.5,6.2,8c0.9,0.3,1.9,0.4,2.9,0.4c0.4,0,0.7,0.1,0.7,0.4s-0.7,0.6-1.5,0.6c-1.1,0-6.3,0-11.3-0.2
	c-1.4-0.1-2.2-0.1-2.2-0.5c0-0.3,0.2-0.4,0.5-0.5s0.9-0.8,0.4-1.9l-6.7-17.6c-0.1-0.3-0.3-0.5-0.6-0.4H801c-0.3,0-0.6,0.2-0.7,0.5
	l-4.3,12.8c-0.6,1.5-0.9,3.2-1,4.8c0,1.4,1.5,2.1,2.7,2.1h0.7c0.5,0,0.7,0.1,0.7,0.4s-0.4,0.6-1.1,0.6c-1.7,0-4.8-0.2-5.6-0.2
	s-4.7,0.2-8.1,0.2c-0.9,0-1.4-0.2-1.4-0.6s0.3-0.4,0.7-0.4s1.5-0.1,2.1-0.1c3.3-0.4,4.8-3.2,6-6.8L808.1,416.5L808.1,416.5z
	 M815.6,445.3c0.3,0,0.3-0.2,0.3-0.5l-6.8-19.4c-0.4-1.1-0.7-1.1-1.1,0l-6.4,19.4c-0.1,0.4,0,0.5,0.2,0.5L815.6,445.3 M850.2,454.1
	c4.3,0,7.7,3.4,7.8,7.6c0,4.3-3.4,7.7-7.6,7.8c-4.3,0-7.7-3.4-7.8-7.6c0,0,0-0.1,0-0.1c0-4.2,3.3-7.6,7.5-7.7
	C850.1,454.1,850.2,454.1,850.2,454.1L850.2,454.1z M850.2,455.3c-3.6-0.2-6.7,2.6-6.8,6.2c-0.2,3.6,2.6,6.7,6.2,6.8
	c3.6,0.2,6.7-2.6,6.8-6.2c0-0.1,0-0.2,0-0.3C856.5,458.3,853.8,455.4,850.2,455.3C850.2,455.3,850.2,455.3,850.2,455.3z
	 M848.8,466.3h-1.4v-8.6c0.8-0.1,1.6-0.2,2.4-0.2c0.9-0.1,1.9,0.2,2.7,0.6c0.5,0.4,0.8,1.1,0.8,1.8c0,1-0.7,1.9-1.7,2.1v0.1
	c0.7,0.2,1.3,0.8,1.4,2.1c0.1,0.7,0.3,1.5,0.6,2.1h-1.5c-0.3-0.7-0.5-1.4-0.6-2.2c0-0.9-0.8-1.6-1.7-1.5c0,0-0.1,0-0.1,0h-1
	L848.8,466.3L848.8,466.3z M848.8,461.5h1c1.1,0,2.1-0.4,2.1-1.5c0-0.7-0.5-1.5-2.1-1.5c-0.3,0-0.7,0-1,0.1V461.5"/>
</svg>
