<svg width="95" height="20" viewBox="0 0 95 20" fill="none" xmlns="http://www.w3.org/2000/svg">
<path d="M82.5528 8.08511V20H78.2975V8.08511C78.2975 5.96997 76.5829 4.25532 74.4678 4.25532C72.3526 4.25532 70.638 5.96997 70.638 8.08511V20H66.3827V8.08511C66.3827 3.61983 70.0025 6.66488e-08 74.4678 0C76.8254 -1.78036e-07 78.9473 1.00911 80.4252 2.61898C81.903 1.00911 84.025 3.519e-08 86.3826 0C90.8478 -3.37195e-07 94.4677 3.61983 94.4677 8.08511V20H90.2124V8.08511C90.2124 5.96997 88.4977 4.25532 86.3826 4.25532C84.2675 4.25532 82.5528 5.96997 82.5528 8.08511Z" fill="#2B4072"/>
<path fill-rule="evenodd" clip-rule="evenodd" d="M32.1984 0.141844C26.7148 0.141844 22.2694 4.58724 22.2694 10.0709C22.2694 15.5546 26.7148 20 32.1984 20C37.6821 20 42.1275 15.5546 42.1275 10.0709C42.1275 4.58724 37.6821 0.141844 32.1984 0.141844ZM26.5247 10.0709C26.5247 13.2045 29.0649 15.7447 32.1984 15.7447C35.332 15.7447 37.8722 13.2045 37.8722 10.0709C37.8722 6.93739 35.332 4.39716 32.1984 4.39716C29.0649 4.39716 26.5247 6.93739 26.5247 10.0709Z" fill="#2B4072"/>
<path fill-rule="evenodd" clip-rule="evenodd" d="M49.5033 14.3262V20H45.248V8.43972C45.248 3.85693 48.9631 0.141844 53.5459 0.141844C58.1286 0.141844 61.8437 3.85693 61.8437 8.43972V20H57.5884V14.3262L49.5033 14.3262ZM49.5033 10.0709V8.43972C49.5033 6.20708 51.3132 4.39716 53.5459 4.39716C55.7785 4.39716 57.5884 6.20708 57.5884 8.43972V10.0709H49.5033Z" fill="#2B4072"/>
<path fill-rule="evenodd" clip-rule="evenodd" d="M11.7021 0.141845C15.5798 0.141845 18.7233 3.28538 18.7233 7.16312C18.7233 9.50483 17.577 11.5788 15.8148 12.8544C17.355 14.5022 18.2978 16.7155 18.2978 19.1489V20H14.0425L14.0425 19.1489C14.0425 16.4078 11.8209 14.1855 9.07994 14.1844L4.2553 14.1844L4.2553 19.9291H0L8.64924e-07 3.68794C8.64924e-07 1.72949 1.58764 0.141844 3.54608 0.141844L11.7021 0.141845ZM11.7021 9.92908C13.2297 9.92908 14.468 8.69072 14.468 7.16312C14.468 5.63553 13.2297 4.39716 11.7021 4.39716H4.2553V9.92908H11.7021Z" fill="#2B4072"/>
</svg>
