<?xml version="1.0" encoding="utf-8"?>
<!-- Generator: Adobe Illustrator 26.0.3, SVG Export Plug-In . SVG Version: 6.00 Build 0)  -->
<svg version="1.0" id="Layer_1" xmlns="http://www.w3.org/2000/svg" xmlns:xlink="http://www.w3.org/1999/xlink" x="0px" y="0px"
	 viewBox="0 0 929 656.5" style="enable-background:new 0 0 929 656.5;" xml:space="preserve">
<style type="text/css">
	.st0{fill:#23B2A9;}
	.st1{fill:#71BE45;}
	.st2{fill:#2CB5E5;}
	.st3{fill:#1B4D4A;}
</style>
<path class="st0" d="M202,334.6c-10,8.3-5.9,21.6-1.5,29.3c4.9,9.2-1.5,23.1-10.8,31.1c22.5-12.6,36.8-36.1,37.7-61.9
	C220.4,328.5,209.2,328.5,202,334.6z"/>
<path class="st1" d="M150.1,355.6c-14.2-11.9-26.6-6.2-35.1,4s3.1,13.1,19.4,16.9c12.3,2.6,10.8,19.2,11.8,23.1
	C160.8,375.6,156.5,361,150.1,355.6z"/>
<path class="st2" d="M173,282.2c24.2,18.8,3.1,28.3,3.1,28.3c13.9,11.9,27.7-10.8,42.5,2.1c3.7,3.2,6.6,7.3,8.5,11.9
	c-2.5-30.3-23.3-55.9-52.4-64.7c-11.1,4.9-15.4,11.4-1.5,22.2L173,282.2z"/>
<path class="st3" d="M114.3,347.2c-5.5-15.1,1.5-22,25.4-39.1c30.3-21.6-16.9-13.9,2.3-33.3c6.9-6.8,16.5-12.3,23.6-16.9
	c-40.3-6.7-78.4,20.5-85.1,60.8c-0.7,4-1,8.1-1,12.2v4.6C90.8,346,104.6,352.5,114.3,347.2z M265.5,289.8h30.8
	c12.8,0,23.9,0,30.8,9.7c2.8,4.8,4.3,10.2,4.1,15.7c0,4.1-0.9,8.2-2.6,12c-6.6,13.9-20.6,13.9-31.1,14.3h-12.8v24.8h-19.2V289.8z
	 M284.8,304v23.1h11.6c7.2,0,15.9,0,15.9-11.9c0-11.2-9.6-11.2-15.1-11.2L284.8,304z M341.9,289.8h34.5c8.2,0,18.2,0,25.2,7.7
	c4.1,4.8,6.3,10.9,6.2,17.2c0,15.4-10.8,19.2-15.9,21.1l17.7,30.8h-21.6L373,339.2h-11.7v27.4h-19.4V289.8z M361.2,304.1v20.6h15.5
	c2.8,0,11.5,0,11.5-10.5c0-9.7-7.1-10-11.1-10.2H361.2z M454.8,368.8c-24.2,0-38-18.8-38-41c0-20.6,12.9-40.4,37.7-40.4
	c4.7-0.1,9.4,0.7,13.9,2.2c23.6,8.3,25.1,33.9,25.1,39c0,13.2-6.2,25.3-14.6,32.3c-6.8,5.3-15.3,8-24,7.7L454.8,368.8z M468,309
	c-3.6-3.6-8.5-5.6-13.5-5.5c-11.5,0-18.9,10.2-18.9,24c0,18.5,10.2,25.1,19.2,25.1s18.9-6.3,19.4-22.5c0.3-8.2-1.9-16.2-6.2-20.9
	L468,309z M597.5,368.5c-23.4,0-38.5-16.3-38.5-40.4c0-28.5,19.7-40,38.8-40c21.6,0,38.5,14.3,38.5,39.4c0,23.1-13.4,41-39,41
	L597.5,368.5z M597.8,296.1c-19.4,0-27.7,14.9-27.7,32.3c0,16,8,32,27.7,32c20.6,0,27.7-16.9,27.4-33
	C625.3,309.1,615.6,296.1,597.8,296.1L597.8,296.1z M744.2,289.8v77H734v-77H744.2z M787.4,331.4c-11.1-2.3-27.4-6.2-27.4-21.9
	c0-5.7,2.5-11.1,6.9-14.8c6.8-5.9,15.4-6.5,20.5-6.5s13.9,0.5,20.6,5.5c7.7,5.5,9.2,13.4,10,18l-10.3,0.8c0.1-5-2.2-9.7-6.2-12.8
	c-4.1-2.7-9-4-13.9-3.7c-9.2,0-17.2,3.9-17.2,12.3s8.5,10.3,15.1,11.9l8.5,2.2c4.2,0.8,8.3,1.9,12.3,3.4
	c11.4,4.6,13.2,13.9,13.2,19.1c0.1,7.4-3.6,14.4-9.9,18.5c-7.4,5.1-16.3,5.4-20.9,5.4c-6.9,0-30.8-1.1-32.3-26.2l10.8-1.5
	c-0.1,5.6,2.1,10.9,6.2,14.8c4.3,3.9,10.2,5.2,15.9,5.2c10.8,0,18.9-5.4,18.9-15.4c0-8.9-7.1-11.4-14.6-12.9L787.4,331.4z
	 M647.4,328.2c0-24.2,17.9-40,40-40c11.8-0.3,23,5,30.2,14.3l-7.7,4.9c-5.4-6.8-13.6-10.8-22.3-10.8c-16.9,0-30,12.9-30,31.6
	c0,18.5,12.9,31.6,30,31.6c7.8,0,15.3-3,20.9-8.3v-16.9h-22.2v-8.2h31.9v29.2c-7.8,8.7-19.1,13.5-30.8,13.2c-22,0-40-16.2-40-40.3
	L647.4,328.2z M515.3,357.4h40v9.2h-50.2v-77h10.2L515.3,357.4z M839.9,307.2c-5.3,0-9.5-4.3-9.5-9.6c0-5.3,4.3-9.5,9.6-9.5
	c5.3,0,9.5,4.3,9.5,9.6c0,0.1,0,0.2,0,0.3C849.3,303.2,845.1,307.2,839.9,307.2z M839.9,289.8c-4.3,0.1-7.8,3.7-7.7,8
	c0.1,4.3,3.7,7.8,8,7.7s7.8-3.7,7.7-8c-0.1-4.2-3.5-7.6-7.7-7.7H839.9z"/>
<path class="st3" d="M836.4,292.4h3.4c1.1-0.2,2.2,0.1,3.1,0.6c1.5,0.9,2,2.8,1.1,4.3c-0.4,0.7-1.1,1.2-1.9,1.4l2.3,4.3h-2.2l-2.2-4
	h-1.8v4.2h-2L836.4,292.4z M838.4,294v3.1h2.1c0.9,0,1.5-0.7,1.5-1.5c0-0.5-0.3-1-0.8-1.2c-0.6-0.3-1.3-0.4-2-0.3L838.4,294z"/>
</svg>
