<?xml version="1.0" encoding="utf-8"?>
<!-- Generator: Adobe Illustrator 26.0.3, SVG Export Plug-In . SVG Version: 6.00 Build 0)  -->
<svg version="1.0" id="katman_1" xmlns="http://www.w3.org/2000/svg" xmlns:xlink="http://www.w3.org/1999/xlink" x="0px" y="0px"
	 viewBox="0 0 800 600" style="enable-background:new 0 0 800 600;" xml:space="preserve">
<style type="text/css">
	.st0{fill:#231F20;}
	.st1{fill:#ED1C24;}
</style>
<g transform="matrix(1.33333 0 0 -1.33333 0 816)">
	<path class="st0" d="M84.5,338.9v-44.4h39.6v5.7H91v14.4h21.4v5.8H91v12.6h32v5.8L84.5,338.9z"/>
	<g>
		<g>
			<path class="st0" d="M260.2,312.2c0-7.9-5.2-13.2-13-13.2c-7.6,0-12.3,5.3-12.3,13.2v26.6h-6.4v-26.9c0-12.1,8.7-18.7,18.7-18.7
				c14.7,0,19.4,10,19.4,18.7v26.9h-6.4L260.2,312.2z"/>
			<path class="st0" d="M302.2,294.5h6.4v44.4h-6.4V294.5z"/>
			<path class="st0" d="M384.6,338.9v-34.7l-31.5,34.7h-6.3v-44.3h6.4v35l31.5-35h6.2v44.3H384.6z"/>
			<path class="st0" d="M429.6,294.5h6.4v44.4h-6.4V294.5z"/>
			<path class="st0" d="M508.5,338.9L493.8,323l-14.3,15.9h-8.3l17.8-20.4l-22.3-24h8.1l18.3,19.7l17.4-19.7h8.8l-21.6,24.1
				l18.5,20.3H508.5z"/>
			<path class="st0" d="M189.5,316.7c0-6.3-2-10.4-5.7-13.8l-3.4,4l-7.4,0l6-6.9c-1.5-0.7-4.1-1.3-6.2-1.3c-9.5-0.1-17,7.6-17,18
				l0,0.2c0,10.6,7.1,18.1,16.6,18.2c9.6,0.1,17.2-7.5,17.2-18.1V316.7z M172.5,340.7c-13.2-0.1-23.4-10.1-23.4-24.1v-0.2
				c0-13.9,10.4-23.6,23.6-23.5c3.4,0,7.4,0.9,10.4,2.4l3.6-4.2l7.4,0l-6.3,7.2c5.2,4,8.4,10.5,8.4,18.5v0.2
				C196.1,330.9,185.7,340.8,172.5,340.7"/>
			<path class="st1" d="M305.4,501.3l-18.1-6.3v-94.8l-12,4.2v86.4l-36.1-12.6v-61.1l-12,4.2V474l-12.1-4.2v-57.1l36.1-12.6v69.6
				l12.1,4.2v-78l36.1-12.6v103.2l6,2.1l6-2.1V383.3l36.2,12.6v78l12-4.2v-69.6l36.1,12.6v57.1l-12,4.2v-52.7l-12-4.2v61.1
				l-36.1,12.6v-86.4l-12.1-4.2V495L305.4,501.3z"/>
			<path class="st1" d="M417.1,428v3.1h2.4c1.2,0,1.9-0.6,1.9-1.6c0-0.9-0.7-1.6-1.9-1.6L417.1,428z M414.3,422.2h2.7v3.6h1.7
				l2.4-3.6h3.3l-2.9,4c1.5,0.5,2.5,1.7,2.5,3.5c0,2.6-1.9,3.8-4.6,3.8h-5.3V422.2z M418.8,417.9c-5.5,0-9.6,4.4-9.6,9.7v0.1
				c0,5.3,4.2,9.7,9.6,9.7c5.5,0,9.6-4.4,9.6-9.7v-0.1C428.4,422.3,424.2,417.9,418.8,417.9 M418.8,416.7c6.1,0,10.9,5,10.9,10.9
				v0.1c0,5.9-4.7,10.9-10.9,10.9c-6.1,0-10.8-5-10.8-10.9v-0.1C408,421.6,412.7,416.7,418.8,416.7"/>
		</g>
	</g>
</g>
</svg>
