<svg height="47.6" viewBox="0 0 180.3 47.6" width="180.3" xmlns="http://www.w3.org/2000/svg"><path d="M62 34.9c-.1 4.1-2.2 7.9-5.7 10.1-3.1 1.8-6.5 2.7-10.1 2.5-3.1.1-6.1-.5-9-1.6-.9-.4-1-.7-1-2.3 0-3 .3-5.5.3-6.4.1-.7.2-1 .5-1s.5.2.5.7c0 .8 0 1.5.2 2.2 1 4.5 5.4 6.2 9.9 6.2 6.4 0 9.5-4.2 9.5-8.1 0-4.2-1.9-6.6-7.7-10.9l-3-2.2c-7.1-5.3-8.7-9-8.7-13.2.2-6.5 5.5-10.9 14-10.9 2.1 0 4.2.2 6.2.6.8.2 1.6.3 2.3.3.5 0 .7.1.7.4s-.3 2.3-.3 6.4c0 1-.1 1.4-.5 1.4-.3 0-.5-.3-.5-.8-.1-1-.4-2.1-.9-3-.4-.7-2.2-3.2-8.3-3.2-4.6 0-8.2 2.6-8.2 7 0 3.5 1.9 5.5 8.2 10.2l1.9 1.3c7.8 5.7 9.7 9.5 9.7 14.3zm22.3-14.2l-1.9-1.3c-6.3-4.7-8.1-6.7-8.1-10.2 0-4.4 3.6-7 8.2-7 6.2 0 8 2.5 8.4 3.2.4.9.7 2 .9 3 .1.5.2.8.5.8s.5-.4.5-1.4c0-4.1.3-6.1.3-6.4S93 1 92.4 1c-.8 0-1.6-.1-2.3-.3-2-.4-4.1-.6-6.2-.6C75.4.1 70.1 4.5 70.1 11c0 4.2 1.6 7.9 8.7 13.2l3 2.2c5.8 4.3 7.7 6.7 7.7 10.9 0 3.9-3.1 8.1-9.5 8.1-4.5 0-8.9-1.7-9.9-6.2-.2-.7-.2-1.5-.2-2.2 0-.5-.1-.7-.5-.7-.3 0-.5.3-.5 1-.1 1-.3 3.4-.3 6.4 0 1.6.1 1.9 1 2.3 2.8 1.2 5.9 1.7 9 1.6 3.5.1 7-.8 10.1-2.5 3.5-2.2 5.6-6 5.7-10.1-.4-4.9-2.2-8.7-10.1-14.3zM29.2 38.6c-.3 0-.5.2-.6.9-.5 2.5-1.3 3.7-3 4.4-1.7.7-4.7.7-6.4.7-6.5 0-7.6-.8-7.8-5-.1-1.3 0-8.3 0-10.4v-5.3c0-.2.1-.4.5-.4 1.1 0 7.8.1 9.5.3 2.6.2 3.2 1.3 3.5 2.1.2.6.3 1.3.3 2 0 .3 0 .5.5.5s.5-.7.5-1.1c0-.4.1-2.7.3-3.9.2-2 .5-3 .5-3.4 0-.4-.1-.5-.3-.5s-.4.2-1 .8c-.7.5-1.7.7-3.3.8-1.5.1-9.8.1-10.6.1-.3 0-.4-.2-.4-.6V3.8c0-.4.1-.6.4-.6.7 0 8 .1 9.2.2 3.6.4 4.3 1.1 4.8 2.1.3.7.4 1.4.4 2.2 0 .5.3.8.5.8s.4-.4.5-.7c.1-.7.3-3.4.3-4 .2-1.7.5-2.6.5-2.9 0-.3.1-.5-.3-.5-.3 0-.6.2-.9.3-.9.2-1.9.3-2.9.3H8.6C8.3 1 4.1.9 1.1.9.3.9 0 1.1 0 1.3s.3.4.5.4c.8 0 1.5.1 2.3.2 2.2.4 2.7 1.5 2.9 3.4.1 2 .1 3.7.1 13.2v10.7c0 5.8 0 10.6-.3 13.2-.3 1.8-.6 3.1-1.9 3.3-.7.1-1.3.2-2 .2-.4 0-.5.2-.5.4 0 .4.3.5 1.1.5 2 0 6.2-.2 6.6-.2 1.9 0 6.4.4 16.5.4 2.6 0 3.1 0 3.6-1.6.4-1.9.7-3.9.9-5.9-.2-.4-.3-.9-.6-.9zm99.5 0c-.3 0-.5.2-.6.9-.5 2.5-1.3 3.7-3 4.4-1.7.7-4.7.7-6.4.7-6.5 0-7.5-.8-7.8-5-.1-1.3 0-8.3 0-10.4v-5.3c0-.2.1-.4.5-.4 1.1 0 7.8.1 9.6.3 2.6.2 3.2 1.3 3.5 2.1.2.6.3 1.3.3 2 0 .3 0 .5.5.5s.5-.7.5-1.1c0-.4.1-2.7.3-3.9.2-2 .5-3 .5-3.4 0-.4-.1-.5-.3-.5-.3 0-.5.3-1 .8-.6.6-1.6.7-3.1.9-1.5.1-9.8.1-10.6.1-.3 0-.4-.2-.4-.6V3.8c0-.4.1-.6.4-.6.7 0 8 .1 9.2.2 3.6.4 4.3 1.1 4.7 2.1.3.7.4 1.4.4 2.2 0 .5.3.8.5.8.3 0 .4-.4.5-.7.1-.7.3-3.4.3-4 .2-1.7.5-2.6.5-2.9 0-.3.1-.5-.3-.5-.3 0-.6.2-.9.3-.9.2-1.9.3-2.9.3h-15.5c-.4 0-4.5-.2-7.5-.2-.7 0-1.1.2-1.1.5s.3.4.5.4c.8 0 1.5.1 2.3.2 2.2.5 2.8 1.5 2.9 3.5.1 1.9.1 3.6.1 13.1v10.7c0 5.8 0 10.6-.3 13.2-.3 1.8-.6 3.1-1.9 3.3-.7.1-1.3.2-2 .2-.4 0-.5.2-.5.4 0 .4.3.5 1.1.5 2 0 6.2-.2 6.5-.2 1.9 0 6.4.4 16.5.4 2.6 0 3.1 0 3.6-1.6.4-1.9.7-3.9.9-5.9-.1-.4-.2-.9-.5-.9zm51 7.3c-.8 0-1.6-.2-2.3-.4-1.6-.4-3-1.4-3.9-2.7-1.4-1.6-12.8-19.3-14.1-21.2l10.8-14.7c1.9-2.6 3.2-4.4 5.1-4.9.7-.2 1.5-.3 2.2-.3.5 0 .7-.2.7-.4s-.3-.4-1.1-.4c-2.3 0-5 .2-5.6.2-.6 0-3.4-.2-5.9-.2-.8 0-1.1.1-1.1.4 0 .3.2.4.6.4.7 0 1.3 0 2 .2s1.1.7 1.1 1.1c0 .8-.3 1.5-.7 2.2-.7 1.3-7.8 11.7-9.8 14.3-3.5-5.2-6.2-9.7-9-14.5-.4-.6-.6-1.3-.7-2 0-.5.3-.9.8-1 .6-.1 1.2-.2 1.8-.2.4 0 .6-.1.6-.4s-.2-.4-1.1-.4c-2.3 0-5.8.2-6.3.2S137.9 1 136 1c-.9 0-1.1.2-1.1.4s.2.4.6.4c.9 0 1.9.2 2.8.4 2.3.7 3.7 2.5 5.2 4.8l10.8 16.3-12.1 17.4c-2.2 3.1-3.5 4.4-5.5 4.9-.8.2-1.7.3-2.5.3-.3 0-.5.2-.5.4s.1.4.7.4c2.2 0 5.5-.2 6.1-.2.6 0 4.8.2 6.4.2.5 0 .8-.2.8-.4s-.2-.4-.5-.4c-.4 0-.8-.1-1.3-.1-.6-.1-1-.6-1.1-1.1.1-1 .4-1.9.9-2.7l10.4-16.1c4 6.1 7.9 12.1 11.5 18.1l1.3 2.6c3.4.1 6.6.1 10.7.1.6 0 .9-.2.9-.5s-.4-.3-.8-.3z"></path></svg>
