<?xml version="1.0" encoding="utf-8"?>
<!-- Generator: Adobe Illustrator 26.0.3, SVG Export Plug-In . SVG Version: 6.00 Build 0)  -->
<svg version="1.0" id="Layer_1" xmlns="http://www.w3.org/2000/svg" xmlns:xlink="http://www.w3.org/1999/xlink" x="0px" y="0px"
	 viewBox="0 0 1422.2 1017.2" style="enable-background:new 0 0 1422.2 1017.2;" xml:space="preserve">
<style type="text/css">
	.st0{fill:#1F366C;}
	.st1{fill:#FCFDFD;}
	.st2{fill:#FBFCFC;}
	.st3{fill:#FDFDFD;}
	.st4{fill:#FCFCFD;}
	.st5{fill:#FDFEFE;}
	.st6{fill:#F9FBFB;}
	.st7{fill:#F8FAFB;}
	.st8{fill:#FAFBFB;}
	.st9{fill:#20376A;}
	.st10{fill:#23396B;}
	.st11{fill:#22386B;}
	.st12{fill:#21376B;}
</style>
<path class="st0" d="M710.9,891.6c-127,0-253.9,0-380.9,0c-1.6,0-1.9-0.3-1.9-1.9c0-254,0-508.1,0-762.1c0-1.6,0.4-1.9,1.9-1.9
	c254.1,0,508.1,0,762.1,0c1.6,0,1.9,0.4,1.9,1.9c0,254.1,0,508.1,0,762.1c0,1.6-0.3,1.9-1.9,1.9C965.1,891.6,838,891.6,710.9,891.6z
	 M605.9,592.5c0.1-1.3-0.7-1.4-1.7-1.4c-5,0-10,0.1-14.9,0c-1.9-0.1-2.4,0.5-2.4,2.4c0,43.3,0,86.7,0,130c0,10.5,0,21,0,31.5
	c0,1-0.1,1.8,1.5,1.8c5.8-0.1,11.6-0.1,17.4-0.1c0.8-0.2,0.9-0.8,0.7-1.5c-0.3-1.3-0.4-2.7-0.3-4c0-52,0-104,0-156
	C606.3,594.3,606.5,593.3,605.9,592.5L605.9,592.5z M760.4,673.8c0,26.9,0,53.8,0,80.7c0,1.9,0.5,2.4,2.4,2.4
	c11.3-0.1,22.5,0,33.8,0c3.6,0,7.3-0.3,10.9-0.9c9.1-1.5,13.6-5.7,15.7-14.8c0.5-2.2,0.9-4.5,1.1-6.8c0.9-16.9,0.9-33.9,0.1-50.8
	c-0.3-6.5-4.1-11.2-10-12.8c-1.4-0.4-2.9-0.4-4.3-0.8c-0.6-0.2-1.8,0.4-1.7-0.9c0.1-1,1.1-0.5,1.7-0.6c8.4-0.9,12.2-4.4,13.8-12.7
	c0.3-1.5,0.5-3,0.6-4.6c0.8-10.6,0.5-21.3,0.3-31.9c0-5-0.5-9.9-1.6-14.8c-1.6-6.5-5.4-10.7-12-12.2c-2.8-0.7-5.6-1.1-8.5-1.1
	c-13.3,0-26.6,0-39.9-0.1c-1.8,0-2.3,0.4-2.3,2.3C760.4,620.2,760.5,647,760.4,673.8z M413.9,591.1L413.9,591.1c-3.9,0-7.7,0-11.6,0
	c-1.3,0-1.8,0.4-2,1.7c-1.3,9.6-2.6,19.1-4,28.7c-2,14.3-4,28.5-6,42.8c-2,14.6-4.1,29.2-6.1,43.8c-2.2,15.7-4.4,31.4-6.6,47.1
	c-0.2,1.4,0.2,1.6,1.4,1.6c5.8,0,11.6-0.1,17.4,0c1.7,0,2.1-0.6,2.2-2.1c1-8.9,2.2-17.8,3.2-26.7c0.2-1.4,0.5-1.9,2-1.9
	c7.2,0.1,14.4,0.1,21.6,0c1.3,0,1.6,0.3,1.8,1.6c1.2,8.9,2.5,17.9,3.7,26.8c0.2,1.4,0.3,2.3,2.2,2.2c5.9-0.2,11.8-0.1,17.6,0
	c1.4,0,1.8-0.4,1.6-1.8c-0.6-3.7-1.2-7.5-1.7-11.2c-3.7-24-7.4-48-11.2-71.9c-4.1-26.5-8.2-52.9-12.2-79.4c-0.2-1.2-0.6-1.5-1.7-1.5
	C421.7,591.1,417.8,591.1,413.9,591.1L413.9,591.1z M872,746.8c0.7,2.9,1.6,5.8,2.7,8.6c0.3,0.8,0.7,1.4,1.7,1.4
	c5.8,0,11.6,0,17.4,0c1.1,0,1.3-0.3,0.9-1.3c-2.4-5.6-2.8-11.5-2.8-17.5c0-27.2,0-54.3,0-81.5c0-2.6-0.1-5.2-0.4-7.8
	c-0.9-9.3-6.5-16-15.5-18.5c-6.4-1.7-13.1-2-19.5-0.6c-10.8,2.2-16.5,7.8-18.4,18.7c-1.3,7.3-0.4,14.7-0.6,22c0,1.3,1,1,1.7,1
	c5.3,0,10.6,0,16,0c1.5,0,1.7-0.6,1.7-1.8c-0.1-5.9-0.1-11.8,0-17.6c0-3,1-5.6,3.9-6.9c6.8-3,12.5,0.7,12.5,8
	c0,4.6-0.4,9.3,0.1,13.8c0.7,6-1.8,9.7-6.6,12.5c-0.5,0.3-0.9,0.6-1.4,0.9c-6,3.7-12,7.5-18,11.2c-7.6,4.7-11.4,11.3-11.2,20.4
	s0,18.3,0,27.5c-0.1,3.9,0.8,7.8,2.6,11.3c5,8.7,19.8,10.2,27.7,2.9C868.4,751.5,870.3,749.2,872,746.8L872,746.8z M575.7,756.8
	c-3.2-6.9-3.4-14.1-3.4-21.3c0-26.8,0-53.6,0-80.5c0-2.3-0.1-4.6-0.4-6.9c-1.2-7.7-4.9-13.6-12.3-16.7c-7.2-2.9-14.7-3.2-22.3-1.8
	c-11.1,2-17,8-18.8,19.3c-1.1,7.1-0.4,14.2-0.6,21.4c0,1.2,0.8,1.1,1.6,1.1c5.3,0,10.6-0.1,16,0c1.5,0,1.7-0.6,1.7-1.8
	c0-5.7,0-11.3,0-17c0-4.4,1.6-7,5-7.8c6.4-1.4,11.6,0.4,11.6,8.6c-0.1,6.1-0.1,12.2,0,18.3c0,1.3-0.4,2.5-1.3,3.4
	c-2.3,2.4-4.9,4.4-7.7,6.1c-6.5,4.1-13.3,7.9-19.6,12.5c-4.9,3.3-8,8.7-8.2,14.6c-0.6,10.6-0.3,21.3-0.2,31.9c0,4.5,1,8.9,4,12.6
	c5.4,6.5,17.9,7.5,25.1,2c2.8-2.1,4.6-5,6.9-7.9c0.7,3,1.6,5.9,2.8,8.8c0.3,0.6,0.5,1.2,1.4,1.2
	C562.9,756.7,569.2,756.7,575.7,756.8L575.7,756.8z M707.9,639.3c0-2.4-0.1-4.2,0-6c0.1-1.5-0.3-2-1.9-2c-4.9,0.1-9.8,0.1-14.7,0
	c-1.7,0-1.9,0.6-1.9,2c0.1,7.9,0,15.8,0,23.7c0,32.5,0,65,0,97.5c0,1.9,0.5,2.3,2.3,2.3c4.6-0.1,9.2-0.2,13.9,0
	c2,0.1,2.6-0.3,2.6-2.5c-0.1-31.1-0.1-62.2,0-93.3c0-2,0.1-3.9,0.3-5.9c0.6-5.2,3.1-8.1,7.7-8.9c5.4-0.9,9.1,1.5,9.9,6.4
	c0.2,1.5,0.3,2.9,0.3,4.4c0,32.4,0,64.8,0,97.3c0,1.8,0.4,2.5,2.4,2.5c4.9-0.2,9.8-0.1,14.7,0c1.8,0,2.2-0.5,2.2-2.2
	c0-33.5,0-66.9,0-100.4c0.1-2.9-0.1-5.7-0.5-8.6c-1-6.3-3.2-12.1-9.5-14.9c-6.7-3.2-14.7-2.5-20.8,1.8
	C712.1,634.2,710.2,636.5,707.9,639.3z M676.4,693.2c0-6.3,0.1-12.6,0-18.9c-0.1-7.8,0.4-15.7-0.4-23.5c-1-9.2-5-16.3-14.1-19.5
	c-7.1-2.5-14.8-2.9-22.1-1.1c-9.1,1.9-14.9,7.5-17.7,16.3c-1.3,4.3-2,8.7-2,13.2c0,22.1,0,44.1,0,66.1c-0.1,4.2,0.2,8.4,0.9,12.5
	c1.7,9.8,6.6,16.9,16.6,19.4c7.2,1.9,14.8,1.7,22-0.4c7.8-2.3,12.9-7.5,15.2-15.4c1.1-3.7,1.6-7.5,1.6-11.4
	C676.4,718.1,676.4,705.6,676.4,693.2z M962.1,631.5c-5.6,0-11.1,0.1-16.6-0.1c-2.2-0.1-2.9,0.6-3.1,2.8
	c-1.8,15.2-3.6,30.4-5.6,45.6c-2.2,16.4-4,32.9-4,49.5c0,0.7,0.4,1.8-1,1.8s-1.1-1-1.2-1.7c-0.9-8.9-1.6-17.8-2.6-26.7
	c-1.5-13.7-3-27.4-4.5-41.1c-1.1-9.6-2.2-19.2-3.2-28.8c-0.1-1.3-0.6-1.6-1.8-1.6c-5.2,0.1-10.4,0.1-15.5,0c-1.8,0-1.9,0.6-1.7,2.1
	c0.7,3.9,1.2,7.9,1.8,11.8c2.3,15.1,4.7,30.3,7,45.4c2.7,18,5.5,35.9,8.2,53.9c0.9,5.9,2.3,11.8,1.9,17.9c-0.3,5.2-3.2,8.3-8.4,9.2
	c-1.6,0.3-3.3,0.4-5,0.3c-1.2-0.1-1.6,0.2-1.6,1.5c0.1,5,0.1,10.1,0,15.1c0,1.1,0.2,1.5,1.5,1.7c3.8,0.3,7.6,0.4,11.3,0.3
	c10.9-0.4,17.8-6.2,19.8-16.9c2.2-12,4.2-24.1,6.3-36.1c3.4-20.1,6.9-40.2,10.3-60.3C956.9,661.9,959.5,646.8,962.1,631.5z
	 M478.9,756.8c3.3,0,6.6,0,9.9,0c1,0,1.4-0.2,1.6-1.3c0.9-6.2,1.9-12.4,2.9-18.6c2.7-17.6,5.4-35.2,8.2-52.8c2.6-17,5.2-34,7.9-51
	c0.2-1.4,0-1.8-1.4-1.8c-5.2,0.1-10.5,0.1-15.8,0c-1.3,0-1.7,0.4-1.9,1.8c-1.8,15.3-3.6,30.7-5.5,46c-2.2,17.1-4.2,34.1-4.3,51.4
	c0,0.7,0.5,1.8-0.9,1.9c-1.6,0.1-1.1-1.1-1.1-1.9c-0.4-15.6-1.7-31.1-3.7-46.6c-2.1-16.9-4.2-33.8-6.2-50.8c-0.2-1.5-0.7-1.7-2-1.7
	c-5.2,0-10.5,0.1-15.8,0c-1.5,0-1.6,0.5-1.4,1.8c0.8,5,1.5,10,2.2,14.9c1.9,12.8,3.7,25.6,5.6,38.4c2,13.8,4.1,27.7,6.2,41.5
	c1.3,9.1,2.7,18.1,4,27.2c0.2,1.3,0.6,1.9,2.1,1.8C472.6,756.7,475.8,756.8,478.9,756.8z M534.7,802.8h0.5
	c-0.2,10.3-0.5,20.7-0.8,31c-0.1,2.8-0.1,2.8,2.6,2.8c1.4,0,2.8-0.1,4.2,0c1.1,0.1,1.6-0.2,1.6-1.5c0-15.6,0-31.2,0-46.8
	c0-1.2-0.4-1.4-1.5-1.4c-2.2,0.1-4.5,0.1-6.7,0c-1.4-0.1-1.9,0.4-2.4,1.7c-3.8,10.4-7.8,20.8-11.7,31.2c-0.4,1.4-1,2.8-1.8,4.1
	c-0.2-0.6-0.5-1-0.6-1.5c-4.2-11.2-8.4-22.5-12.6-33.7c-0.5-1.3-1-1.8-2.4-1.7c-2.1,0.1-4.2,0.1-6.3,0c-1.6-0.1-2,0.4-2,2
	c0.1,13.8,0,27.6,0.1,41.4c0,2.1-0.9,4.9,0.4,6c1.3,1.1,4,0.2,6.1,0.4c1.5,0.1,1.9-0.4,1.9-1.9c-0.2-6.8-0.3-13.6-0.4-20.4
	c-0.1-3.6,0-7.2,0-10.8c0.5,0.4,0.8,1,1,1.6c3.4,9.2,6.9,18.3,10.3,27.4c1.5,4,1.5,3.9,5.8,4c1.3,0.2,2.6-0.7,2.8-2
	c2.7-7.3,5.5-14.7,8.2-22C532.2,809.4,533.5,806.1,534.7,802.8L534.7,802.8z M577.7,824.1c-0.4-1-0.6-1.4-0.8-1.8
	c-4.1-11-8.3-22.1-12.3-33.1c-0.6-1.7-1.4-2.4-3.3-2.2c-2,0.1-4.1,0.1-6.1,0c-1.1,0-1.5,0.2-1.5,1.4c0,15.6,0,31.2,0,46.8
	c0,1.1,0.3,1.5,1.4,1.5c1.7-0.1,3.5-0.1,5.2,0c1.4,0.1,1.7-0.5,1.7-1.8c-0.2-7.9-0.3-15.8-0.4-23.7c0-2.5,0-5.1,0-7.7
	c0.7,0.4,0.7,1,0.9,1.5c3.4,9.1,6.8,18.2,10.2,27.2c1.7,4.7,1.7,4.6,6.7,4.5c0.9,0.1,1.8-0.5,2-1.4c2.7-7.2,5.4-14.4,8.1-21.6
	c1.4-3.8,2.8-7.5,4.3-11.4c0,3.5,0,6.7,0,9.9c-0.1,7.7-0.3,15.4-0.5,23.1c0,0.9,0.1,1.4,1.2,1.4c2-0.1,3.9-0.1,5.9,0
	c1,0,1.3-0.4,1.3-1.3c0-2.2,0-4.5,0-6.7c0-13.2,0-26.5,0-39.7c0-1.6-0.4-2-2-1.9c-2.1,0.1-4.2,0.1-6.3,0c-1-0.2-2,0.5-2.3,1.5
	c-2.2,6-4.4,11.9-6.7,17.8C582.2,812.2,580.1,817.8,577.7,824.1L577.7,824.1z M435.6,810.9c0,2,0.2,4,0.4,6
	c1.7,9.7,6.7,16.8,16.3,19.6c9.9,2.9,19.2,1.5,26.7-6.3c7.8-8,8.9-23.8,2.7-33.7c-6.4-10.3-21.2-14-33-8.1
	C439.4,793.3,435.9,801.5,435.6,810.9z M670.6,801c0.6,0.2,0.8,0.9,1.1,1.5c6.7,9.9,13.5,19.7,20,29.8c2.1,3.3,4.4,4.9,8.4,4.4
	c1.6-0.2,2-0.5,2-2.1c-0.1-13.9,0-27.9,0-41.8c0-1.9,0.8-4.3-0.3-5.5c-1.1-1.1-3.6-0.2-5.5-0.4c-1.5-0.2-2,0.3-2,1.9
	c0.2,7.5,0.2,15,0.2,22.5c0,3.6,0,7.2,0,11.3c-0.6-0.8-0.9-1.1-1.2-1.5c-6.8-10-13.7-19.9-20.2-30.1c-2.1-3.2-4.3-4.6-8.1-4.2
	c-1.8,0.2-2.3,0.5-2.3,2.3c0.1,13.5,0,27,0,40.5c0,1.8,0,3.6,0,5.5c0,1.1,0.4,1.5,1.5,1.4c1.6-0.1,3.2-0.1,4.8,0
	c1.3,0.1,1.7-0.2,1.6-1.7C670.6,823.6,670.6,812.3,670.6,801L670.6,801z M854.8,837.9c4.2,0.1,8.4-1,12-3.2
	c4.7-2.7,7.4-7.8,7.1-13.2c0-5-2.8-9.5-7.3-11.7c-2.2-1.1-4.5-1.8-6.9-2.3c-4.2-1.1-8.6-1.8-12.7-3.5c-2-0.6-3.4-2.5-3.4-4.6
	c-0.2-2.3,1.1-4.5,3.2-5.4c2.8-1.5,5.8-1.4,8.8-1.2c5.5,0.3,8.6,3.4,9.1,8.8c0.1,1,0.4,1.3,1.3,1.2c2-0.2,3.9-0.4,5.8-0.4
	c1.3,0,1.4-0.5,1.2-1.5c-0.3-2.1-1-4.2-1.9-6.2c-2.3-4.4-6.4-7.4-11.2-8.3c-7-1.5-13.8-1.4-19.8,3.3c-7.8,6.1-6.7,17,2.2,21.6
	c2.2,1.1,4.5,1.9,6.9,2.5c3.7,1,7.4,1.3,11,2.5c2.6,0.8,4.5,2.3,4.8,5.2c0.5,2.8-0.8,5.7-3.1,7.3c-5.7,4.2-13.7,2.9-17.9-2.8
	c-1.4-1.9-2.2-4.1-2.4-6.4c-0.1-1.1-0.4-1.3-1.4-1.2c-2,0.3-4,0.6-6,0.8c-1.2,0.1-1.5,0.6-1.4,1.8c0.5,5.5,2.7,10.1,7.4,13.2
	C844.3,837,848.9,837.8,854.8,837.9L854.8,837.9z M792,811.6c0,7.8,0,15.5,0,23.3c0,1.2,0.1,1.7,1.5,1.7c10.9-0.1,21.7-0.1,32.6,0
	c1.2,0,1.8-0.3,1.7-1.6c-0.1-1.4-0.1-2.8,0-4.2c0.2-1.6-0.5-1.8-1.9-1.8c-7.9,0.1-15.8,0-23.7,0.1c-1.4,0-2-0.2-1.9-1.8
	c0.1-3.5,0.1-7,0-10.5c0-1.4,0.3-1.9,1.9-1.9c5.2,0.1,10.5,0,15.8,0c1.8,0,4.2,0.8,5.3-0.3c1.1-1.1,0.2-3.6,0.4-5.4
	c0.2-1.5-0.5-1.9-1.9-1.8c-6.4,0.1-12.9,0-19.3,0.1c-1.7,0-2.1-0.5-2.1-2.1c0.1-2.9,0.1-5.9,0-8.8c0-1.5,0.5-1.9,1.9-1.9
	c6.4,0.1,12.8,0,19.1,0c1.8,0,4.2,0.6,5.3-0.3c1.2-1.1,0.2-3.6,0.4-5.4c0.2-1.6-0.4-2-2-1.9c-10.4,0.1-20.7,0.1-31.1,0
	c-1.7,0-1.9,0.6-1.9,2C792,796.5,792,804,792,811.6z M381,811.8c0,7,1.7,13.5,6.6,18.7c6.9,7.5,15.7,8.8,25,6.3
	c9.2-2.4,14.5-8.9,17.1-17.9c0.4-1.3-0.2-1.6-1.3-1.7c-1.7-0.1-3.3-0.3-5-0.6c-1.9-0.4-2.5,0.1-2.9,2.1c-1.1,6-4.7,10.1-10.8,11.4
	c-6.4,1.3-12.3,0-16.1-5.8c-4.7-7.2-4.8-15.1-1.7-22.9c2.3-5.6,7.1-8.3,13-8.7c5.9-0.3,10.9,1.7,14.2,6.9c0.9,1.3,0.5,3.5,2.2,3.9
	c1.5,0.3,3.1-0.5,4.7-0.8c0.7-0.1,1.4-0.3,2-0.5c0.6-0.2,1-0.5,0.7-1.3c-1.3-3.9-3.6-7.3-6.6-10c-8.1-6.7-22.2-7.1-31-0.8
	C383.7,795.4,381,803,381,811.8L381,811.8z M613,805.7L613,805.7c0.1,5.6,0,11.2,0.1,16.8c0.1,3.3,1.3,6.5,3.5,9
	c4.7,5.5,10.9,6.7,17.6,6.2c10.3-0.8,16.8-7.8,16.9-18c0.1-8.8,0-17.5,0-26.2c0-2.1,1-5.1-0.4-6.2s-4.1-0.3-6.3-0.4
	c-1.3-0.1-1.7,0.3-1.7,1.6c0.1,3.6,0.1,7.1,0,10.7c-0.1,7.3,0.2,14.5-0.2,21.8c-0.2,3.9-2,6.9-5.8,8.5c-8.3,3.5-15.3-1.1-15.3-10
	c0-8.7,0-17.5,0-26.2c0-2.1,0.9-4.8-0.4-6c-1.2-1-3.9-0.2-5.9-0.4c-1.6-0.1-2.2,0.3-2.1,2C613,794.5,612.9,800.1,613,805.7
	L613,805.7z M742.9,815.5c0,5,0,10.1,0,15.1c0,1.9-0.9,4.6,0.4,5.6s3.7,0.2,5.7,0.4s2.4-0.6,2.3-2.4c-0.1-12.6,0-25.2-0.1-37.8
	c0-1.6,0.3-2.1,1.9-2c2.2,0.2,4.5,0.1,6.7,0c1.8,0,4.2,0.6,5.3-0.3c1.2-1.1,0.2-3.6,0.4-5.4c0.2-1.6-0.4-2-2-1.9
	c-9.7,0.1-19.5,0-29.2,0.1c-1.9,0-4.6-0.9-5.6,0.4c-1,1.3-0.2,3.8-0.3,5.7c-0.1,1.2,0.4,1.5,1.5,1.5c3.7-0.1,7.4,0,11.1-0.1
	c1.4,0,1.7,0.3,1.7,1.7C742.8,802.6,742.8,809.1,742.9,815.5L742.9,815.5z M721.9,812c0-7.8,0-15.5,0-23.3c0-1.3-0.3-1.9-1.7-1.8
	c-1.7,0.1-3.5,0.1-5.2,0c-1.1,0-1.6,0.2-1.6,1.5c0,15.6,0,31.2,0,46.8c0,1,0.2,1.5,1.4,1.4c1.7-0.1,3.5-0.1,5.2,0
	c1.7,0.2,1.9-0.5,1.9-2C721.9,827.1,721.9,819.5,721.9,812L721.9,812z M780.6,811.8L780.6,811.8c0-6.1,0-12.2,0-18.3
	c0-2.1,0.9-5-0.4-6.2c-1.2-1.1-4-0.2-6.1-0.4c-1.7-0.2-1.9,0.5-1.9,2c0.1,13.7,0,27.4,0,41.1c0,2.2-0.9,5.1,0.4,6.2
	c1.3,1.1,4.1,0.2,6.3,0.4c1.4,0.1,1.7-0.5,1.7-1.8C780.6,827.1,780.6,819.4,780.6,811.8L780.6,811.8z"/>
<path class="st1" d="M760.4,673.8c0-26.8,0-53.6,0-80.5c0-1.9,0.5-2.3,2.3-2.3c13.3,0.1,26.6,0.1,39.9,0.1c2.9,0,5.7,0.4,8.5,1.1
	c6.6,1.5,10.5,5.7,12,12.2c1.1,4.8,1.6,9.8,1.6,14.8c0.1,10.6,0.5,21.3-0.3,31.9c-0.1,1.5-0.3,3.1-0.6,4.6
	c-1.5,8.2-5.4,11.8-13.8,12.7c-0.6,0.1-1.6-0.4-1.7,0.6c-0.1,1.3,1.1,0.8,1.7,0.9c1.4,0.3,2.9,0.4,4.3,0.8c5.9,1.7,9.7,6.2,10,12.8
	c0.8,16.9,0.8,33.9-0.1,50.8c-0.2,2.3-0.5,4.6-1.1,6.8c-2.1,9.1-6.6,13.2-15.7,14.8c-3.6,0.6-7.2,0.9-10.9,0.9
	c-11.3,0-22.5,0-33.8,0c-1.9,0-2.4-0.4-2.4-2.4C760.4,727.5,760.5,700.7,760.4,673.8z M781.4,707.4L781.4,707.4v9.7
	c0,5.9,0,11.9,0,17.8c0,0.8-0.3,1.7,1.1,1.7c5.2-0.2,10.3,0.4,15.5-0.4c3-0.4,4.3-1.7,4.8-4.6c0.2-1.3,0.4-2.7,0.5-4
	c0.7-10.9,0.6-21.8,0.3-32.7c-0.1-3.9-0.2-7.8-1.5-11.6c-0.6-2.4-2.7-4.2-5.2-4.5c-4.5-0.6-9.1-0.1-13.6-0.3c-1.7-0.1-1.9,0.5-1.9,2
	C781.4,689.5,781.4,698.4,781.4,707.4L781.4,707.4z M781.4,635.7c0,7.7,0,15.4,0,23.1c0,0.7-0.5,1.8,1,1.8c4.5-0.1,9.1,0.3,13.6-0.4
	c3.8-0.6,5.2-1.9,6.1-5.6c1.1-4.9,1.1-9.8,1.2-14.8c0.3-8.1-0.1-16.2-1.2-24.3c-0.5-3.4-1.9-4.6-5.4-4.7c-4.5-0.1-9-0.1-13.4-0.2
	c-1.6-0.1-2,0.4-2,2C781.5,620.3,781.4,628,781.4,635.7z"/>
<path class="st1" d="M413.9,591.1c3.9,0,7.8,0,11.8,0c1.1,0,1.5,0.3,1.7,1.5c4,26.5,8.1,52.9,12.2,79.4c3.7,24,7.4,48,11.2,71.9
	c0.6,3.7,1.1,7.5,1.7,11.2c0.2,1.4-0.1,1.8-1.6,1.8c-5.9-0.1-11.8-0.1-17.6,0c-1.9,0-2-0.9-2.2-2.2c-1.2-8.9-2.5-17.9-3.7-26.8
	c-0.2-1.2-0.6-1.6-1.8-1.6c-7.2,0.1-14.4,0.1-21.6,0c-1.5,0-1.9,0.5-2,1.9c-1,8.9-2.2,17.8-3.2,26.7c-0.2,1.5-0.5,2.2-2.2,2.1
	c-5.8-0.1-11.6-0.1-17.4,0c-1.2,0-1.6-0.2-1.4-1.6c2.3-15.7,4.4-31.4,6.6-47.1c2-14.6,4.1-29.2,6.1-43.8c2-14.3,4-28.5,6-42.8
	c1.3-9.6,2.7-19.1,4-28.7c0.2-1.3,0.6-1.7,2-1.7C406.2,591.2,410.1,591.1,413.9,591.1L413.9,591.1z M414.4,706.2c2.9,0,5.7,0,8.6,0
	c1.1,0,1.4-0.3,1.2-1.5c-1.9-13.1-3.7-26.2-5.7-39.2c-2-13.8-4-27.5-3.8-41.5c0-0.7,0.6-1.8-0.9-1.8s-1.2,1.1-1.1,1.9
	c0.2,17.8-2.3,35.3-4.6,52.8c-1.2,9.2-2.3,18.5-3.5,27.7c-0.2,1.3,0.2,1.7,1.5,1.7C408.9,706.1,411.7,706.2,414.4,706.2z"/>
<path class="st2" d="M872,746.8c-1.7,2.4-3.6,4.7-5.6,6.9c-7.8,7.3-22.7,5.8-27.7-2.9c-1.9-3.5-2.8-7.4-2.6-11.3
	c0-9.2,0.2-18.3,0-27.5s3.6-15.7,11.2-20.4c6-3.7,12-7.5,18-11.2c0.5-0.3,0.9-0.6,1.4-0.9c4.8-2.8,7.3-6.6,6.6-12.5
	c-0.5-4.5-0.1-9.2-0.1-13.8c-0.1-7.3-5.8-11-12.5-8c-2.9,1.3-3.9,3.9-3.9,6.9c0,5.9,0,11.8,0,17.6c0,1.2-0.1,1.9-1.7,1.8
	c-5.3-0.1-10.6,0-16,0c-0.7,0-1.7,0.4-1.7-1c0.2-7.3-0.7-14.7,0.6-22c1.9-10.9,7.6-16.5,18.4-18.7c6.5-1.3,13.2-1.1,19.5,0.6
	c9,2.5,14.6,9.2,15.5,18.5c0.3,2.6,0.4,5.2,0.4,7.8c0,27.2,0,54.3,0,81.5c0,6,0.4,11.9,2.8,17.5c0.5,1,0.2,1.3-0.9,1.3
	c-5.8,0-11.6,0-17.4,0c-1.1,0-1.4-0.5-1.7-1.4C873.6,752.6,872.7,749.7,872,746.8z M873.1,694.3c-4.1,3.2-8,5.8-12,8.5
	c-4.2,2.7-6.7,7.4-6.4,12.4c0.1,4.8,0,9.5,0,14.3c-0.1,2.5,0.1,5,0.6,7.5c0.7,2.9,1.9,5.4,5,6c3.2,0.9,6.6-0.3,8.7-2.9
	c2-2.6,3.2-5.7,3.6-9c0.9-6,0.4-12,0.5-18S873.1,700.9,873.1,694.3z"/>
<path class="st1" d="M575.7,756.7c-6.5,0-12.8,0-19.1,0c-1,0-1.1-0.6-1.4-1.2c-1.2-2.8-2.1-5.8-2.8-8.8c-2.2,2.9-4.1,5.8-6.9,7.9
	c-7.2,5.5-19.7,4.5-25.1-2c-3-3.7-3.9-8.1-4-12.6c-0.1-10.6-0.4-21.3,0.2-31.9c0.3-5.9,3.4-11.3,8.3-14.6
	c6.3-4.5,13.1-8.3,19.6-12.5c2.8-1.7,5.4-3.8,7.7-6.1c0.9-0.9,1.4-2.1,1.3-3.4c-0.1-6.1-0.1-12.2,0-18.3c0.1-8.2-5.2-10-11.6-8.6
	c-3.4,0.7-5,3.4-5,7.8c0,5.7,0,11.3,0,17c0,1.2-0.1,1.9-1.7,1.8c-5.3-0.1-10.6,0-16,0c-0.8,0-1.6,0.2-1.6-1.1
	c0.1-7.1-0.6-14.3,0.6-21.4c1.9-11.4,7.8-17.4,18.9-19.4c7.5-1.4,15.1-1.1,22.3,1.8c7.5,3,11.2,8.9,12.3,16.7
	c0.3,2.3,0.5,4.6,0.4,6.9c0,26.8,0,53.6,0,80.5C572.2,742.6,572.5,749.8,575.7,756.7z M553.6,694.3c-4.2,3.3-8.3,6-12.3,8.7
	c-4,2.6-6.3,7.2-6.1,12c0.1,5.4,0,10.8,0,16.2c-0.1,2.2,0.2,4.3,0.7,6.4c1.8,6.1,8.2,7.8,12.8,3.4c3.4-3.3,4.2-7.6,4.6-12
	c0.6-6.5,0.2-13,0.2-19.5C553.6,704.6,553.6,699.7,553.6,694.3L553.6,694.3z"/>
<path class="st3" d="M707.9,639.3c2.3-2.8,4.3-5.1,6.8-6.7c6.1-4.3,14-4.9,20.8-1.8c6.3,2.8,8.4,8.5,9.5,14.9
	c0.4,2.8,0.6,5.7,0.5,8.6c0,33.5,0,66.9,0,100.4c0,1.7-0.4,2.2-2.2,2.2c-4.9-0.1-9.8-0.2-14.7,0c-2,0.1-2.4-0.6-2.4-2.5
	c0-32.4,0-64.8,0-97.3c0-1.5-0.1-2.9-0.3-4.4c-0.8-5-4.5-7.4-9.9-6.4c-4.5,0.8-7.1,3.7-7.7,8.9c-0.2,1.9-0.3,3.9-0.3,5.9
	c0,31.1,0,62.2,0,93.3c0,2.1-0.6,2.5-2.6,2.5c-4.6-0.2-9.2-0.1-13.9,0c-1.8,0-2.3-0.4-2.3-2.3c0.1-32.5,0.1-65,0-97.5
	c0-7.9,0-15.8,0-23.7c0-1.5,0.2-2.1,1.9-2c4.9,0.1,9.8,0.1,14.7,0c1.6,0,2.1,0.5,1.9,2C707.8,635.1,707.9,636.9,707.9,639.3z"/>
<path class="st1" d="M676.4,693.2c0,12.5,0,24.9,0,37.4c0,3.8-0.5,7.7-1.6,11.4c-2.4,7.8-7.4,13-15.2,15.4c-7.2,2.2-14.8,2.3-22,0.4
	c-10-2.5-14.9-9.6-16.6-19.4c-0.7-4.1-1-8.3-0.9-12.5c0-22.1,0-44.1,0.1-66.1c0-4.5,0.7-8.9,2-13.2c2.8-8.8,8.6-14.4,17.7-16.3
	c7.3-1.7,15-1.3,22.1,1.1c9.1,3.3,13.1,10.4,14.1,19.5c0.8,7.8,0.3,15.7,0.4,23.5C676.4,680.6,676.4,686.9,676.4,693.2z
	 M657.9,693.6c0-12.8,0-25.6,0-38.4c0-1.5-0.1-2.9-0.4-4.4c-0.4-3-2.7-5.4-5.7-5.9c-1.9-0.4-3.9-0.4-5.8-0.1c-3.2,0.4-5.8,2.8-6.5,6
	c-0.5,2.2-0.8,4.4-0.7,6.7c0,25.1,0,50.2,0,75.3c0,1.5,0.1,3.1,0.4,4.6c0.2,2,1.3,3.7,3,4.8c4.6,3.1,10.8,1.9,13.9-2.7
	c0.8-1.3,1.4-2.7,1.6-4.2c0.2-1.1,0.3-2.2,0.3-3.3C657.9,719.2,657.9,706.4,657.9,693.6L657.9,693.6z"/>
<path class="st4" d="M962.1,631.5c-2.6,15.3-5.2,30.4-7.8,45.5c-3.4,20.1-6.9,40.2-10.3,60.3c-2.1,12.1-4.1,24.1-6.3,36.1
	c-2,10.7-8.9,16.5-19.8,16.9c-3.8,0.1-7.6,0.1-11.3-0.3c-1.2-0.1-1.5-0.5-1.5-1.7c0-5,0-10.1,0-15.1c0-1.2,0.4-1.5,1.6-1.5
	c1.7,0.1,3.4,0,5-0.3c5.2-0.9,8-4,8.4-9.2c0.4-6.1-1-12-1.9-17.9c-2.7-18-5.4-35.9-8.2-53.9c-2.3-15.1-4.7-30.3-7-45.4
	c-0.6-3.9-1.2-7.9-1.8-11.8c-0.2-1.5-0.1-2.1,1.7-2.1c5.2,0.1,10.4,0.1,15.5,0c1.2,0,1.7,0.3,1.8,1.6c1,9.6,2.1,19.2,3.2,28.8
	c1.5,13.7,3.1,27.4,4.5,41.1c0.9,8.9,1.7,17.8,2.6,26.7c0.1,0.7-0.3,1.8,1.2,1.7s1-1.1,1-1.8c0-16.6,1.8-33.1,4-49.5
	c2-15.2,3.8-30.4,5.6-45.6c0.3-2.2,0.9-2.8,3.1-2.8C951,631.6,956.5,631.5,962.1,631.5z"/>
<path class="st4" d="M478.9,756.8c-3.1,0-6.3-0.1-9.5,0c-1.5,0.1-1.9-0.5-2.1-1.8c-1.3-9.1-2.6-18.1-4-27.2
	c-2-13.8-4.1-27.6-6.2-41.5c-1.9-12.8-3.8-25.6-5.6-38.4c-0.7-5-1.4-10-2.2-14.9c-0.2-1.3-0.1-1.8,1.4-1.8c5.2,0.1,10.5,0.1,15.8,0
	c1.2,0,1.8,0.2,2,1.7c2,16.9,4.1,33.9,6.2,50.8c2,15.5,3.2,31,3.7,46.6c0,0.8-0.5,2,1.1,1.9c1.4,0,0.9-1.2,0.9-1.9
	c0.1-17.2,2.1-34.3,4.3-51.4c2-15.3,3.8-30.7,5.5-46c0.2-1.4,0.6-1.8,1.9-1.8c5.2,0.1,10.5,0.1,15.8,0c1.5,0,1.7,0.4,1.4,1.8
	c-2.7,17-5.3,34-7.9,51c-2.7,17.6-5.4,35.2-8.2,52.8c-1,6.2-2,12.4-2.9,18.6c-0.2,1.2-0.6,1.3-1.6,1.3
	C485.5,756.7,482.2,756.8,478.9,756.8z"/>
<path class="st5" d="M605.8,756.7c-5.8,0-11.6,0-17.4,0.1c-1.5,0-1.5-0.8-1.5-1.8c0-10.5,0-21,0-31.5c0-43.3,0-86.7,0-130
	c0-1.9,0.5-2.5,2.4-2.4c5,0.1,9.9,0.1,14.9,0c1,0,1.8,0,1.7,1.4c0,1-0.1,2-0.1,2.9C605.9,649.1,605.8,702.9,605.8,756.7z"/>
<path class="st6" d="M534.7,802.8c-1.2,3.3-2.5,6.6-3.8,9.9c-2.8,7.3-5.6,14.6-8.2,22c-0.2,1.3-1.5,2.2-2.8,2c-4.3-0.1-4.3,0-5.8-4
	c-3.4-9.1-6.9-18.3-10.3-27.4c-0.2-0.6-0.5-1.2-1-1.6c0,3.6,0,7.2,0,10.8c0.1,6.8,0.2,13.6,0.4,20.4c0,1.5-0.4,2-1.9,1.9
	c-2.1-0.2-4.8,0.7-6.1-0.4s-0.4-3.9-0.4-6c0-13.8,0-27.6-0.1-41.4c0-1.6,0.4-2.1,2-2c2.1,0.1,4.2,0.1,6.3,0c1.3-0.1,1.9,0.4,2.4,1.7
	c4.1,11.3,8.4,22.5,12.6,33.7c0.2,0.4,0.4,0.9,0.6,1.5c0.8-1.2,1.4-2.6,1.8-4.1c3.9-10.4,7.9-20.8,11.7-31.2c0.5-1.3,1-1.7,2.4-1.7
	c2.2,0.1,4.5,0.1,6.7,0c1,0,1.5,0.2,1.5,1.4c0,15.6,0,31.2,0,46.8c0,1.3-0.5,1.5-1.6,1.5c-1.4-0.1-2.8,0-4.2,0c-2.7,0-2.6,0-2.6-2.8
	c0.3-10.3,0.5-20.7,0.8-31L534.7,802.8z"/>
<path class="st6" d="M577.8,824.1c2.4-6.3,4.6-12.1,6.7-17.8c2.2-5.8,4.5-11.9,6.7-17.8c0.2-1,1.2-1.7,2.3-1.5
	c2.1,0.1,4.2,0.1,6.3,0c1.5-0.1,2,0.3,2,1.9c-0.1,13.2,0,26.5,0,39.7c0,2.2,0,4.5,0,6.7c0,1-0.2,1.4-1.3,1.3c-2-0.1-3.9-0.1-5.9,0
	c-1.1,0-1.2-0.5-1.2-1.4c0.2-7.7,0.4-15.4,0.5-23.1c0-3.2,0-6.4,0-9.9c-1.5,3.9-2.9,7.7-4.3,11.4c-2.7,7.2-5.4,14.4-8.1,21.6
	c-0.2,0.9-1,1.5-2,1.4c-4.9,0.1-4.9,0.1-6.7-4.5c-3.4-9.1-6.8-18.2-10.2-27.2c-0.2-0.5-0.2-1.1-0.9-1.5c0,2.7,0,5.2,0,7.7
	c0.1,7.9,0.2,15.8,0.4,23.7c0,1.3-0.2,1.9-1.7,1.8c-1.7-0.1-3.5-0.1-5.2,0c-1.1,0-1.4-0.4-1.4-1.5c0-15.6,0-31.2,0-46.8
	c0-1.2,0.4-1.4,1.5-1.4c2,0.1,4.1,0.1,6.1,0c1.8-0.2,2.6,0.5,3.3,2.2c4,11.1,8.2,22.1,12.3,33.1
	C577.1,822.7,577.3,823.1,577.8,824.1z"/>
<path class="st6" d="M435.6,810.9c0.3-9.4,3.8-17.7,13.2-22.5c11.7-5.9,26.5-2.2,33,8.1c6.2,9.9,5.1,25.7-2.7,33.7
	c-7.5,7.8-16.8,9.2-26.7,6.3c-9.7-2.8-14.6-9.9-16.3-19.6C435.8,815,435.6,813,435.6,810.9z M444.5,811.6c-0.1,3.2,0.5,6.4,1.6,9.4
	c2.4,6.3,7.4,9.7,14.4,9.8s12.1-3.2,14.5-9.5c2.3-5.9,2.4-12.3,0.4-18.3c-2-5.9-6.2-9.3-12.4-10.1c-5.9-0.7-11.1,0.7-14.9,5.7
	C445.3,802.6,444.6,807,444.5,811.6L444.5,811.6z"/>
<path class="st6" d="M670.6,801c0,11.3,0,22.6,0.1,33.8c0,1.5-0.3,1.8-1.7,1.7c-1.6-0.1-3.2-0.1-4.8,0c-1.1,0.1-1.5-0.3-1.5-1.4
	c0.1-1.8,0-3.6,0-5.5c0-13.5,0-27,0-40.5c0-1.9,0.6-2.1,2.3-2.3c3.8-0.4,6,0.9,8.1,4.2c6.5,10.2,13.4,20.1,20.2,30.1
	c0.2,0.4,0.6,0.7,1.2,1.5c0-4.1,0-7.7,0-11.3c0-7.5-0.1-15-0.2-22.5c0-1.6,0.5-2.1,2-1.9c1.9,0.2,4.3-0.8,5.5,0.4s0.3,3.6,0.3,5.5
	c0,13.9,0,27.9,0,41.8c0,1.6-0.4,1.9-2,2.1c-4,0.5-6.2-1-8.4-4.4c-6.4-10.1-13.3-19.9-20-29.8C671.4,802,671.2,801.2,670.6,801z"/>
<path class="st7" d="M854.8,837.9c-5.9,0-10.6-0.9-14.7-3.6c-4.8-3.1-6.9-7.7-7.4-13.2c-0.1-1.2,0.2-1.6,1.4-1.8c2-0.2,4-0.5,6-0.8
	c1-0.2,1.3,0.1,1.4,1.2c0.7,7,6.9,12.2,13.9,11.6c2.3-0.2,4.5-1,6.4-2.4c2.4-1.6,3.6-4.5,3.1-7.3c-0.3-2.9-2.2-4.4-4.8-5.2
	c-3.6-1.2-7.4-1.6-11-2.5c-2.4-0.6-4.7-1.4-6.9-2.5c-8.9-4.5-10-15.4-2.2-21.6c6-4.7,12.8-4.7,19.8-3.3c4.8,0.9,9,4,11.2,8.3
	c0.9,2,1.6,4,1.9,6.2c0.2,1,0.1,1.5-1.2,1.5c-2,0-3.9,0.2-5.8,0.4c-1,0.1-1.2-0.2-1.3-1.2c-0.5-5.5-3.6-8.5-9.1-8.8
	c-3-0.2-6-0.2-8.8,1.2c-2.1,1-3.4,3.1-3.2,5.4c0,2.1,1.4,3.9,3.4,4.6c4.1,1.7,8.5,2.3,12.7,3.5c2.4,0.5,4.7,1.3,6.9,2.3
	c4.5,2.2,7.3,6.7,7.3,11.7c0.3,5.4-2.4,10.5-7.1,13.2C863.2,836.9,859,838,854.8,837.9z"/>
<path class="st8" d="M792,811.6c0-7.6,0-15.1,0-22.7c0-1.5,0.2-2,1.9-2c10.4,0.1,20.7,0.1,31.1,0c1.5,0,2.2,0.3,2,1.9
	c-0.2,1.8,0.8,4.3-0.4,5.4c-1,0.9-3.5,0.3-5.3,0.3c-6.4,0-12.8,0-19.1,0c-1.4,0-2,0.4-1.9,1.9c0.1,2.9,0.1,5.9,0,8.8
	c-0.1,1.6,0.4,2.2,2.1,2.1c6.4-0.1,12.9,0,19.3-0.1c1.4,0,2.1,0.3,1.9,1.8c-0.2,1.8,0.8,4.2-0.4,5.4c-1.2,1.2-3.5,0.3-5.3,0.3
	c-5.2,0-10.5,0.1-15.8,0c-1.5,0-1.9,0.5-1.9,1.9c0.1,3.5,0.1,7,0,10.5c0,1.6,0.5,1.8,1.9,1.8c7.9-0.1,15.8,0,23.7-0.1
	c1.4,0,2.1,0.2,1.9,1.8c-0.1,1.4-0.1,2.8,0,4.2c0.1,1.3-0.4,1.6-1.7,1.6c-10.9,0-21.7,0-32.6,0c-1.4,0-1.5-0.5-1.5-1.7
	C792,827.1,792,819.4,792,811.6z"/>
<path class="st7" d="M381,811.8c0-8.8,2.7-16.4,10.1-21.7c8.8-6.2,22.9-5.8,31,0.8c3.1,2.7,5.4,6.1,6.6,10c0.3,0.8,0.1,1.2-0.7,1.3
	c-0.7,0.2-1.4,0.3-2,0.5c-1.6,0.3-3.2,1.1-4.7,0.8c-1.7-0.3-1.4-2.6-2.2-3.9c-3.4-5.1-8.2-7.2-14.2-6.9s-10.8,3.1-13,8.7
	c-3.1,7.8-3.1,15.7,1.7,22.9c3.8,5.8,9.6,7.1,16.1,5.8c6.1-1.3,9.7-5.4,10.8-11.4c0.4-2,1-2.5,2.9-2.1c1.7,0.3,3.3,0.5,5,0.6
	c1.1,0.1,1.6,0.4,1.3,1.7c-2.5,9-7.9,15.5-17.1,17.9c-9.4,2.5-18.1,1.1-25-6.3C382.7,825.3,381,818.8,381,811.8z"/>
<path class="st6" d="M612.9,805.7c0-5.6,0.1-11.2,0-16.8c0-1.7,0.5-2.2,2.1-2c2,0.2,4.7-0.6,5.9,0.4c1.3,1.2,0.4,3.9,0.4,6
	c0,8.8,0,17.5,0,26.2c0,8.9,7,13.5,15.3,10c3.8-1.6,5.5-4.6,5.8-8.5c0.4-7.3,0.1-14.5,0.2-21.8c0-3.6,0.1-7.1,0-10.7
	c0-1.3,0.4-1.7,1.7-1.6c2.2,0.1,5-0.7,6.3,0.4s0.4,4.1,0.4,6.2c0,8.7,0.1,17.5,0,26.2c-0.1,10.3-6.6,17.3-16.9,18
	c-6.8,0.5-13-0.7-17.6-6.2c-2.2-2.5-3.4-5.7-3.5-9c-0.1-5.6,0-11.2,0-16.8L612.9,805.7z"/>
<path class="st1" d="M742.8,815.5c0-6.5,0-12.9,0-19.3c0-1.4-0.4-1.8-1.7-1.7c-3.7,0.1-7.4,0-11.1,0.1c-1.1,0-1.6-0.3-1.5-1.5
	c0.1-2-0.6-4.5,0.3-5.7s3.7-0.4,5.6-0.4c9.7,0,19.5,0,29.2-0.1c1.5,0,2.2,0.3,2,1.9c-0.2,1.8,0.8,4.3-0.4,5.4
	c-1,0.9-3.5,0.3-5.3,0.3c-2.2,0-4.5,0.1-6.7,0c-1.6-0.1-2,0.4-1.9,2c0.1,12.6,0,25.2,0.1,37.8c0,1.8-0.4,2.6-2.3,2.4
	c-2-0.2-4.5,0.6-5.7-0.4s-0.4-3.7-0.4-5.6C742.8,825.6,742.8,820.6,742.8,815.5z"/>
<path class="st1" d="M721.9,812c0,7.5,0,15.1,0,22.7c0,1.5-0.2,2.2-1.9,2c-1.7-0.1-3.5-0.1-5.2,0c-1.2,0.1-1.4-0.4-1.4-1.4
	c0-15.6,0-31.2,0-46.8c0-1.2,0.4-1.5,1.6-1.5c1.7,0.1,3.5,0.1,5.2,0c1.4-0.1,1.7,0.5,1.7,1.8C721.9,796.4,721.9,804.2,721.9,812z"/>
<path class="st2" d="M780.6,811.8c0,7.7,0,15.4,0,23.1c0,1.3-0.3,1.9-1.7,1.8c-2.2-0.2-5,0.7-6.3-0.4c-1.3-1.1-0.4-4.1-0.4-6.2
	c0-13.7,0-27.4,0-41.1c0-1.5,0.3-2.1,1.9-2c2.1,0.2,4.9-0.7,6.1,0.4c1.4,1.2,0.4,4.1,0.4,6.2C780.7,799.6,780.6,805.7,780.6,811.8
	L780.6,811.8z"/>
<path class="st9" d="M605.8,756.7c0-53.8,0-107.5,0-161.3c0-1,0-2,0.1-2.9c0.6,0.9,0.4,1.9,0.4,2.9c0,52,0,104,0,156
	c-0.1,1.3,0,2.7,0.3,4C606.8,755.9,606.7,756.5,605.8,756.7z"/>
<path class="st9" d="M781.4,707.4c0-9,0-17.9,0-26.9c0-1.5,0.2-2.1,1.9-2c4.5,0.3,9.1-0.2,13.6,0.3c2.5,0.2,4.6,2,5.2,4.5
	c1.3,3.8,1.4,7.7,1.5,11.6c0.2,10.9,0.3,21.8-0.3,32.7c-0.1,1.3-0.2,2.7-0.5,4c-0.5,3-1.8,4.2-4.8,4.6c-5.2,0.7-10.3,0.2-15.5,0.4
	c-1.5,0.1-1.1-0.9-1.1-1.7c0-6,0-11.9,0-17.8L781.4,707.4L781.4,707.4z"/>
<path class="st9" d="M781.4,635.7c0-7.7,0-15.4,0-23.1c0-1.6,0.4-2,2-2c4.5,0.2,9,0.1,13.4,0.2c3.4,0.1,4.8,1.2,5.4,4.6
	c1.1,8,1.5,16.2,1.2,24.3c-0.1,5-0.1,9.9-1.2,14.8c-0.8,3.7-2.3,5-6.1,5.6c-4.5,0.7-9.1,0.3-13.6,0.4c-1.5,0-1-1.1-1-1.8
	C781.4,651.1,781.4,643.4,781.4,635.7z"/>
<path class="st10" d="M414.4,706.2c-2.7,0-5.5-0.1-8.2,0c-1.3,0-1.7-0.3-1.5-1.7c1.2-9.2,2.3-18.5,3.5-27.7
	c2.3-17.5,4.7-35.1,4.6-52.8c0-0.8-0.5-1.9,1.1-1.9s0.9,1.2,0.9,1.8c-0.2,14,1.8,27.8,3.8,41.5c1.9,13.1,3.8,26.2,5.7,39.2
	c0.2,1.2-0.1,1.5-1.2,1.5C420.1,706.2,417.3,706.2,414.4,706.2z"/>
<path class="st9" d="M873.1,694.3c0,6.5,0.1,12.7,0,18.8s0.5,12-0.5,18c-0.4,3.3-1.6,6.4-3.6,9c-2.1,2.6-5.5,3.7-8.7,2.9
	c-3.2-0.7-4.4-3.2-5-6c-0.5-2.5-0.7-5-0.6-7.5c0-4.8,0.1-9.5,0-14.3c-0.3-5,2.2-9.8,6.4-12.4C865.1,700.2,869,697.5,873.1,694.3z"/>
<path class="st10" d="M553.6,694.3c0,5.3,0,10.2,0,15.1c-0.1,6.5,0.3,13-0.2,19.5c-0.4,4.4-1.2,8.8-4.6,12c-4.6,4.4-11,2.7-12.8-3.4
	c-0.5-2.1-0.8-4.3-0.7-6.4c0-5.4,0.1-10.8,0-16.2c-0.3-4.8,2-9.4,6.1-12C545.3,700.3,549.4,697.6,553.6,694.3z"/>
<path class="st11" d="M657.9,693.6c0,12.8,0,25.6,0,38.4c0,1.1-0.1,2.2-0.3,3.3c-0.8,5.5-5.9,9.3-11.3,8.5c-1.5-0.2-2.9-0.8-4.2-1.6
	c-1.7-1.1-2.8-2.8-3-4.8c-0.3-1.5-0.4-3.1-0.4-4.6c0-25.1,0-50.2,0-75.3c-0.1-2.2,0.2-4.5,0.7-6.7c0.7-3.2,3.3-5.6,6.5-6
	c1.9-0.4,3.9-0.3,5.8,0.1c3,0.5,5.3,2.9,5.7,5.9c0.3,1.4,0.4,2.9,0.4,4.4C657.9,668,657.9,680.8,657.9,693.6z"/>
<path class="st12" d="M444.5,811.6c0.1-4.6,0.8-9.1,3.6-12.9c3.7-5,9-6.4,14.9-5.7c6.2,0.7,10.5,4.2,12.4,10.1
	c2,5.9,1.9,12.4-0.4,18.3c-2.4,6.3-7.5,9.5-14.5,9.5s-12-3.5-14.4-9.8C445,818,444.4,814.8,444.5,811.6z"/>
</svg>
