<?xml version="1.0" encoding="utf-8"?>
<!-- Generator: Adobe Illustrator 26.0.3, SVG Export Plug-In . SVG Version: 6.00 Build 0)  -->
<svg version="1.0" id="Layer_1" xmlns="http://www.w3.org/2000/svg" xmlns:xlink="http://www.w3.org/1999/xlink" x="0px" y="0px"
	 viewBox="0 0 995 676.7" style="enable-background:new 0 0 995 676.7;" xml:space="preserve">
<style type="text/css">
	.st0{fill:#005CA8;}
	.st1{fill:#009EE2;}
	.st2{fill:#636362;}
</style>
<path class="st0" d="M275.4,372.1l-66-90.2c-0.4-0.5-1-0.8-1.7-0.8h-21.2c-0.4,0-0.7,0.3-0.7,0.7c0,0.2,0,0.3,0.1,0.4l65.9,90.2
	c0.4,0.5,1,0.9,1.7,0.9h21.4c0.4,0,0.7-0.3,0.7-0.8C275.5,372.3,275.5,372.2,275.4,372.1"/>
<path class="st1" d="M251.7,281.9l-65.9,90.2c-0.2,0.3-0.2,0.8,0.2,1c0.1,0.1,0.3,0.1,0.4,0.1h21.2c0.7,0,1.3-0.3,1.7-0.9l66-90.1
	c0.2-0.3,0.2-0.8-0.2-1c-0.1-0.1-0.3-0.1-0.4-0.1h-21.3C252.7,281.1,252.1,281.4,251.7,281.9"/>
<path class="st0" d="M324.3,281.1h-38.1c-1,0-1.8,0.8-1.8,1.9v127.9c0,1,0.8,1.8,1.8,1.9H301c1,0,1.8-0.8,1.8-1.8v-37.6h21.4
	c25.5-0.4,45.8-21.3,45.4-46.8C369.4,301.5,349.3,281.4,324.3,281.1 M324.3,354.7h-21.4v-55.2h21.4c15.2,0,27.6,12.4,27.6,27.6
	C351.9,342.4,339.6,354.7,324.3,354.7"/>
<path class="st0" d="M191,327.2c0-25.4-20.6-46.1-46.1-46.1h-21.4v-37.6c0-1-0.8-1.8-1.8-1.8h-14.8c-1,0-1.8,0.8-1.8,1.9l0,0v127.9
	c0,1,0.8,1.9,1.8,1.9h38.1C170.4,373.2,191,352.6,191,327.2 M172.5,327.2c0,15.2-12.4,27.6-27.6,27.6h-21.4v-55.2h21.4
	C160.2,299.6,172.5,311.9,172.5,327.2"/>
<path class="st2" d="M479.7,281.8c-1.7-1.5-3.7-2.6-5.9-3.4c-1-0.4-2-0.7-3-0.9c0.9-0.4,1.8-0.8,2.6-1.3c1.7-1.1,3.1-2.4,4.4-4
	c1.2-1.6,2.1-3.4,2.8-5.2c0.7-2,1-4,1-6.1c0-2.4-0.4-4.8-1.1-7.1c-0.8-2.3-2-4.3-3.7-6c-1.9-1.8-4.1-3.3-6.6-4.2
	c-3.1-1.1-6.3-1.6-9.6-1.5h-25.2v75.3h21.9c3.6,0,7.2-0.3,10.8-0.9c3.2-0.5,6.3-1.6,9.1-3.2c2.6-1.5,4.8-3.7,6.3-6.4
	c1.7-3.1,2.5-6.6,2.3-10.2c0.1-3-0.5-6.1-1.7-8.9C483.1,285.4,481.6,283.5,479.7,281.8 M442.3,281.3h15.5c2.5,0,4.9,0.2,7.4,0.7
	c2.4,0.4,4.7,1.2,6.8,2.3c2,1.1,3.7,2.7,4.9,4.6c1.4,2.3,2,5,1.9,7.7c0.1,2.7-0.6,5.4-2,7.7c-1.3,1.8-3.1,3.3-5.1,4.2
	c-2.3,1-4.8,1.6-7.3,1.8c-2.7,0.2-5.5,0.4-8.3,0.4h-13.7L442.3,281.3z M469,271.6c-1.7,1.1-3.5,2-5.4,2.4c-1.9,0.5-3.9,0.7-5.9,0.7
	h-15.4v-26.3h15.4c2.1,0,4.1,0.2,6.1,0.4c1.9,0.3,3.7,0.9,5.4,1.8c1.6,0.9,2.9,2.2,3.9,3.8c1.1,2.1,1.6,4.4,1.5,6.7
	c0.1,2.2-0.5,4.3-1.5,6.2C472,269,470.6,270.4,469,271.6"/>
<path class="st2" d="M539.4,271.5c-2.5-2.5-5.4-4.5-8.6-5.9c-6.7-2.9-14.3-2.9-21,0c-14,6.2-20.4,22.5-14.2,36.5
	c2.8,6.3,7.9,11.4,14.2,14.2c6.7,2.9,14.3,2.9,21,0c6.5-2.9,11.7-8.1,14.4-14.7c2.8-6.9,2.8-14.5,0-21.4
	C543.8,277.1,541.8,274.1,539.4,271.5 M540.5,291c0,2.9-0.5,5.7-1.6,8.4c-1,2.5-2.4,4.8-4.2,6.8c-1.8,1.9-4,3.5-6.5,4.6
	c-2.5,1.1-5.2,1.7-8,1.7c-2.7,0-5.4-0.6-7.8-1.7c-2.4-1.1-4.6-2.7-6.4-4.7c-1.8-2-3.3-4.3-4.3-6.9c-1.1-2.6-1.6-5.4-1.6-8.2
	c0-2.9,0.5-5.7,1.5-8.4c1-2.5,2.4-4.8,4.3-6.8c1.8-1.9,4-3.5,6.4-4.6c2.5-1.1,5.2-1.7,8-1.7c2.7,0,5.4,0.6,7.9,1.7
	c2.4,1.1,4.6,2.7,6.4,4.7c1.8,2,3.3,4.4,4.3,6.9C539.9,285.4,540.5,288.2,540.5,291"/>
<path class="st2" d="M587.8,291.9c-1.9-1.1-3.8-2-5.9-2.7c-2.1-0.7-4.2-1.2-6.3-1.7c-1.9-0.4-3.8-0.9-5.7-1.4
	c-1.7-0.4-3.4-1-4.9-1.8c-1.3-0.6-2.4-1.5-3.3-2.6c-0.8-1-1.2-2.3-1.2-3.6c-0.2-2.9,1.4-5.7,4-7c1.3-0.7,2.7-1.1,4.2-1.4
	c1.6-0.3,3.1-0.4,4.7-0.4c2.8-0.1,5.5,0.5,8,1.7c2.2,1.1,4.2,2.6,5.9,4.5l0.5,0.6l4.6-4.1l-0.5-0.6c-2.1-2.5-4.8-4.5-7.7-5.8
	c-3.4-1.6-7.1-2.4-10.9-2.3c-2.4,0-4.9,0.3-7.2,0.9c-2.2,0.5-4.3,1.4-6.2,2.7c-1.8,1.2-3.3,2.8-4.4,4.6c-1.1,2-1.7,4.2-1.6,6.4
	c-0.1,2.2,0.4,4.3,1.3,6.3c0.8,1.7,2.1,3.1,3.6,4.2c1.6,1.2,3.4,2.1,5.2,2.7c2.1,0.8,4.3,1.4,6.6,1.9c2.8,0.7,5.3,1.3,7.4,1.8
	c1.8,0.4,3.6,1.1,5.2,1.9c2.6,1.2,4.2,3.9,4,6.8c0,1.3-0.3,2.6-1.1,3.8c-0.8,1.1-1.8,2-3,2.7c-1.5,0.8-3,1.4-4.7,1.7
	c-1.9,0.4-3.8,0.6-5.7,0.6c-3.2,0.1-6.5-0.5-9.5-1.6c-2.7-1.1-5.1-2.7-7.1-4.8l-0.6-0.6l-4.2,4.7l0.5,0.5c2.6,2.5,5.6,4.4,8.9,5.7
	c4,1.5,8.2,2.3,12.5,2.2c2.5,0,5-0.3,7.5-0.9c2.4-0.6,4.7-1.5,6.8-2.8c2-1.2,3.6-2.9,4.9-4.8c1.3-2.1,1.9-4.5,1.9-7
	c0.1-2.3-0.5-4.7-1.7-6.7C591.2,294.5,589.6,293.1,587.8,291.9"/>
<path class="st2" d="M631.2,308.3c-1,1.3-2.3,2.4-3.7,3.2c-1.4,0.6-2.9,1-4.4,0.9c-1.2,0-2.3-0.1-3.4-0.4c-1-0.3-1.9-0.8-2.6-1.6
	c-0.9-1.1-1.5-2.4-1.8-3.7c-0.5-2.3-0.7-4.7-0.6-7.1V271h16.8v-6.2h-16.8V248h-6.5v16.8H598v6.2h10.2v29.8c-0.1,2.9,0.3,5.8,1,8.6
	c0.6,2,1.6,3.9,2.9,5.5c1.3,1.4,2.9,2.4,4.7,2.9c1.9,0.5,3.8,0.8,5.7,0.7c2.7,0.1,5.3-0.5,7.7-1.6c2.1-1.2,3.8-2.7,5.3-4.6l0.4-0.6
	l-4.2-4L631.2,308.3z"/>
<path class="st2" d="M682.2,271.5c-2.5-2.5-5.4-4.5-8.6-5.9c-6.7-2.9-14.3-2.9-21,0c-6.5,2.9-11.6,8.1-14.4,14.7
	c-5.8,13.9,0.6,29.9,14.4,36c6.7,2.9,14.3,2.9,21,0c6.5-2.9,11.7-8.1,14.4-14.7c2.8-6.8,2.8-14.5,0-21.4
	C686.7,277,684.7,274,682.2,271.5 M683.4,291c0,2.9-0.5,5.7-1.6,8.4c-1,2.5-2.4,4.8-4.3,6.8c-1.8,1.9-4,3.5-6.4,4.6
	c-2.5,1.1-5.2,1.7-8,1.7c-2.7,0-5.4-0.6-7.8-1.7c-2.4-1.1-4.6-2.7-6.4-4.7c-1.8-2-3.3-4.3-4.3-6.9c-1.1-2.6-1.6-5.4-1.6-8.2
	c0-2.9,0.5-5.7,1.5-8.4c1-2.5,2.4-4.8,4.3-6.8c1.8-1.9,4-3.5,6.4-4.6c2.5-1.1,5.2-1.7,8-1.7c2.7,0,5.4,0.6,7.9,1.7
	c2.4,1.1,4.6,2.7,6.4,4.7c1.8,2,3.3,4.4,4.3,6.9C682.8,285.4,683.4,288.2,683.4,291"/>
<path class="st2" d="M743.6,277.2c-0.6-2.6-1.7-5.1-3.4-7.3l-0.1-0.1c-1.7-2.1-3.9-3.7-6.3-4.7c-3-1.1-6.2-1.7-9.4-1.6
	c-2.7,0-5.4,0.4-7.9,1.3c-2.1,0.7-4.1,1.8-5.9,3.2c-1.5,1.2-2.9,2.5-4.1,4.1c-0.4,0.5-0.8,1-1.1,1.5v-0.9c0-1,0-1.9,0-2.7l-0.1-2.2
	c0-0.7-0.1-1.4-0.2-2.2l-0.1-0.7h-6.2l0.1,0.9c0.1,0.8,0.1,1.5,0.2,2.2s0,1.4,0,2.2v47.1h6.5v-27c0-2.4,0.4-4.9,1.1-7.2
	c0.7-2.4,1.9-4.6,3.3-6.6c1.5-2,3.4-3.7,5.6-4.9c2.5-1.3,5.2-2,8-1.9c2.1,0,4.2,0.3,6.2,0.9c1.7,0.5,3.2,1.5,4.4,2.9
	c1.3,1.7,2.3,3.6,2.8,5.6c0.7,3,1,6.1,1,9.2v29h6.5v-30.6C744.7,283.4,744.4,280.3,743.6,277.2"/>
<path class="st2" d="M479.4,344c-2.3-2.2-5.2-3.7-8.2-4.7c-4-1.2-8.2-1.7-12.3-1.6h-23.4v75.3h6.9v-31.3h16.6
	c4.2,0.1,8.3-0.5,12.3-1.6c3-0.9,5.9-2.5,8.2-4.6c2-2,3.6-4.4,4.5-7.1c1.8-5.6,1.8-11.7,0-17.3C483,348.3,481.5,345.9,479.4,344
	 M478,359.7c0,5-1.4,8.9-4.3,11.5s-7.3,4-13.3,4h-18.1v-30.9h18.1c6,0,10.4,1.3,13.3,3.9S478,354.6,478,359.7"/>
<path class="st2" d="M522.9,360.8c-1.4-0.6-3-0.9-4.5-0.8c-2.5,0-5.1,0.4-7.5,1.3c-2,0.8-3.9,1.8-5.6,3.1c-1.5,1.1-2.9,2.5-4,4
	c-0.4,0.5-0.7,0.9-1,1.4v-0.9c0-1,0-2,0-2.9s-0.1-1.6-0.1-2.4s-0.1-1.5-0.2-2.3l-0.1-0.7h-6.2l0.1,0.9c0.1,0.8,0.1,1.5,0.2,2.2
	s0.1,1.4,0.1,2.2V413h6.5v-26.8c0-2.5,0.4-4.9,1.2-7.2c0.8-2.3,1.9-4.4,3.5-6.3c1.5-1.8,3.3-3.3,5.3-4.5c2.1-1.1,4.4-1.7,6.8-1.7
	c0.6,0,1.2,0,1.9,0.1c0.5,0.1,1.1,0.2,1.6,0.4l0.8,0.4l1.9-6.2L522.9,360.8z"/>
<path class="st2" d="M569.4,367.3c-2.5-2.5-5.4-4.5-8.6-5.9c-6.7-2.9-14.3-2.9-21,0c-6.5,2.9-11.6,8.1-14.3,14.6
	c-4.3,10.3-2,22.2,5.8,30.1c2.5,2.5,5.4,4.5,8.6,5.9c6.7,2.9,14.3,2.9,21,0c6.5-2.8,11.7-8.1,14.4-14.7c2.8-6.8,2.8-14.5,0-21.4
	C573.9,372.8,572,369.8,569.4,367.3 M570.6,386.7c0,2.9-0.5,5.7-1.5,8.4c-1,2.5-2.4,4.8-4.3,6.8c-1.8,1.9-4,3.5-6.5,4.6
	c-2.5,1.1-5.2,1.7-8,1.7c-2.7,0-5.4-0.6-7.8-1.7c-2.4-1.1-4.6-2.7-6.4-4.7c-1.8-2-3.3-4.3-4.3-6.9c-1.1-2.6-1.6-5.4-1.6-8.2
	c0-2.9,0.5-5.7,1.5-8.4c1-2.5,2.4-4.8,4.3-6.8c1.8-1.9,4-3.5,6.4-4.6c5-2.3,10.8-2.3,15.9,0c2.4,1.1,4.6,2.7,6.4,4.7
	c1.8,2,3.3,4.4,4.3,6.9C570.1,381.2,570.6,384,570.6,386.7"/>
<path class="st2" d="M628.6,367.3c-2-2.6-4.5-4.6-7.4-6c-3.3-1.5-6.9-2.3-10.5-2.2c-2.8-0.1-5.6,0.4-8.2,1.4c-2.1,0.8-4,1.9-5.8,3.2
	c-1.4,1-2.6,2.3-3.6,3.7l-0.4,0.6v-0.4c0-0.8-0.1-1.6-0.1-2.3l-0.1-1.9c0-0.6-0.1-1.4-0.2-2.2l-0.1-0.7H586l0.1,0.9
	c0.1,0.8,0.1,1.5,0.2,2.2s0,1.4,0,2.2V435h6.4v-24.7c1.8,0.9,3.7,1.7,5.6,2.5c3.1,1.1,6.3,1.6,9.6,1.5c3.6,0,7.2-0.6,10.5-1.9
	c3.2-1.2,6-3.1,8.4-5.5c2.4-2.5,4.3-5.4,5.6-8.6c1.4-3.5,2-7.3,2-11.1c0-3.7-0.5-7.3-1.4-10.9C632.1,373,630.6,370,628.6,367.3
	 M610.2,365.4c2.8-0.1,5.5,0.5,8,1.7c2.1,1.1,3.9,2.7,5.3,4.7c1.4,2.1,2.4,4.4,3,6.9c0.7,2.7,1,5.5,1,8.3c0.1,3.1-0.5,6.2-1.5,9
	c-0.9,2.4-2.4,4.7-4.2,6.5c-1.8,1.8-3.9,3.1-6.2,4c-2.5,0.9-5.1,1.4-7.7,1.4c-1.9,0-3.9-0.2-5.7-0.6c-1.5-0.4-3-0.9-4.5-1.5
	c-1.1-0.5-2.2-1.1-3.2-1.8l-0.2-0.1l-1.6-1.1v-15.5c0-1.9,0.1-3.7,0.3-5.6c0.1-1.6,0.5-3.1,1-4.6c0.6-1.6,1.4-3.1,2.3-4.5
	c1-1.4,2.2-2.7,3.5-3.8c1.4-1.1,2.9-2,4.6-2.6C606.2,365.7,608.2,365.4,610.2,365.4"/>
<path class="st2" d="M684.5,366.6c-2.2-2.4-5-4.3-8-5.5c-3.2-1.3-6.6-1.9-10-1.9c-3.5,0-7,0.7-10.3,2.2c-3.1,1.4-5.8,3.4-8,5.9
	c-2.2,2.6-4,5.6-5.2,8.8c-2.5,7.1-2.5,14.8,0.1,21.8c1.2,3.2,3.1,6.2,5.5,8.7c2.4,2.5,5.3,4.4,8.5,5.6c3.4,1.3,7.1,2,10.7,2
	c4.1,0,8.2-0.8,12-2.4c3.6-1.4,6.8-3.8,9.3-6.8l0.5-0.6l-4.7-4l-0.5,0.6c-0.9,1.1-1.9,2-3.1,2.8c-1.3,0.9-2.7,1.6-4.1,2.2
	c-1.5,0.6-3.1,1.1-4.7,1.4c-4.2,0.9-8.6,0.6-12.6-1c-2.3-1-4.4-2.4-6.1-4.2c-1.7-1.9-3.1-4-4-6.4c-0.9-2.3-1.4-4.6-1.6-7h43.3v-0.8
	c0.1-4.2-0.6-8.4-1.9-12.4C688.7,372.4,686.9,369.3,684.5,366.6 M666.6,365.4c4.6-0.2,9.1,1.5,12.4,4.6c3,2.9,4.9,7.3,5.6,12.9
	h-36.2c0.2-2.2,0.7-4.3,1.6-6.4c0.9-2.2,2.2-4.1,3.8-5.9c1.6-1.7,3.4-3,5.5-3.9c2.3-1,4.7-1.5,7.2-1.4"/>
<path class="st2" d="M724.8,360c-2.5,0-5.1,0.4-7.5,1.3c-2,0.8-3.9,1.8-5.6,3.1c-1.5,1.1-2.9,2.5-4,4l-1,1.4v-0.9c0-1,0-2,0-2.9
	l-0.1-2.4c0-0.7-0.1-1.5-0.2-2.3l-0.1-0.7h-6.2l0.1,0.9c0.1,0.8,0.1,1.5,0.2,2.2s0.1,1.4,0.1,2.2V413h6.5v-26.8
	c0-2.5,0.4-4.9,1.2-7.2c0.8-2.3,1.9-4.4,3.5-6.3c1.5-1.8,3.3-3.3,5.3-4.5c2.1-1.1,4.4-1.7,6.8-1.7c0.6,0,1.2,0,1.8,0.1
	c0.5,0.1,1.1,0.2,1.6,0.4l0.8,0.4l1.9-6.2l-0.6-0.3C727.9,360.2,726.4,360,724.8,360"/>
<path class="st2" d="M766.3,404c-1,1.3-2.3,2.4-3.7,3.2c-1.4,0.6-2.9,0.9-4.4,0.9c-1.2,0-2.3-0.1-3.5-0.4c-1-0.3-1.9-0.8-2.5-1.6
	c-0.9-1.1-1.5-2.4-1.8-3.8c-0.5-2.3-0.7-4.7-0.7-7v-28.6h16.8v-6.2h-16.8v-16.8h-6.5v16.8H733v6.2h10.2v29.8c-0.1,2.9,0.3,5.8,1,8.6
	c0.6,2,1.6,3.9,2.9,5.5c1.3,1.4,2.9,2.4,4.7,2.9c1.9,0.5,3.8,0.8,5.7,0.8c2.7,0.1,5.3-0.5,7.7-1.6c2.1-1.2,3.9-2.7,5.3-4.6l0.4-0.5
	l-4.2-4.1L766.3,404z"/>
<rect x="776.5" y="360.5" class="st2" width="6.5" height="52.4"/>
<rect x="775.5" y="342.6" class="st2" width="8.5" height="8.8"/>
<path class="st2" d="M835.4,366.6c-2.2-2.4-5-4.3-8-5.5c-3.2-1.3-6.6-1.9-10-1.9c-3.5,0-7.1,0.7-10.3,2.2c-3.1,1.4-5.8,3.4-8,5.9
	c-2.2,2.6-4,5.5-5.2,8.8c-2.5,7.1-2.5,14.8,0.1,21.8c1.3,3.2,3.1,6.2,5.5,8.7c2.4,2.5,5.3,4.4,8.5,5.6c3.4,1.3,7.1,2,10.7,2
	c4.1,0,8.2-0.8,12-2.4c3.6-1.4,6.9-3.8,9.3-6.8l0.5-0.6l-4.7-4l-0.5,0.6c-0.9,1.1-1.9,2-3.1,2.8c-1.3,0.9-2.7,1.6-4.1,2.2
	c-1.5,0.6-3.1,1.1-4.7,1.5c-4.2,0.9-8.6,0.6-12.6-1c-2.3-1-4.4-2.4-6.1-4.2c-1.7-1.9-3.1-4-4-6.4c-0.9-2.2-1.4-4.6-1.6-7h43.2v-0.8
	c0.1-4.2-0.6-8.4-1.9-12.4C839.5,372.4,837.7,369.3,835.4,366.6 M799.4,383c0.2-2.2,0.7-4.3,1.6-6.4c0.9-2.2,2.2-4.1,3.8-5.9
	c1.6-1.7,3.5-3,5.5-3.9c2.3-1,4.7-1.5,7.2-1.4c5.1,0,9.2,1.6,12.4,4.6s4.9,7.3,5.6,12.9L799.4,383z"/>
<path class="st2" d="M888.3,392c-1.1-1.8-2.7-3.2-4.4-4.3c-1.9-1.1-3.9-2-5.9-2.7c-2.1-0.7-4.2-1.2-6.3-1.7s-3.8-0.9-5.7-1.4
	c-1.7-0.4-3.4-1-4.9-1.8c-1.3-0.6-2.4-1.5-3.3-2.6c-0.8-1-1.2-2.3-1.2-3.6c-0.2-2.9,1.4-5.7,4-7c1.3-0.7,2.7-1.1,4.2-1.4
	c1.6-0.3,3.2-0.4,4.7-0.4c2.8-0.1,5.5,0.5,8,1.7c2.2,1.1,4.2,2.6,5.9,4.5l0.5,0.6l4.6-4.1l-0.5-0.6c-2.1-2.5-4.8-4.5-7.7-5.8
	c-3.4-1.6-7.1-2.3-10.9-2.3c-2.4,0-4.8,0.3-7.2,0.9c-2.2,0.5-4.3,1.4-6.2,2.7c-1.8,1.2-3.3,2.8-4.4,4.6c-1.1,1.9-1.7,4.2-1.7,6.4
	c-0.1,2.2,0.4,4.3,1.3,6.3c0.8,1.7,2.1,3.1,3.5,4.2c1.6,1.2,3.4,2.1,5.2,2.7c2.1,0.8,4.3,1.4,6.5,1.8c2.8,0.7,5.3,1.3,7.4,1.8
	c1.8,0.4,3.6,1.1,5.2,1.9c2.6,1.2,4.2,3.9,4,6.8c0,1.3-0.3,2.6-1.1,3.8c-0.8,1.1-1.8,2-3,2.7c-1.5,0.8-3,1.4-4.7,1.7
	c-1.9,0.4-3.8,0.6-5.7,0.6c-3.2,0.1-6.5-0.5-9.5-1.6c-2.7-1.1-5.1-2.7-7.1-4.8l-0.6-0.6l-4.2,4.7l0.5,0.5c2.5,2.5,5.5,4.5,8.8,5.8
	c4,1.5,8.2,2.3,12.5,2.2c2.5,0,5-0.3,7.5-0.9c2.4-0.6,4.7-1.5,6.8-2.8c2-1.2,3.6-2.9,4.9-4.8c1.3-2.1,1.9-4.5,1.9-7
	C890.1,396.4,889.5,394,888.3,392"/>
</svg>
