<?xml version="1.0" encoding="utf-8"?>
<!-- Generator: Adobe Illustrator 15.0.0, SVG Export Plug-In . SVG Version: 6.00 Build 0)  -->
<!DOCTYPE svg PUBLIC "-//W3C//DTD SVG 1.1//EN" "http://www.w3.org/Graphics/SVG/1.1/DTD/svg11.dtd">
<svg version="1.1" id="Layer_1" xmlns="http://www.w3.org/2000/svg" xmlns:xlink="http://www.w3.org/1999/xlink" x="0px" y="0px"
	 width="212.892px" height="54.362px" viewBox="0 0 212.892 54.362" enable-background="new 0 0 212.892 54.362"
	 xml:space="preserve">
<path fill="#1D1E1C" d="M36.635,17.085c6.341,0,9.76,4.262,10.205,9.463l-3.616,0.248c-0.347-3.815-2.626-6.392-6.638-6.392
	c-4.063,0-6.837,3.121-6.837,8.124c0,5.004,2.774,8.125,6.837,8.125c4.012,0,6.291-2.723,6.638-6.539l3.616,0.348
	c-0.445,5.252-3.864,9.463-10.205,9.463c-6.539,0-11.097-4.51-11.097-11.396C25.538,21.645,30.096,17.085,36.635,17.085"/>
<path fill="#1D1E1C" d="M63.982,21.792c-1.189-0.644-2.031-0.892-3.369-0.892c-3.121,0-5.449,2.826-5.449,6.986v11.442h-4.112
	V17.681h4.112v4.409c0.792-2.478,3.022-5.003,6.143-5.003c1.337,0,2.328,0.347,3.071,0.989L63.982,21.792z"/>
<path fill="#1D1E1C" d="M86.672,32.046c-1.09,4.904-4.706,7.877-10.106,7.877c-6.441,0-11.147-4.357-11.147-11.097
	c0-6.836,4.706-11.741,10.949-11.741c6.886,0,10.403,4.905,10.403,10.8v1.636h-17.24c0.198,4.211,3.22,7.182,7.084,7.182
	c3.617,0,5.747-1.733,6.639-5.051L86.672,32.046z M82.56,26.844c-0.148-3.468-2.081-6.638-6.192-6.638
	c-3.914,0-6.243,3.073-6.738,6.638H82.56z"/>
<path fill="#1D1E1C" d="M108.47,35.068c0,1.14,0.645,1.685,1.686,1.685c0.495,0,1.288-0.147,1.883-0.493v2.228
	c-0.744,0.745-1.635,1.288-3.32,1.288c-2.229,0-3.813-1.684-4.062-4.26c-1.189,2.525-4.261,4.41-7.778,4.41
	c-4.211,0-6.936-2.279-6.936-5.994c0-4.114,3.517-5.797,8.719-6.837l5.846-1.19v-0.841c0-2.973-1.734-4.805-4.756-4.805
	c-3.121,0-4.805,1.832-5.449,4.358l-3.666-0.496c0.842-4.06,4.062-7.034,9.165-7.034c5.449,0,8.668,2.774,8.668,8.273V35.068z
	 M104.507,28.628l-4.855,1.04c-3.418,0.743-5.598,1.388-5.598,4.015c0,1.832,1.239,3.218,3.716,3.218
	c3.814,0,6.737-2.873,6.737-7.232V28.628z"/>
<path fill="#1D1E1C" d="M115.754,20.652h-3.271v-2.229l1.389-0.248c2.031-0.395,2.477-1.386,2.972-3.466l0.644-3.024h2.328v5.994
	h6.094v2.973h-6.094v13.131c0,1.932,0.793,2.821,2.676,2.821c1.388,0,2.824-0.594,4.063-1.288v2.774
	c-1.585,1.19-3.171,1.833-5.549,1.833c-3.071,0-5.251-1.436-5.251-5.647V20.652z"/>
<path fill="#1D1E1C" d="M143.101,21.792c-1.189-0.644-2.031-0.892-3.369-0.892c-3.121,0-5.449,2.826-5.449,6.986v11.442h-4.111
	V17.681h4.111v4.409c0.793-2.478,3.022-5.003,6.144-5.003c1.337,0,2.328,0.347,3.071,0.989L143.101,21.792z"/>
<path fill="#1D1E1C" d="M161.134,17.679h4.112v21.649h-4.112v-3.813c-1.04,2.575-3.814,4.408-7.084,4.408
	c-5.648,0-7.729-3.716-7.729-8.768V17.679h4.111v13.079c0,3.616,1.586,5.944,5.004,5.944c3.221,0,5.697-2.575,5.697-6.586V17.679z"
	/>
<path fill="#1D1E1C" d="M172.776,31.798c0.396,3.319,2.726,5.104,6.44,5.104c2.874,0,5.004-1.041,5.004-3.219
	c0-2.031-1.437-2.727-4.112-3.222l-3.666-0.644c-4.062-0.645-6.49-2.377-6.49-6.092c0-3.964,3.32-6.64,8.324-6.64
	c5.746,0,9.114,2.676,9.512,7.68l-3.32,0.197c-0.495-3.318-2.525-4.854-6.191-4.854c-2.726,0-4.509,1.239-4.509,3.219
	c0,1.735,1.091,2.625,3.319,3.023l4.063,0.643c4.359,0.743,6.936,2.378,6.936,6.291c0,4.313-3.814,6.639-8.868,6.639
	c-5.399,0-9.513-2.525-9.908-7.877L172.776,31.798z"/>
<path fill="#1D1E1C" d="M193.089,20.652h-3.27v-2.229l1.388-0.248c2.03-0.395,2.478-1.386,2.972-3.466l0.645-3.024h2.328v5.994
	h6.094v2.973h-6.094v13.131c0,1.932,0.793,2.821,2.676,2.821c1.387,0,2.822-0.594,4.063-1.288v2.774
	c-1.586,1.19-3.172,1.833-5.55,1.833c-3.071,0-5.251-1.436-5.251-5.647V20.652z"/>
<path fill="#1D1E1C" d="M208.452,19.504c-2.023,0-3.689-1.557-3.689-3.709c0-2.149,1.666-3.709,3.689-3.709
	c2.022,0,3.688,1.56,3.688,3.709C212.14,17.947,210.475,19.504,208.452,19.504 M208.452,12.719c-1.687,0-3.015,1.285-3.015,3.076
	c0,1.792,1.328,3.079,3.015,3.079c1.686,0,3.012-1.287,3.012-3.079C211.464,14.004,210.138,12.719,208.452,12.719 M209.399,17.671
	c-0.084-0.104-0.126-0.378-0.169-0.799c0-0.444-0.21-0.632-0.653-0.632h-0.885v1.431h-0.759v-3.855h1.749
	c0.97,0,1.455,0.464,1.455,1.18c0,0.568-0.381,0.926-0.864,0.968c0.442,0.084,0.694,0.36,0.737,0.801
	c0.021,0.57,0.041,0.76,0.189,0.906H209.399z M208.557,15.648c0.569,0,0.821-0.188,0.821-0.61c0-0.379-0.252-0.612-0.821-0.612
	h-0.864v1.222H208.557z"/>
<polygon fill="#626466" points="0.087,36.124 17.655,53.786 17.655,36.124 0.087,18.463 "/>
<polygon fill="#1D1E1C" points="117.829,49.119 118.728,49.119 118.728,53.457 121.437,53.457 121.437,54.274 117.829,54.274 "/>
<path fill="#1D1E1C" d="M128.021,54.355c-0.335,0-0.636-0.049-0.906-0.144s-0.501-0.24-0.692-0.431
	c-0.19-0.192-0.338-0.429-0.441-0.709c-0.104-0.283-0.154-0.613-0.154-0.985v-2.966h0.898v2.929c0,0.483,0.115,0.847,0.348,1.099
	c0.232,0.25,0.553,0.375,0.963,0.375c0.404,0,0.723-0.119,0.955-0.359c0.232-0.242,0.348-0.601,0.348-1.077v-2.966h0.899v2.922
	c0,0.383-0.054,0.719-0.159,1.009s-0.254,0.532-0.445,0.726s-0.424,0.34-0.695,0.435C128.665,54.306,128.36,54.355,128.021,54.355"
	/>
<polygon fill="#1D1E1C" points="136.49,51.652 134.687,49.121 135.753,49.121 137.035,50.967 138.324,49.121 139.362,49.121 
	137.565,51.637 139.437,54.274 138.368,54.274 137.013,52.324 135.651,54.274 134.612,54.274 "/>
<polygon fill="#1D1E1C" points="143.892,49.119 147.706,49.119 147.706,49.936 144.79,49.936 144.79,51.263 147.374,51.263 
	147.374,52.08 144.79,52.08 144.79,53.457 147.743,53.457 147.743,54.274 143.892,54.274 "/>
<polygon fill="#1D1E1C" points="152.347,49.119 153.312,49.119 154.879,51.557 156.448,49.119 157.413,49.119 157.413,54.274 
	156.515,54.274 156.515,50.577 154.888,53.007 154.856,53.007 153.244,50.593 153.244,54.274 152.347,54.274 "/>
<path fill="#1D1E1C" d="M162.259,49.119h2.308c0.593,0,1.041,0.154,1.345,0.455c0.23,0.234,0.346,0.517,0.346,0.857v0.014
	c0,0.158-0.021,0.297-0.063,0.416c-0.041,0.121-0.094,0.226-0.16,0.316c-0.066,0.092-0.145,0.172-0.234,0.239
	c-0.09,0.069-0.18,0.128-0.273,0.177c0.15,0.055,0.289,0.116,0.414,0.189c0.124,0.07,0.23,0.156,0.322,0.252
	c0.09,0.099,0.16,0.214,0.209,0.346c0.048,0.135,0.072,0.288,0.072,0.465v0.016c0,0.229-0.045,0.434-0.136,0.609
	c-0.091,0.18-0.22,0.325-0.386,0.442c-0.167,0.12-0.368,0.208-0.604,0.271c-0.234,0.06-0.494,0.092-0.779,0.092h-2.381V49.119z
	 M164.39,51.291c0.294,0,0.527-0.057,0.705-0.173c0.176-0.115,0.264-0.291,0.264-0.526v-0.015c0-0.206-0.077-0.367-0.23-0.482
	c-0.154-0.114-0.379-0.173-0.672-0.173h-1.3v1.369H164.39z M164.654,53.47c0.308,0,0.552-0.059,0.728-0.176
	c0.176-0.118,0.264-0.295,0.264-0.529V52.75c0-0.221-0.087-0.391-0.26-0.512c-0.174-0.121-0.44-0.18-0.797-0.18h-1.433v1.412
	H164.654z"/>
<path fill="#1D1E1C" d="M173.555,54.362c-0.397,0-0.761-0.069-1.09-0.21c-0.329-0.14-0.61-0.328-0.847-0.568
	c-0.235-0.24-0.42-0.523-0.553-0.846c-0.131-0.32-0.199-0.662-0.199-1.025v-0.017c0-0.362,0.068-0.704,0.199-1.026
	c0.133-0.322,0.319-0.604,0.561-0.846c0.24-0.244,0.525-0.438,0.854-0.578c0.33-0.145,0.692-0.216,1.09-0.216
	c0.398,0,0.762,0.07,1.09,0.212c0.33,0.141,0.611,0.328,0.848,0.569c0.236,0.24,0.42,0.522,0.553,0.843
	c0.133,0.321,0.198,0.664,0.198,1.027v0.015c0,0.363-0.065,0.706-0.198,1.027c-0.133,0.323-0.32,0.606-0.561,0.848
	c-0.24,0.242-0.525,0.437-0.854,0.577C174.315,54.292,173.952,54.362,173.555,54.362 M173.569,53.53
	c0.254,0,0.488-0.048,0.701-0.144c0.213-0.094,0.395-0.225,0.545-0.389c0.152-0.164,0.271-0.358,0.356-0.578
	c0.086-0.221,0.129-0.457,0.129-0.707v-0.017c0-0.25-0.043-0.485-0.129-0.711c-0.086-0.223-0.205-0.417-0.358-0.581
	c-0.154-0.162-0.34-0.296-0.555-0.395c-0.215-0.096-0.449-0.146-0.704-0.146c-0.254,0-0.487,0.049-0.7,0.145
	c-0.213,0.095-0.395,0.225-0.547,0.389c-0.15,0.165-0.27,0.359-0.355,0.578c-0.086,0.221-0.127,0.457-0.127,0.707v0.015
	c0,0.253,0.041,0.487,0.127,0.712s0.205,0.418,0.359,0.582c0.154,0.163,0.34,0.297,0.555,0.395
	C173.081,53.481,173.315,53.53,173.569,53.53"/>
<path fill="#1D1E1C" d="M182.989,54.355c-0.334,0-0.637-0.049-0.906-0.144s-0.502-0.24-0.692-0.431
	c-0.19-0.192-0.339-0.429-0.442-0.709c-0.103-0.283-0.153-0.613-0.153-0.985v-2.966h0.897v2.929c0,0.483,0.116,0.847,0.348,1.099
	c0.232,0.25,0.554,0.375,0.964,0.375c0.403,0,0.723-0.119,0.955-0.359c0.231-0.242,0.348-0.601,0.348-1.077v-2.966h0.899v2.922
	c0,0.383-0.053,0.719-0.159,1.009c-0.104,0.29-0.254,0.532-0.445,0.726c-0.192,0.193-0.424,0.34-0.696,0.435
	S183.327,54.355,182.989,54.355"/>
<path fill="#1D1E1C" d="M189.97,49.119h2.298c0.323,0,0.612,0.045,0.862,0.136c0.25,0.093,0.459,0.22,0.625,0.382
	c0.138,0.143,0.244,0.307,0.317,0.491c0.073,0.188,0.11,0.394,0.11,0.618v0.016c0,0.213-0.03,0.401-0.092,0.57
	s-0.146,0.32-0.254,0.449c-0.108,0.13-0.237,0.242-0.387,0.33c-0.15,0.092-0.316,0.164-0.498,0.211l1.393,1.953h-1.068l-1.27-1.797
	h-0.016h-1.123v1.797h-0.898V49.119z M192.198,51.674c0.325,0,0.583-0.077,0.775-0.231c0.193-0.157,0.289-0.368,0.289-0.633v-0.016
	c0-0.279-0.094-0.495-0.281-0.641c-0.188-0.145-0.451-0.217-0.791-0.217h-1.322v1.737H192.198z"/>
<path fill="#1D1E1C" d="M201.26,54.362c-0.403,0-0.769-0.065-1.097-0.2c-0.33-0.137-0.61-0.322-0.844-0.562
	c-0.233-0.238-0.414-0.517-0.541-0.84c-0.129-0.321-0.191-0.669-0.191-1.048v-0.016c0-0.357,0.064-0.699,0.195-1.023
	c0.133-0.325,0.316-0.608,0.554-0.85c0.237-0.244,0.519-0.438,0.845-0.578c0.326-0.145,0.684-0.215,1.07-0.215
	c0.227,0,0.432,0.018,0.615,0.049c0.186,0.03,0.355,0.078,0.513,0.137c0.157,0.057,0.306,0.129,0.446,0.215
	c0.14,0.086,0.275,0.188,0.408,0.299l-0.574,0.686c-0.099-0.082-0.199-0.158-0.303-0.229c-0.103-0.067-0.211-0.126-0.324-0.173
	c-0.112-0.047-0.236-0.083-0.371-0.11c-0.135-0.026-0.283-0.038-0.445-0.038c-0.236,0-0.456,0.049-0.659,0.146
	c-0.204,0.098-0.381,0.231-0.53,0.396c-0.15,0.164-0.268,0.356-0.354,0.578c-0.086,0.223-0.129,0.455-0.129,0.701v0.016
	c0,0.266,0.042,0.512,0.125,0.737c0.083,0.228,0.201,0.421,0.355,0.583c0.155,0.162,0.338,0.29,0.551,0.385
	c0.213,0.094,0.453,0.141,0.717,0.141c0.244,0,0.474-0.038,0.688-0.109c0.213-0.07,0.396-0.166,0.555-0.285v-0.97h-1.318v-0.788
	h2.193v2.165c-0.127,0.11-0.268,0.211-0.422,0.312c-0.156,0.097-0.322,0.182-0.502,0.258c-0.179,0.072-0.371,0.13-0.578,0.172
	C201.702,54.341,201.485,54.362,201.26,54.362"/>
<polygon fill="#B62674" points="17.655,18.461 0.086,36.124 0.086,18.461 17.655,0.801 "/>
</svg>
