<svg width="207" height="40" fill="none" xmlns="http://www.w3.org/2000/svg">
  <path d="M2.473 20A17.53 17.53 0 0 1 26.2 3.607a5.871 5.871 0 0 1 1.44-2.09A20 20 0 0 0 3.19 30.835a5.981 5.981 0 0 1 1.77-1.837 17.454 17.454 0 0 1-2.486-8.998ZM36.658 8.935a5.938 5.938 0 0 1-1.774 1.813 17.53 17.53 0 0 1-21.29 25.567 5.866 5.866 0 0 1-1.525 2.047A20 20 0 0 0 36.658 8.935ZM31.76 9.22a3.504 3.504 0 1 0 0-7.007 3.504 3.504 0 0 0 0 7.007ZM8.142 37.566a3.504 3.504 0 1 0 0-7.007 3.504 3.504 0 0 0 0 7.007Z" fill="#F5A01D"/>
  <path d="M19.999 7.13a12.866 12.866 0 1 0-.008 25.732 12.866 12.866 0 0 0 .008-25.732Zm2.965 18.492c-.84.67-2.004 1.006-3.495 1.006a8.235 8.235 0 0 1-3.65-.792V23.31c.713.332 1.451.606 2.208.82.538.15 1.093.231 1.651.241.485.03.968-.09 1.382-.344A1.189 1.189 0 0 0 21.539 23c.003-.24-.07-.476-.21-.673a2.377 2.377 0 0 0-.641-.55 16.252 16.252 0 0 0-1.683-.89 7.964 7.964 0 0 1-1.773-1.07 3.96 3.96 0 0 1-.942-1.187 3.376 3.376 0 0 1-.353-1.584 3.337 3.337 0 0 1 1.156-2.692c.792-.65 1.845-.978 3.207-.978a7.565 7.565 0 0 1 1.916.238c.662.172 1.31.396 1.936.669l-.883 2.122a12.892 12.892 0 0 0-1.706-.59 5.542 5.542 0 0 0-1.326-.166c-.427-.029-.85.1-1.188.36a1.187 1.187 0 0 0-.396.942 1.16 1.16 0 0 0 .17.634c.14.207.32.383.53.518a16.42 16.42 0 0 0 1.699.903c1.204.578 2.03 1.156 2.478 1.734.458.614.694 1.364.67 2.13a3.338 3.338 0 0 1-1.236 2.751Z" fill="#fff"/>
  <path d="M126.481 32.218a1.912 1.912 0 1 0 0-3.825 1.912 1.912 0 0 0 0 3.825Z" fill="#F5A01D"/>
  <path d="M49.188 27.138v-1.096a.424.424 0 0 1 .483-.48h1.544a.424.424 0 0 1 .479.48v.882c0 2.06 1.017 3.088 3.052 3.088h3.02c2.035 0 3.053-1.055 3.053-3.167v-1.148c0-1.647-1.36-2.72-4.082-3.222-1.137-.2-2.281-.441-3.432-.72a6.077 6.077 0 0 1-2.914-1.584 4.332 4.332 0 0 1-1.187-3.243v-1.69c0-1.584.452-2.825 1.357-3.725.906-.9 2.146-1.352 3.722-1.354h3.808c1.552 0 2.787.45 3.706 1.354.918.902 1.375 2.144 1.37 3.725v.855c0 .344-.15.515-.448.515h-1.583c-.297 0-.448-.17-.448-.515v-.618c0-2.077-1.017-3.117-3.052-3.12h-2.922c-2.037 0-3.056 1.087-3.056 3.259v1.37c0 1.169.767 1.97 2.3 2.403.686.182 1.441.348 2.265.499a24.2 24.2 0 0 1 2.486.582c.787.222 1.55.52 2.28.89a4.074 4.074 0 0 1 1.663 1.616c.445.8.665 1.705.637 2.62v1.544c0 1.584-.458 2.826-1.373 3.726-.916.9-2.155 1.35-3.718 1.354H54.24c-1.557 0-2.792-.452-3.705-1.354-.913-.903-1.362-2.145-1.346-3.726ZM80.407 32.218H69.635a.428.428 0 0 1-.483-.483V10.638a.428.428 0 0 1 .483-.48h10.772a.423.423 0 0 1 .48.48v1.243a.427.427 0 0 1-.48.483h-8.404c-.23 0-.345.103-.345.309V19.6c0 .206.115.308.345.308h7.34a.424.424 0 0 1 .478.48v1.235a.424.424 0 0 1-.478.483h-7.34c-.23 0-.345.102-.345.308v7.28c0 .207.115.31.345.31h8.404a.426.426 0 0 1 .48.483v1.23a.427.427 0 0 1-.48.5ZM95.158 32.218h-4.101c-1.584 0-2.824-.447-3.721-1.339-.898-.892-1.35-2.139-1.358-3.74V15.237c0-1.602.452-2.85 1.358-3.741.905-.892 2.145-1.338 3.721-1.338h4.117c1.584 0 2.824.446 3.721 1.338.898.892 1.349 2.139 1.354 3.74v1.68a.416.416 0 0 1-.121.36.417.417 0 0 1-.362.118h-1.544a.424.424 0 0 1-.482-.479v-1.583c0-1.993-.96-2.988-2.878-2.985h-3.536c-1.9 0-2.849.995-2.846 2.985v11.702c0 1.993.948 2.988 2.846 2.985h3.536c1.92 0 2.88-.995 2.878-2.985v-1.583a.427.427 0 0 1 .483-.483h1.543a.427.427 0 0 1 .48.483v1.678c0 1.605-.452 2.852-1.354 3.742-.903.889-2.147 1.338-3.734 1.346ZM117.281 10.159h1.544c.32 0 .483.15.483.447v16.532c0 1.605-.447 2.852-1.339 3.741-.892.89-2.127 1.336-3.705 1.339h-3.809c-1.583 0-2.824-.446-3.721-1.339-.897-.892-1.349-2.139-1.354-3.74V10.637a.424.424 0 0 1 .479-.48h1.544a.424.424 0 0 1 .479.48v16.397c0 1.993.949 2.988 2.847 2.985h3.226c1.921 0 2.882-.995 2.882-2.985V10.638c0-.317.147-.48.444-.48ZM127.265 26.267h-1.544a.426.426 0 0 1-.462-.285.438.438 0 0 1-.017-.194v-15.15a.422.422 0 0 1 .479-.479h7.89c1.584 0 2.829.451 3.737 1.354.908.902 1.366 2.144 1.374 3.725v3.12a5.191 5.191 0 0 1-.927 3.167 4.407 4.407 0 0 1-2.573 1.662v.139l3.979 8.35c.206.367.091.55-.341.55h-1.544a.917.917 0 0 1-.859-.483l-3.844-8.314h-4.525c-.229 0-.344.103-.344.309v2.042a.428.428 0 0 1-.283.47.423.423 0 0 1-.196.017Zm.823-4.924h5.179c1.966 0 2.949-.984 2.949-2.95v-3.052c0-1.993-.983-2.988-2.949-2.985h-5.179c-.229 0-.344.103-.344.309v8.369c0 .206.115.309.344.309ZM147.024 10.638v21.097a.43.43 0 0 1-.288.465.427.427 0 0 1-.195.018h-1.544a.422.422 0 0 1-.495-.483V10.638a.421.421 0 0 1 .285-.462.424.424 0 0 1 .194-.017h1.544a.428.428 0 0 1 .499.479ZM158.686 32.218h-1.544a.425.425 0 0 1-.479-.484V12.672c0-.205-.114-.308-.344-.308h-4.668c-.34 0-.514-.163-.514-.483v-1.243c0-.317.174-.48.514-.48h12.522c.345 0 .515.163.515.48v1.243c0 .32-.17.483-.515.483h-4.663c-.23 0-.345.103-.345.308v19.063a.416.416 0 0 1-.118.361.416.416 0 0 1-.361.122ZM171.307 10.638v21.097a.416.416 0 0 1-.118.362.417.417 0 0 1-.361.12h-1.544a.425.425 0 0 1-.479-.482V10.638a.424.424 0 0 1 .479-.48h1.544a.424.424 0 0 1 .479.48ZM176.387 31.735v-1.247a1.508 1.508 0 0 1 .206-.895l10.633-16.98v-.138h-9.897a.422.422 0 0 1-.483-.48v-1.357a.425.425 0 0 1 .483-.48h12.142a.42.42 0 0 1 .359.12.432.432 0 0 1 .12.36v1.639c.008.34-.088.676-.273.962L179.3 29.747v.139h10.499c.321 0 .479.146.479.443v1.374c0 .34-.158.515-.479.515h-12.933a.423.423 0 0 1-.479-.483ZM206.434 32.218h-10.768a.424.424 0 0 1-.367-.118.433.433 0 0 1-.124-.366V10.639a.426.426 0 0 1 .123-.36.432.432 0 0 1 .36-.12h10.769a.428.428 0 0 1 .483.48v1.243a.43.43 0 0 1-.288.465.428.428 0 0 1-.195.018h-8.397c-.226 0-.341.103-.341.308V19.6c0 .206.115.31.341.31h7.343a.427.427 0 0 1 .471.276.415.415 0 0 1 .02.194v1.236a.416.416 0 0 1-.118.362.417.417 0 0 1-.361.12h-7.355c-.226 0-.341.104-.341.31v7.288c0 .205.115.308.341.308h8.404a.43.43 0 0 1 .466.288c.021.063.027.13.017.195v1.232a.433.433 0 0 1-.283.48.427.427 0 0 1-.2.019Z" fill="#fff"/>
</svg>
