<?xml version="1.0" encoding="UTF-8" standalone="no"?>
<!-- Created with Inkscape (http://www.inkscape.org/) -->

<svg
   width="160mm"
   height="100mm"
   viewBox="0 0 160 100"
   version="1.1"
   id="svg922"
   inkscape:version="1.2.1 (9c6d41e4, 2022-07-14)"
   sodipodi:docname="accretion-market-place-logo.svg"
   xmlns:inkscape="http://www.inkscape.org/namespaces/inkscape"
   xmlns:sodipodi="http://sodipodi.sourceforge.net/DTD/sodipodi-0.dtd"
   xmlns="http://www.w3.org/2000/svg"
   xmlns:svg="http://www.w3.org/2000/svg">
  <sodipodi:namedview
     id="namedview924"
     pagecolor="#ffffff"
     bordercolor="#000000"
     borderopacity="0.25"
     inkscape:showpageshadow="2"
     inkscape:pageopacity="0.0"
     inkscape:pagecheckerboard="0"
     inkscape:deskcolor="#d1d1d1"
     inkscape:document-units="mm"
     showgrid="false"
     inkscape:zoom="1.1908427"
     inkscape:cx="261.15959"
     inkscape:cy="202.79756"
     inkscape:window-width="1256"
     inkscape:window-height="971"
     inkscape:window-x="0"
     inkscape:window-y="39"
     inkscape:window-maximized="0"
     inkscape:current-layer="layer1" />
  <defs
     id="defs919" />
  <g
     inkscape:label="Layer 1"
     inkscape:groupmode="layer"
     id="layer1">
    <g
       id="g2340"
       transform="translate(-124.87777,-145.78715)">
      <g
         id="layer1-0"
         transform="rotate(19,-305.5391,475.22463)">
        <g
           id="g3492"
           transform="translate(17.155076,-32.433099)">
          <g
             id="g2622"
             transform="rotate(-20,62.933219,60.788087)">
            <path
               id="path2490"
               style="fill:#000000;fill-rule:nonzero;stroke:none;stroke-width:2.54;stroke-dasharray:none;stroke-opacity:1"
               d="m 61.753367,30.69115 c -1.660231,0 -4.228793,0.130108 -6.956165,1.009757 -1.249163,0.402889 -2.366041,0.90709 -3.381705,1.471745 -0.675862,0.375743 -1.3406,0.79706 -2.004529,1.269173 -1.557557,1.107561 -2.995626,2.410915 -4.499467,3.902088 -1.456405,1.444134 -2.924778,3.011077 -4.471045,4.557344 -3.262463,3.262463 -7.084698,6.397743 -12.397176,9.492961 -1.117559,0.651125 -2.258324,1.27699 -3.433899,1.890324 -2.842612,1.483079 -5.925172,2.939269 -9.707935,4.354256 -3.690882,1.380617 -7.0734521,2.344901 -9.2304462,2.876827 2.2109742,-0.310512 5.6757002,-0.794072 9.5880472,-1.674833 3.911754,-0.880628 7.441393,-1.975075 10.437606,-3.260783 1.268729,-0.544427 2.500945,-1.143994 3.693315,-1.792655 5.699445,-3.100551 9.527571,-6.771668 12.846244,-10.090341 1.581888,-1.581887 3.054564,-3.152219 4.46381,-4.549593 1.460281,-1.447977 2.786548,-2.642656 4.182691,-3.635437 0.592622,-0.421407 1.178751,-0.792607 1.767334,-1.119828 0.883289,-0.491063 1.848261,-0.925917 2.926953,-1.273824 2.367784,-0.763672 4.637103,-0.887284 6.176367,-0.887284 h 1.070219 0.199988 1.069702 c 1.539263,0 3.808582,0.123612 6.176367,0.887284 1.078692,0.347907 2.044181,0.78276 2.92747,1.273824 0.588582,0.327221 1.174195,0.698421 1.766817,1.119828 1.396142,0.992781 2.722411,2.18746 4.18269,3.635437 1.409247,1.397375 2.881931,2.967712 4.463811,4.549593 3.318678,3.31868 7.147318,6.989789 12.846761,10.090341 1.19237,0.64866 2.424586,1.248229 3.693318,1.792655 2.99622,1.285709 6.52534,2.380155 10.4371,3.260783 3.91233,0.880761 7.37707,1.364321 9.58804,1.674833 -2.15699,-0.531926 -5.53956,-1.49621 -9.23044,-2.876827 -3.78276,-1.414987 -6.86532,-2.871177 -9.70794,-4.354256 -1.17558,-0.613334 -2.316349,-1.239199 -3.433907,-1.890324 C 92.490888,49.299 88.669158,46.163713 85.406703,42.901257 83.86043,41.354983 82.391545,39.788046 80.935142,38.343913 79.431299,36.852739 77.993747,35.549386 76.436192,34.441825 75.772262,33.969712 75.107007,33.548395 74.431146,33.172652 73.415482,32.607997 72.298604,32.103796 71.04944,31.700907 68.322069,30.821258 65.753507,30.69115 64.093276,30.69115 h -1.069702 -0.199988 z" />
            <path
               id="path2490-3"
               style="fill:#000000;fill-rule:nonzero;stroke:none;stroke-width:2.37368;stroke-dasharray:none;stroke-opacity:1"
               d="m 61.854244,95.050998 c -1.449925,0 -3.69312,-0.13011 -6.075009,-1.009757 -1.090927,-0.402889 -2.066327,-0.90709 -2.953334,-1.471745 -0.590248,-0.375743 -1.170782,-0.79706 -1.75061,-1.269173 C 49.715035,90.192762 48.45913,88.889408 47.145785,87.398235 45.873866,85.954101 44.591496,84.387158 43.2411,82.840891 40.391903,79.578428 37.053841,76.443148 32.41431,73.34793 31.438315,72.696805 30.442055,72.07094 29.415393,71.457606 26.932863,69.974527 24.24078,68.518337 20.93719,67.10335 c -3.223345,-1.380617 -6.177435,-2.344901 -8.061197,-2.876829 1.930905,0.31051 4.956743,0.794074 8.3735,1.674835 3.416241,0.880628 6.49877,1.975075 9.115443,3.260783 1.108017,0.544427 2.184144,1.143994 3.225474,1.792655 4.977479,3.100551 8.320685,6.771668 11.218973,10.090341 1.381506,1.581887 2.667633,3.152219 3.898366,4.549593 1.275302,1.447977 2.433567,2.642656 3.652857,3.635437 0.517554,0.421407 1.029435,0.792607 1.543462,1.119828 0.7714,0.491063 1.614136,0.925917 2.556187,1.273824 2.06785,0.763672 4.049708,0.887284 5.393989,0.887284 h 0.934651 0.174655 0.9342 c 1.34428,0 3.326138,-0.123612 5.393989,-0.887284 0.942051,-0.347907 1.785237,-0.78276 2.556639,-1.273824 0.514023,-0.327221 1.025456,-0.698421 1.543008,-1.119828 1.219289,-0.992781 2.377555,-2.18746 3.652858,-3.635437 1.230732,-1.397375 2.516867,-2.967712 3.898366,-4.549593 2.898291,-3.31868 6.241945,-6.989789 11.219429,-10.090341 1.041329,-0.64866 2.117455,-1.248229 3.225465,-1.792655 2.61667,-1.285709 5.698756,-2.380155 9.115016,-3.260783 3.41675,-0.880761 6.4426,-1.364325 8.3735,-1.674835 -1.88376,0.531928 -4.83785,1.496212 -8.06119,2.876829 -3.30361,1.414987 -5.995706,2.871177 -8.478226,4.354256 -1.02667,0.613334 -2.02292,1.239199 -2.998919,1.890324 -4.639532,3.095218 -7.977151,6.230505 -10.826341,9.492961 -1.350403,1.546274 -2.633219,3.113211 -3.905136,4.557344 -1.313348,1.491174 -2.5688,2.794527 -3.929055,3.902088 -0.579828,0.472113 -1.160813,0.89343 -1.751062,1.269173 -0.887006,0.564655 -1.862406,1.068856 -2.953334,1.471745 -2.381887,0.879647 -4.625082,1.009757 -6.075007,1.009757 h -0.9342 -0.174655 z" />
            <g
               id="g12673"
               transform="matrix(0.24749741,0.00432009,-0.00577192,0.33067297,46.877363,38.071789)">
              <path
                 style="fill:#808080;stroke:#000000;stroke-width:2.0565;stroke-dasharray:none"
                 d="M 7.0207459,3.3846382 V 135.84498"
                 id="path5418" />
              <g
                 id="g6964"
                 transform="translate(-48.329254,-40.20084)">
                <rect
                   style="fill:#b76e79;fill-opacity:1;stroke:#000000;stroke-width:1.03094;stroke-dasharray:none"
                   id="rect5472"
                   width="98.969055"
                   height="9.432291"
                   x="55.784229"
                   y="50.515469" />
                <rect
                   style="fill:#b76e79;fill-opacity:1;stroke:#000000;stroke-width:1;stroke-dasharray:none"
                   id="rect5472-1"
                   width="59.193279"
                   height="9.6565151"
                   x="55.768761"
                   y="70.5" />
                <rect
                   style="fill:#b76e79;fill-opacity:1;stroke:#000000;stroke-width:1;stroke-dasharray:none"
                   id="rect5472-1-9"
                   width="19.528658"
                   height="9.9918928"
                   x="55.768761"
                   y="90.5" />
              </g>
              <g
                 id="g6959"
                 transform="translate(-25.573916,-17.369889)">
                <rect
                   style="fill:#8db600;fill-opacity:1;stroke:#000000;stroke-width:1.12427;stroke-dasharray:none"
                   id="rect5472-5"
                   width="118.87573"
                   height="9.3389606"
                   x="33.075558"
                   y="-144.61954"
                   transform="scale(1,-1)" />
                <rect
                   style="fill:#8db600;fill-opacity:1;stroke:#000000;stroke-width:1.07489;stroke-dasharray:none"
                   id="rect5472-1-7"
                   width="68.925117"
                   height="9.5816298"
                   x="33.050869"
                   y="-124.64423"
                   transform="scale(1,-1)" />
                <rect
                   style="fill:#8db600;fill-opacity:1;stroke:#000000;stroke-width:1;stroke-dasharray:none"
                   id="rect5472-1-9-2"
                   width="19.528658"
                   height="9.9918928"
                   x="33.013428"
                   y="-104.68167"
                   transform="scale(1,-1)" />
              </g>
            </g>
          </g>
        </g>
        <text
           xml:space="preserve"
           style="font-style:normal;font-variant:normal;font-weight:normal;font-stretch:normal;font-size:29.2102px;font-family:Arial;-inkscape-font-specification:Arial;fill:#000000;stroke:#000000;stroke-width:0.207001;stroke-opacity:1"
           x="-13.41289"
           y="112.28633"
           id="text3469"
           transform="rotate(-19)"><tspan
             id="tspan3467"
             style="font-style:normal;font-variant:normal;font-weight:normal;font-stretch:normal;font-size:29.2102px;font-family:Arial;-inkscape-font-specification:Arial;stroke-width:0.207001"
             x="-13.41289"
             y="112.28633">marketplace</tspan></text>
      </g>
    </g>
  </g>
</svg>
